<svg width="86" height="14" viewBox="0 0 86 14" fill="none" xmlns="http://www.w3.org/2000/svg"><path d="M2.529 3.499L1.47 2.558l1.117-1.117.941 1.058c.206-.147.412-.294.618-.411L3.528.823l1.47-.588.47 1.323c.236-.059.471-.117.736-.147L6.116 0h1.587l-.088 1.411c.235.03.47.088.735.147L8.82.206l1.47.588-.617 1.264.618.441.97-1.058 1.088 1.117-1.059.94c.147.177.294.383.412.589l1.294-.618.617 1.441-1.352.47c.058.236.117.47.147.706l1.44-.088v1.558l-1.44-.088c-.03.235-.089.47-.147.706l1.352.47-.617 1.44-1.294-.617a4.203 4.203 0 0 1-.412.588l1.059.941-1.117 1.117-.97-1.058a7.48 7.48 0 0 1-.618.412l.617 1.264-1.47.588-.44-1.264a5.507 5.507 0 0 1-.736.147l.088 1.411H6.116l.088-1.411c-.235-.03-.47-.088-.735-.147l-.47 1.323-1.47-.588.617-1.264a7.482 7.482 0 0 1-.618-.412l-.97 1.058-1.088-1.117 1.059-.94c-.147-.207-.294-.383-.412-.589l-1.294.618-.617-1.441 1.382-.47a6.024 6.024 0 0 1-.147-.706L0 7.586V6.027l1.44.089c.03-.236.089-.47.148-.706L.235 4.94l.618-1.441 1.293.617a3.19 3.19 0 0 1 .383-.617zm1.029 3.293c0 .676.176 1.323.529 1.882.353.558.882 1 1.5 1.264a3.384 3.384 0 0 0 1.94.206 3.32 3.32 0 0 0 1.735-.912 3.5 3.5 0 0 0 .94-1.705c.147-.647.06-1.323-.176-1.94-.265-.618-.676-1.147-1.235-1.5a3.26 3.26 0 0 0-1.852-.559c-.441 0-.882.088-1.264.235a3.849 3.849 0 0 0-1.088.706c-.324.294-.559.676-.735 1.059a2.837 2.837 0 0 0-.294 1.264zm76.385-3.528l5.293 5.263V3.528H86v6.733l-5.322-5.263v4.999h-.764V3.264h.03zm-9.29 3.498c0 1.441 1.234 2.676 2.792 2.676 1.559 0 2.794-1.206 2.794-2.676 0-1.44-1.235-2.675-2.794-2.675-1.558 0-2.793 1.205-2.793 2.675zm6.35 0c0 1.853-1.617 3.323-3.558 3.323-1.94 0-3.557-1.47-3.557-3.323 0-1.852 1.617-3.351 3.557-3.351 1.941.029 3.558 1.528 3.558 3.351zm-10.261-1.97c-.265-.44-.588-.705-1.176-.705-.618 0-1.118.411-1.118 1 0 .558.618.823 1.059 1l.441.176c.882.352 1.647.793 1.647 1.822 0 1.118-.97 2-2.147 2-1.088 0-1.91-.676-2.117-1.676l.735-.206c.03.324.206.647.47.853.265.235.589.353.912.353.735 0 1.412-.53 1.412-1.265 0-.735-.618-1-1.265-1.293l-.411-.177c-.794-.353-1.47-.735-1.47-1.646 0-1 .882-1.647 1.91-1.647.353 0 .706.088 1.03.265.323.176.558.44.735.735l-.647.411zm-8.82 1.735h.235c.852 0 1.734-.147 1.734-1.146 0-1.059-.823-1.177-1.734-1.177h-.236v2.323zm0 3.47h-.765v-6.44h1c1.293 0 2.499.324 2.499 1.765 0 1-.647 1.676-1.706 1.764l2.176 2.881h-.94l-2.059-2.822h-.206v2.852zm-7.233-6.44h3.528v.677h-2.764v1.911h2.676v.676h-2.676V9.35h2.764v.647h-3.529v-6.44zm-5.47 2.94h.5c.853 0 1.559-.234 1.559-1.175 0-1.059-.882-1.118-1.764-1.118h-.294v2.294zm0 3.5h-.764v-6.44h1.118c.588 0 1.205.03 1.675.353.236.147.442.383.56.647.146.265.205.53.205.824 0 .264-.059.529-.176.764a1.918 1.918 0 0 1-.47.617c-.471.353-1.06.441-1.618.441h-.559l.03 2.794zm-6.262-5.352v1.412h2.029v1.088h-2.029v1.734h2.117v1.118h-3.381v-6.44h3.381v1.088h-2.117zM32.401 7.38l1.558-3.822h1.382l-2.91 6.791-2.882-6.791h1.382L32.4 7.38zm-5.234 2.617h-1.264v-6.44h1.264v6.44zM21.67 8.879h1.794v1.118h-3.088v-6.44h1.294V8.88z" fill="#151515"/></svg>