<svg width="110" height="110" viewBox="0 0 110 110" fill="none" xmlns="http://www.w3.org/2000/svg"><path fill-rule="evenodd" clip-rule="evenodd" d="M55 110c30.376 0 55-24.624 55-55S85.376 0 55 0 0 24.624 0 55s24.624 55 55 55zm0-3c28.719 0 52-23.281 52-52S83.719 3 55 3 3 26.281 3 55s23.281 52 52 52z" fill="#fff" fill-opacity=".01"/><path fill-rule="evenodd" clip-rule="evenodd" d="M.286 60.603a54.992 54.992 0 0 1 7.622-34.014 55.018 55.018 0 0 1 61.34-24.715l-.776 2.893a52.022 52.022 0 0 0-58 23.369 51.998 51.998 0 0 0 6.37 62.196 52.018 52.018 0 0 0 84.774-12.243l2.684 1.33a55.01 55.01 0 0 1-59.084 29.703 55.013 55.013 0 0 1-30.571-16.756A54.996 54.996 0 0 1 .286 60.603z" fill="url(#a)"/><defs><linearGradient id="a" x2="114.698" y2="11.687" gradientUnits="userSpaceOnUse"><stop offset=".05" stop-color="#49E3D7"/><stop offset="1" stop-color="#42CEA9"/></linearGradient></defs></svg>