<svg width="307" height="213" viewBox="0 0 307 213" fill="none" xmlns="http://www.w3.org/2000/svg">
<path d="M5.21706 0C2.32459 0 0 2.33092 0 5.22337V207.103C0 209.996 2.32459 212.327 5.21706 212.327H301.452C304.345 212.327 306.676 209.996 306.676 207.103V5.22337C306.676 2.33092 304.345 0 301.452 0H5.21706V0ZM13.0363 5.60234H293.639C296.379 5.60234 298.585 7.80798 298.585 10.5478V201.779C298.585 204.519 296.379 206.724 293.639 206.724H13.0363C10.2965 206.724 8.09086 204.519 8.09086 201.779V10.5478C8.09086 7.80798 10.2965 5.60234 13.0363 5.60234V5.60234Z" fill="black"/>
<path d="M300.255 27.7363H6.91992V35.8844H300.255V27.7363Z" fill="black"/>
<path d="M19.6551 21.8788C22.4677 21.8788 24.7477 19.5986 24.7477 16.7861C24.7477 13.9735 22.4677 11.6934 19.6551 11.6934C16.8425 11.6934 14.5625 13.9735 14.5625 16.7861C14.5625 19.5986 16.8425 21.8788 19.6551 21.8788Z" fill="url(#paint0_linear_0_4)"/>
<path d="M34.7372 21.8788C37.5497 21.8788 39.8298 19.5986 39.8298 16.7861C39.8298 13.9735 37.5497 11.6934 34.7372 11.6934C31.9246 11.6934 29.6445 13.9735 29.6445 16.7861C29.6445 19.5986 31.9246 21.8788 34.7372 21.8788Z" fill="url(#paint1_linear_0_4)"/>
<path d="M49.8368 21.8788C52.6493 21.8788 54.9294 19.5986 54.9294 16.7861C54.9294 13.9735 52.6493 11.6934 49.8368 11.6934C47.0242 11.6934 44.7441 13.9735 44.7441 16.7861C44.7441 19.5986 47.0242 21.8788 49.8368 21.8788Z" fill="url(#paint2_linear_0_4)"/>
<path d="M198.671 118V111.286H181.459V106.037C183.738 102.066 186.098 98.1025 188.539 94.1475C190.997 90.1924 193.422 86.4001 195.814 82.7705H204.701V105.964H209.462V111.286H204.701V118H198.671ZM187.294 105.769V106.11H198.769V87.8975H198.427C197.222 89.7204 195.977 91.6328 194.691 93.6348C193.422 95.6367 192.152 97.6712 190.883 99.7383C189.63 101.789 188.433 103.799 187.294 105.769ZM228.92 118.879C226.104 118.879 223.687 118.146 221.669 116.682C219.667 115.217 218.129 113.101 217.055 110.334C215.997 107.567 215.468 104.239 215.468 100.349C215.468 96.4587 216.005 93.1383 217.079 90.3877C218.17 87.637 219.716 85.5374 221.718 84.0889C223.72 82.624 226.12 81.8916 228.92 81.8916C231.703 81.8916 234.096 82.624 236.098 84.0889C238.1 85.5374 239.638 87.6452 240.712 90.4121C241.802 93.179 242.348 96.5075 242.348 100.397C242.348 104.287 241.811 107.608 240.736 110.358C239.678 113.109 238.148 115.217 236.146 116.682C234.145 118.146 231.736 118.879 228.92 118.879ZM228.92 113.654C231.15 113.654 232.883 112.531 234.12 110.285C235.357 108.039 235.976 104.727 235.976 100.349C235.976 96.0029 235.349 92.7152 234.096 90.4854C232.859 88.2555 231.133 87.1406 228.92 87.1406C226.706 87.1406 224.973 88.2637 223.72 90.5098C222.466 92.7396 221.84 96.0192 221.84 100.349C221.84 104.727 222.458 108.039 223.695 110.285C224.949 112.531 226.69 113.654 228.92 113.654ZM265.565 118V111.286H248.354V106.037C250.632 102.066 252.992 98.1025 255.434 94.1475C257.891 90.1924 260.316 86.4001 262.709 82.7705H271.596V105.964H276.356V111.286H271.596V118H265.565ZM254.188 105.769V106.11H265.663V87.8975H265.321C264.117 89.7204 262.872 91.6328 261.586 93.6348C260.316 95.6367 259.047 97.6712 257.777 99.7383C256.524 101.789 255.328 103.799 254.188 105.769Z" fill="#212B36"/>
<path d="M195.723 136.846C194.855 136.846 194.082 137.039 193.402 137.426C192.734 137.812 192.201 138.357 191.803 139.061C191.404 139.764 191.17 140.584 191.1 141.521H200.152C200.117 140.572 199.912 139.746 199.537 139.043C199.174 138.34 198.664 137.801 198.008 137.426C197.363 137.039 196.602 136.846 195.723 136.846ZM200.188 147.709H204.318C204.061 148.869 203.545 149.877 202.771 150.732C201.998 151.576 201.014 152.232 199.818 152.701C198.635 153.158 197.287 153.387 195.775 153.387C193.889 153.387 192.266 152.988 190.906 152.191C189.559 151.395 188.521 150.258 187.795 148.781C187.068 147.293 186.705 145.518 186.705 143.455C186.705 141.393 187.068 139.611 187.795 138.111C188.533 136.6 189.576 135.434 190.924 134.613C192.283 133.793 193.889 133.383 195.74 133.383C197.568 133.383 199.133 133.77 200.434 134.543C201.746 135.316 202.754 136.43 203.457 137.883C204.16 139.336 204.512 141.07 204.512 143.086V144.492H191.082V144.721C191.117 145.787 191.334 146.713 191.732 147.498C192.143 148.271 192.699 148.869 193.402 149.291C194.117 149.713 194.949 149.924 195.898 149.924C196.977 149.924 197.879 149.736 198.605 149.361C199.344 148.975 199.871 148.424 200.188 147.709ZM208.889 153V133.77H213.09V136.758H213.389C213.564 136.125 213.893 135.562 214.373 135.07C214.865 134.566 215.463 134.174 216.166 133.893C216.869 133.6 217.637 133.453 218.469 133.453C218.785 133.453 219.113 133.471 219.453 133.506C219.805 133.541 220.08 133.588 220.279 133.646V137.689C220.162 137.654 219.975 137.619 219.717 137.584C219.459 137.537 219.178 137.502 218.873 137.479C218.568 137.455 218.293 137.443 218.047 137.443C217.098 137.443 216.26 137.631 215.533 138.006C214.818 138.369 214.256 138.885 213.846 139.553C213.447 140.221 213.248 141 213.248 141.891V153H208.889ZM224.111 153V133.77H228.312V136.758H228.611C228.787 136.125 229.115 135.562 229.596 135.07C230.088 134.566 230.686 134.174 231.389 133.893C232.092 133.6 232.859 133.453 233.691 133.453C234.008 133.453 234.336 133.471 234.676 133.506C235.027 133.541 235.303 133.588 235.502 133.646V137.689C235.385 137.654 235.197 137.619 234.939 137.584C234.682 137.537 234.4 137.502 234.096 137.479C233.791 137.455 233.516 137.443 233.27 137.443C232.32 137.443 231.482 137.631 230.756 138.006C230.041 138.369 229.479 138.885 229.068 139.553C228.67 140.221 228.471 141 228.471 141.891V153H224.111ZM246.893 153.387C244.971 153.387 243.318 152.988 241.936 152.191C240.553 151.383 239.492 150.234 238.754 148.746C238.016 147.246 237.646 145.459 237.646 143.385C237.646 141.311 238.021 139.529 238.771 138.041C239.521 136.541 240.582 135.393 241.953 134.596C243.336 133.787 244.982 133.383 246.893 133.383C248.803 133.383 250.449 133.787 251.832 134.596C253.215 135.393 254.275 136.541 255.014 138.041C255.764 139.529 256.139 141.311 256.139 143.385C256.139 145.459 255.764 147.246 255.014 148.746C254.275 150.234 253.215 151.383 251.832 152.191C250.461 152.988 248.814 153.387 246.893 153.387ZM246.893 149.73C248.416 149.73 249.588 149.18 250.408 148.078C251.24 146.965 251.656 145.4 251.656 143.385C251.656 141.381 251.24 139.822 250.408 138.709C249.576 137.596 248.404 137.039 246.893 137.039C245.369 137.039 244.191 137.596 243.359 138.709C242.527 139.822 242.111 141.381 242.111 143.385C242.111 145.4 242.527 146.965 243.359 148.078C244.191 149.18 245.369 149.73 246.893 149.73ZM260.533 153V133.77H264.734V136.758H265.033C265.209 136.125 265.537 135.562 266.018 135.07C266.51 134.566 267.107 134.174 267.811 133.893C268.514 133.6 269.281 133.453 270.113 133.453C270.43 133.453 270.758 133.471 271.098 133.506C271.449 133.541 271.725 133.588 271.924 133.646V137.689C271.807 137.654 271.619 137.619 271.361 137.584C271.104 137.537 270.822 137.502 270.518 137.479C270.213 137.455 269.938 137.443 269.691 137.443C268.742 137.443 267.904 137.631 267.178 138.006C266.463 138.369 265.9 138.885 265.49 139.553C265.092 140.221 264.893 141 264.893 141.891V153H260.533Z" fill="#212B36"/>
<path d="M155.002 112.389H116.263C115.306 112.389 114.589 113.106 114.589 114.063V117.65H112.676V156.389H151.415V154.476H155.002C155.958 154.476 156.676 153.758 156.676 152.802V114.063C156.437 113.106 155.719 112.389 155.002 112.389ZM153.328 151.128H117.698V115.497H153.328V151.128Z" fill="url(#paint3_linear_0_4)"/>
<path d="M102.196 184.855L60.4358 112.201C60.1958 111.479 59.2358 111.238 58.7558 111.479C58.0358 111.719 57.5558 112.201 57.5558 112.922V117.734L56.5958 115.809C56.3558 115.328 55.8758 115.088 55.3958 115.328C54.9158 115.569 54.6758 115.809 54.6758 116.29V189.426C54.6758 189.908 55.1558 190.389 55.6358 190.389H97.3958C97.8758 190.389 98.1158 190.148 98.3558 189.908C98.5958 189.667 98.5958 189.186 98.3558 188.945L97.6358 187.502H101.236C101.716 187.502 102.436 187.261 102.676 186.78C102.436 186.058 102.436 185.337 102.196 184.855ZM60.6758 184.134V118.937L98.1158 184.134H60.6758Z" fill="#1D1D1B"/>
<path d="M117.676 76.3468C117.676 63.0631 107.162 52.3887 94.0776 52.3887C85.9001 52.3887 78.6571 56.6584 74.4515 63.3003C70.0122 67.5701 67.6758 73.5003 67.6758 79.9049C67.6758 92.7142 77.9562 103.389 90.8066 103.389C96.8814 103.389 102.723 101.017 107.162 96.5096C113.47 92.2398 117.676 84.8863 117.676 76.3468ZM94.0776 55.7096C105.293 55.7096 114.638 64.9608 114.638 76.584C114.638 87.9701 105.526 97.4584 94.0776 97.4584C82.8627 97.4584 73.5169 88.2073 73.5169 76.584C73.7505 64.9608 82.8627 55.7096 94.0776 55.7096Z" fill="#1D1D1B"/>
<defs>
<linearGradient id="paint0_linear_0_4" x1="14.5625" y1="11.6934" x2="25.7502" y2="12.8956" gradientUnits="userSpaceOnUse">
<stop offset="0.0501562" stop-color="#34A8E9"/>
<stop offset="1" stop-color="#248AD3"/>
</linearGradient>
<linearGradient id="paint1_linear_0_4" x1="29.6445" y1="11.6934" x2="40.8323" y2="12.8956" gradientUnits="userSpaceOnUse">
<stop offset="0.0501562" stop-color="#34A8E9"/>
<stop offset="1" stop-color="#248AD3"/>
</linearGradient>
<linearGradient id="paint2_linear_0_4" x1="44.7441" y1="11.6934" x2="55.9319" y2="12.8956" gradientUnits="userSpaceOnUse">
<stop offset="0.0501562" stop-color="#34A8E9"/>
<stop offset="1" stop-color="#248AD3"/>
</linearGradient>
<linearGradient id="paint3_linear_0_4" x1="112.676" y1="112.389" x2="161.007" y2="117.583" gradientUnits="userSpaceOnUse">
<stop offset="0.0501562" stop-color="#34A8E9"/>
<stop offset="1" stop-color="#248AD3"/>
</linearGradient>
</defs>
</svg>
