<svg width="70" height="13" viewBox="0 0 70 13" fill="none" xmlns="http://www.w3.org/2000/svg">
<path d="M0 12.5709V0.844727H4.32987C5.1513 0.844727 5.85125 0.917711 6.42972 1.06368C7.01398 1.20965 7.49122 1.41779 7.86144 1.6881C8.23745 1.95842 8.51222 2.28549 8.68576 2.66934C8.85931 3.05318 8.94608 3.48568 8.94608 3.96684C8.94608 4.24256 8.90269 4.50747 8.81592 4.76156C8.72915 5.01025 8.59321 5.24542 8.4081 5.46708C8.22877 5.68333 7.99738 5.88066 7.71393 6.05906C7.43626 6.23747 7.10364 6.38884 6.71606 6.51319C8.43991 6.87541 9.30184 7.74582 9.30184 9.12441C9.30184 9.62179 9.2006 10.0813 8.99814 10.503C8.79567 10.9247 8.50065 11.2896 8.11308 11.5978C7.7255 11.9005 7.24826 12.1384 6.68136 12.3114C6.11445 12.4844 5.46656 12.5709 4.73769 12.5709H0ZM2.33414 7.42955V10.8679H4.70298C5.13684 10.8679 5.49838 10.8193 5.78762 10.722C6.08264 10.6246 6.31692 10.4949 6.49046 10.3327C6.66979 10.1705 6.79705 9.9813 6.87225 9.76505C6.95324 9.5488 6.99373 9.31904 6.99373 9.07576C6.99373 8.82166 6.95035 8.5946 6.86358 8.39457C6.7768 8.18913 6.64086 8.01613 6.45575 7.87557C6.27064 7.7296 6.03347 7.61877 5.74423 7.54308C5.455 7.46739 5.10502 7.42955 4.6943 7.42955H2.33414ZM2.33414 5.9212H4.19971C4.99222 5.9212 5.59383 5.78605 6.00454 5.51573C6.41526 5.24542 6.62062 4.81562 6.62062 4.22634C6.62062 3.61543 6.43551 3.18023 6.06528 2.92073C5.69506 2.66123 5.11659 2.53148 4.32987 2.53148H2.33414V5.9212Z" fill="white"/>
<path d="M13.8608 7.9891V12.5709H11.5267V0.844727H15.3532C16.2094 0.844727 16.9412 0.928524 17.5485 1.09612C18.1617 1.25831 18.6621 1.48807 19.0497 1.78542C19.443 2.08276 19.7294 2.43957 19.9087 2.85585C20.0938 3.26673 20.1864 3.72086 20.1864 4.21823C20.1864 4.61289 20.1228 4.98592 19.9955 5.33733C19.874 5.68873 19.6947 6.0077 19.4575 6.29424C19.2261 6.58077 18.9369 6.83216 18.5898 7.04841C18.2485 7.26466 17.858 7.43766 17.4184 7.56741C17.7134 7.72419 17.9679 7.94855 18.182 8.24049L21.3231 12.5709H19.2232C19.0208 12.5709 18.8472 12.5331 18.7026 12.4574C18.5638 12.3817 18.4452 12.2736 18.3468 12.133L15.709 8.37835C15.6107 8.23779 15.5008 8.13777 15.3793 8.0783C15.2636 8.01883 15.09 7.9891 14.8587 7.9891H13.8608ZM13.8608 6.42399H15.3185C15.7582 6.42399 16.14 6.37263 16.4639 6.26991C16.7936 6.16719 17.0626 6.02663 17.2709 5.84822C17.4849 5.66441 17.644 5.44816 17.7481 5.19947C17.8522 4.95078 17.9043 4.67776 17.9043 4.38042C17.9043 3.78573 17.6932 3.3289 17.2709 3.00993C16.8544 2.69096 16.2152 2.53148 15.3532 2.53148H13.8608V6.42399Z" fill="white"/>
<path d="M30.8784 0.844727V2.58014H25.3164V5.832H29.6983V7.51064H25.3164V10.8274H30.8784V12.5709H22.9649V0.844727H30.8784Z" fill="white"/>
<path d="M34.2642 0.844727C34.3683 0.844727 34.4551 0.850133 34.5245 0.860945C34.5939 0.866352 34.6547 0.882571 34.7067 0.909602C34.7646 0.931227 34.8195 0.966368 34.8716 1.01502C34.9236 1.05827 34.9815 1.11774 35.0451 1.19343L41.631 9.03521C41.6079 8.84599 41.5905 8.66218 41.579 8.48377C41.5732 8.29996 41.5703 8.12966 41.5703 7.97288V0.844727H43.6268V12.5709H42.4206C42.2355 12.5709 42.0822 12.5439 41.9608 12.4898C41.8393 12.4357 41.7207 12.3384 41.605 12.1979L35.0451 4.38853C35.0625 4.56153 35.074 4.73453 35.0798 4.90753C35.0914 5.07512 35.0972 5.2292 35.0972 5.36977V12.5709H33.0407V0.844727H34.2642Z" fill="white"/>
<path d="M57.444 6.70781C57.444 7.56741 57.2907 8.35672 56.9841 9.07576C56.6776 9.79479 56.2466 10.4138 55.6913 10.9328C55.1359 11.4518 54.4678 11.8546 53.6869 12.1411C52.9059 12.4276 52.0411 12.5709 51.0924 12.5709H46.3027V0.844727H51.0924C52.0411 0.844727 52.9059 0.990696 53.6869 1.28263C54.4678 1.56917 55.1359 1.97193 55.6913 2.49093C56.2466 3.00453 56.6776 3.62084 56.9841 4.33987C57.2907 5.05891 57.444 5.84822 57.444 6.70781ZM55.0578 6.70781C55.0578 6.06447 54.9653 5.4887 54.7802 4.98052C54.5951 4.46692 54.3319 4.03442 53.9906 3.68301C53.6493 3.3262 53.2327 3.05318 52.7411 2.86396C52.2551 2.67475 51.7056 2.58014 51.0924 2.58014H48.6541V10.8355H51.0924C51.7056 10.8355 52.2551 10.7409 52.7411 10.5517C53.2327 10.3624 53.6493 10.0921 53.9906 9.74073C54.3319 9.38391 54.5951 8.95141 54.7802 8.44322C54.9653 7.92963 55.0578 7.35116 55.0578 6.70781Z" fill="white"/>
<path d="M70 12.5709H68.1952C67.9927 12.5709 67.8249 12.5249 67.6919 12.433C67.5646 12.3357 67.4721 12.2168 67.4142 12.0762L66.4771 9.68396H61.2795L60.3424 12.0762C60.2961 12.2006 60.2036 12.3141 60.0647 12.4168C59.9317 12.5195 59.7668 12.5709 59.5701 12.5709H57.7566L62.6852 0.844727H65.0714L70 12.5709ZM61.8782 8.14318H65.8784L64.3512 4.24256C64.2818 4.06956 64.2037 3.86683 64.1169 3.63436C64.0359 3.39648 63.955 3.13968 63.874 2.86396C63.793 3.13968 63.712 3.39648 63.631 3.63436C63.5558 3.87223 63.4806 4.08037 63.4054 4.25878L61.8782 8.14318Z" fill="white"/>
</svg>
