<svg width="108" height="30" viewBox="0 0 108 30" fill="none" xmlns="http://www.w3.org/2000/svg">
<path fill-rule="evenodd" clip-rule="evenodd" d="M96.5884 18.8756C95.7293 19.1072 94.8749 19.0292 94.0253 18.6416C93.1568 18.2067 92.4936 17.5095 92.0358 16.55C91.5779 15.5905 91.2782 14.508 91.1366 13.3027C90.995 12.0974 90.9549 10.9038 91.0162 9.72215C91.0776 8.54045 91.1932 7.50056 91.3632 6.60247C90.6268 6.59302 89.8503 6.55048 89.0338 6.47485C88.2172 6.39922 87.5021 6.25742 86.8885 6.04944C87.3133 5.8131 87.9528 5.60985 88.8072 5.43968C89.6615 5.26952 90.6268 5.12299 91.703 5.00009C91.8352 4.4896 92.057 3.86803 92.3685 3.13537C92.6801 2.40272 93.06 1.73388 93.5085 1.12885C93.9569 0.523826 94.4501 0.1575 94.9882 0.0298771C95.5263 -0.0977461 96.0927 0.183498 96.6875 0.873608C96.9707 1.23284 97.1406 1.74097 97.1973 2.398C97.2539 3.05502 97.2256 3.79949 97.1123 4.6314C98.2451 4.59359 99.1774 4.5865 99.909 4.61013C100.641 4.63377 101.03 4.6834 101.077 4.75903C101.238 5.25061 101.122 5.63821 100.73 5.92181C100.339 6.20542 99.7792 6.41104 99.0523 6.53866C98.3254 6.66628 97.5418 6.73955 96.7016 6.75846C96.3618 8.2143 95.9629 9.47636 95.5051 10.5446C95.0472 11.6129 94.4501 12.4968 93.7138 13.1963C93.9592 14.3402 94.3557 15.0823 94.9033 15.4227C95.4508 15.763 96.0762 15.8268 96.7795 15.6141C97.4828 15.4014 98.1979 15.0303 98.9248 14.5009C99.6517 13.9715 100.322 13.4138 100.936 12.8276C101.549 12.2415 102.04 11.7499 102.408 11.3529C102.72 11.0409 102.911 11.0338 102.982 11.3316C103.053 11.6294 102.909 12.199 102.55 13.0404C102.191 13.8155 101.71 14.6096 101.106 15.4227C100.501 16.2357 99.8122 16.9565 99.0381 17.5852C98.264 18.2138 97.4474 18.644 96.5884 18.8756ZM11.6257 18.8827C11.5219 17.8522 11.4983 16.6705 11.5549 15.3376C11.6116 14.0046 11.6965 12.6149 11.8098 11.1686C11.8287 10.8188 11.8523 10.4643 11.8806 10.105C12.2488 9.73633 12.3621 9.22112 12.2205 8.55937C12.2016 8.5121 12.1213 8.47428 11.9797 8.44592C12.0741 6.94281 12.1001 5.57676 12.0576 4.3478C12.0151 3.11884 11.8358 2.14275 11.5195 1.41956C11.2033 0.696359 10.6911 0.34894 9.98312 0.377301C9.83207 0.462383 9.59135 1.28012 9.26093 2.8305C8.93052 4.38089 8.66148 6.23851 8.45379 8.40338C7.20767 8.46956 5.92851 8.59718 4.61631 8.78625C4.72959 7.48166 4.75791 6.28105 4.70127 5.18444C4.64463 4.08783 4.44402 3.1921 4.09945 2.49726C3.75488 1.80243 3.19554 1.39829 2.42144 1.28484C2.26095 1.35102 2.00606 2.21602 1.65677 3.87985C1.30748 5.54368 1.04315 7.49111 0.863787 9.72215C0.505056 9.88286 0.217127 10.053 0 10.2326C0.245448 10.365 0.514496 10.4737 0.807146 10.5588C0.731623 12.0241 0.769384 13.3972 0.920429 14.6782C1.07147 15.9591 1.39244 16.9872 1.88334 17.7624C2.37424 18.5376 3.0917 18.911 4.03573 18.8827C3.93189 17.9184 3.92008 16.8241 4.00033 15.5999C4.08057 14.3757 4.19149 13.1065 4.3331 11.7925C4.36142 11.5183 4.38974 11.2489 4.41806 10.9842C4.49358 10.9842 4.61159 10.9937 4.77207 11.0126C5.1308 11.0504 5.62642 11.0906 6.25892 11.1331C6.89142 11.1756 7.57112 11.1875 8.29802 11.1686C8.26026 12.5677 8.33579 13.8605 8.52459 15.0469C8.7134 16.2333 9.05561 17.1787 9.55122 17.8829C10.0468 18.5872 10.7383 18.9205 11.6257 18.8827ZM16.1972 17.6065C17.3584 17.9752 18.385 18.0697 19.2771 17.8901C20.1692 17.7105 20.948 17.3465 21.6136 16.7982C22.2744 16.2537 22.8446 15.6231 23.3239 14.9062C23.4127 15.218 23.5216 15.5226 23.6504 15.8198C24.0233 16.6801 24.559 17.356 25.2576 17.8476C25.9562 18.3392 26.8153 18.5283 27.8348 18.4148C27.3817 18.9915 26.9309 19.6863 26.4825 20.4993C26.0341 21.3123 25.6706 22.1702 25.3921 23.0731C25.1136 23.9759 24.998 24.848 25.0452 25.6893C25.0924 26.5307 25.3898 27.2728 25.9373 27.9157C26.5132 28.5301 27.1197 28.7901 27.7569 28.6956C28.3942 28.601 28.9983 28.2985 29.5695 27.788C30.1406 27.2775 30.615 26.7056 30.9926 26.0722C31.6723 24.8622 32.142 23.4678 32.4016 21.889C32.6612 20.3103 32.8051 18.8119 32.8335 17.3938C33.6642 16.9306 34.4477 16.2901 35.1841 15.4724C35.9204 14.6547 36.5199 13.8629 36.9825 13.0972C37.445 12.3314 37.6787 11.7831 37.6834 11.4523C37.6881 11.1214 37.3837 11.2065 36.7701 11.7075C36.619 11.8304 36.4491 11.9722 36.2603 12.1329C35.8449 12.4922 35.4012 12.8608 34.9292 13.239C34.4572 13.6171 34.0347 13.9078 33.6618 14.1111C33.2889 14.3143 33.0364 14.3403 32.9043 14.1891C32.7627 13.9527 32.6824 13.525 32.6635 12.9058C32.6446 12.2865 32.6446 11.6082 32.6635 10.8709C32.673 10.5305 32.6824 10.1949 32.6918 9.86407C32.673 9.27794 32.5219 8.82654 32.2387 8.50984C31.9555 8.19315 31.6487 8.04425 31.3183 8.06316C30.9879 8.08207 30.7566 8.30423 30.6244 8.72964C30.5111 9.18341 30.4167 9.76008 30.3412 10.4596C30.2563 11.2348 30.1241 12.0266 29.9447 12.8348C29.7654 13.6431 29.468 14.338 29.0526 14.9194C28.6372 15.5008 28.0283 15.834 27.2259 15.9191C26.8483 15.8245 26.584 15.4984 26.4329 14.9406C26.2819 14.3829 26.1969 13.7495 26.178 13.0405C26.1592 12.3314 26.1592 11.7075 26.178 11.1687C26.1875 10.989 26.1922 10.8331 26.1922 10.7007C26.1922 9.8877 26.0789 9.32757 25.8524 9.02033C25.6258 8.71309 25.3497 8.5902 25.024 8.65164C24.6983 8.71309 24.3867 8.89507 24.0894 9.19759C23.792 9.5001 23.5678 9.85934 23.4168 10.2753C23.1802 10.9783 23.0516 11.7184 23.0309 12.4955C22.8934 12.6223 22.749 12.7543 22.5977 12.8915C21.9464 13.4823 21.2478 14.0188 20.502 14.501C20.0205 14.8035 19.4683 15.0327 18.8452 15.1887C18.2222 15.3447 17.6463 15.3282 17.1176 15.1391C16.589 14.95 16.235 14.4962 16.0556 13.7778C16.0556 13.7589 16.1406 13.7447 16.3105 13.7352C16.6031 13.7258 17.0303 13.6738 17.592 13.5792C18.1537 13.4847 18.7343 13.2933 19.3337 13.0049C19.9332 12.7166 20.4453 12.2747 20.8702 11.6791C21.295 11.0835 21.5121 10.2799 21.5215 9.26842C21.4932 8.37978 21.1557 7.77712 20.5091 7.46042C19.8624 7.14373 19.0836 7.07991 18.1726 7.26899C17.2616 7.45806 16.3931 7.86456 15.5671 8.4885C14.741 9.11243 14.1298 9.9278 13.7333 10.9346C13.3368 11.9414 13.3274 13.1066 13.705 14.4301C13.9221 15.1296 14.2336 15.7607 14.6396 16.3231C15.0455 16.8856 15.5647 17.3134 16.1972 17.6065ZM23.0309 12.4955C23.026 12.6798 23.0272 12.8662 23.0344 13.0546C23.0591 13.6981 23.1556 14.3153 23.3239 14.9062L23.3341 14.8909C23.8155 14.1677 24.2262 13.4469 24.566 12.7284C24.9248 11.9627 25.0404 11.4664 24.913 11.2395C24.7855 11.0126 24.566 11.041 24.2545 11.3246L24.1695 11.4096C23.8651 11.7145 23.4856 12.0765 23.0309 12.4955ZM17.2165 10.665C16.6784 11.0762 16.2299 11.6836 15.8712 12.4871C15.9279 12.4919 15.9848 12.4945 16.042 12.495C16.4426 12.4986 16.8577 12.3991 17.2873 12.1964C17.7782 11.9648 18.1652 11.7308 18.4484 11.4945C19.0998 10.9462 19.409 10.5421 19.3759 10.2821C19.3429 10.0221 19.1092 9.91812 18.675 9.97012C18.2407 10.0221 17.7546 10.2537 17.2165 10.665ZM28.0271 23.4203C27.843 24.394 27.8784 25.122 28.1333 25.6041C28.3032 25.5095 28.5038 25.1409 28.7351 24.498C28.9664 23.8552 29.1906 23.1107 29.4077 22.2646C29.6248 21.4185 29.7971 20.6457 29.9246 19.9461C30.052 19.2466 30.0968 18.7928 30.0591 18.5848C29.6815 18.9535 29.2944 19.6082 28.8979 20.5488C28.5014 21.4894 28.2111 22.4466 28.0271 23.4203ZM42.2414 18.9535C43.1241 19.0008 43.9714 18.9299 44.7832 18.7408C45.5951 18.5517 46.2441 18.2445 46.7303 17.8191C47.2165 17.3937 47.4029 16.8548 47.2896 16.2025C47.2707 16.1174 47.0725 16.1411 46.6949 16.2734C46.3645 16.3774 45.9255 16.479 45.378 16.5783C44.8304 16.6776 44.2121 16.6776 43.5229 16.5783C42.8338 16.479 42.1022 16.1978 41.3281 15.7346C41.2337 15.1674 41.1582 14.6238 41.1015 14.1038C41.0449 13.5839 41.0118 13.2057 41.0024 12.9694C40.9835 12.3833 40.9741 11.7546 40.9741 11.0834C41.7199 11.1307 42.5058 11.1094 43.3318 11.0196C44.1578 10.9298 44.8375 10.6982 45.3709 10.3248C45.9043 9.95135 46.1049 9.36287 45.9727 8.55931C45.8877 8.42696 45.3496 8.38678 44.3584 8.43878C43.3672 8.49077 42.2485 8.58767 41.0024 8.72948C41.0401 8.07718 41.1015 7.44852 41.1865 6.84349C41.2714 6.23846 41.3706 5.76106 41.4838 5.41127C41.7104 4.63608 42.055 4.14922 42.5176 3.9507C42.9801 3.75217 43.5229 3.65291 44.146 3.65291C44.7313 3.634 45.352 3.5371 46.0081 3.36221C46.6642 3.18732 47.3274 2.76427 47.9977 2.09307C47.3652 1.81892 46.5769 1.60385 45.6329 1.44786C44.6888 1.29188 43.7188 1.24698 42.7229 1.31315C41.7269 1.37933 40.849 1.59676 40.089 1.96545C39.3291 2.33414 38.8217 2.90608 38.5668 3.68127C38.2081 5.00477 37.9909 6.82458 37.9154 9.14071C36.8392 9.42431 36.0604 9.78828 35.5789 10.2326C35.8905 10.4311 36.2492 10.58 36.6551 10.6793C37.0611 10.7785 37.4717 10.8471 37.8871 10.8849C37.8871 12.2273 37.9437 13.4681 38.057 14.6072C38.1703 15.7464 38.3355 16.6327 38.5526 17.2661C38.7698 17.786 39.2182 18.1854 39.8979 18.4643C40.5776 18.7432 41.3588 18.9062 42.2414 18.9535ZM56.7261 18.039C55.834 18.5164 54.9277 18.7078 54.0073 18.6133C53.0868 18.5188 52.2301 18.013 51.4371 17.096C51.0595 17.408 50.6347 17.6987 50.1627 17.9681C49.6907 18.2375 49.2281 18.3746 48.775 18.3793C48.3218 18.384 47.9442 18.1453 47.6421 17.6632C48.3407 17.0015 49.0063 16.3208 49.6388 15.6212C49.8653 15.3849 50.0683 15.1675 50.2477 14.9689C50.1249 14.6759 49.9786 14.3592 49.8087 14.0189C49.5727 13.5462 49.3437 13.0286 49.1219 12.4661C48.9 11.9036 48.7372 11.3057 48.6334 10.6723C48.5484 9.94437 48.6334 9.45515 48.8882 9.20463C49.1431 8.95411 49.4547 8.83358 49.8228 8.84303C50.3798 8.84303 50.8046 8.98483 51.0973 9.26844C51.3899 9.55205 51.6 9.91601 51.7274 10.3603C51.8549 10.8046 51.9563 11.2631 52.0319 11.7358C52.0885 12.0761 52.1546 12.3976 52.2301 12.7001C53.0325 11.5751 53.8822 10.1476 54.779 8.41762C55.5153 8.42707 56.0747 8.5027 56.457 8.6445C56.8393 8.78631 56.9833 9.11955 56.8889 9.64422C56.7945 10.1689 56.398 11.0126 55.6994 12.1754C55.1613 13.0357 54.425 14.0141 53.4904 15.1107C53.783 15.8009 54.1984 16.1246 54.7365 16.0821C55.2746 16.0396 55.8646 15.7749 56.5066 15.288C57.1485 14.8011 57.7763 14.2292 58.3899 13.5722C58.7494 13.1873 59.0829 12.821 59.3906 12.4734C59.4298 12.5517 59.4731 12.6319 59.5202 12.7143C59.8515 13.3225 60.0594 13.9958 60.144 14.7342C59.8566 15.2052 59.5174 15.664 59.1263 16.1105C58.4182 16.9187 57.6182 17.5616 56.7261 18.039ZM60.144 14.7342L60.1503 14.7917C60.2306 15.5527 60.2377 16.2688 60.1716 16.94C59.6618 17.4222 59.1025 18.143 58.4936 19.1025C57.8847 20.0621 57.3607 21.1209 56.9218 22.2789C56.4828 23.437 56.2515 24.5572 56.2279 25.6397C56.2043 26.7221 56.5135 27.632 57.1554 28.3694C57.769 28.9839 58.3921 29.2438 59.0246 29.1493C59.6571 29.0548 60.2448 28.7523 60.7876 28.2418C61.3304 27.7313 61.7717 27.1593 62.1116 26.5259C62.4514 25.8831 62.6922 25.1103 62.8338 24.2075C62.9754 23.3046 63.0603 22.3427 63.0886 21.3218C63.117 20.3008 63.1217 19.2845 63.1028 18.273C64.0185 18.4621 64.8705 18.351 65.6588 17.9397C66.447 17.5285 67.1126 16.9211 67.6554 16.1176C68.1982 15.314 68.5735 14.4112 68.7811 13.4091C68.9605 12.4732 68.8968 11.6082 68.59 10.8141C68.2832 10.02 67.8277 9.36535 67.2235 8.85013C66.6193 8.33491 65.9561 8.02531 65.234 7.92132C64.5118 7.81733 63.8155 7.98986 63.1453 8.4389C62.475 8.88795 61.9228 9.67496 61.4885 10.7999C61.2619 10.3462 61 10.1098 60.7026 10.0909C60.4052 10.072 60.1197 10.1429 59.8459 10.3036C59.4872 10.4832 59.2512 10.7692 59.1379 11.1615C59.0391 11.5036 59.1233 11.9409 59.3906 12.4734C59.6081 12.2277 59.8126 11.9913 60.0042 11.7642C60.2024 11.5373 60.3771 11.3388 60.5281 11.1686C60.7075 10.989 60.8515 10.9961 60.96 11.1899C61.0686 11.3837 61.1111 11.6956 61.0875 12.1258C61.0639 12.5559 60.9482 13.0357 60.7405 13.5651C60.5758 13.9628 60.3769 14.3525 60.144 14.7342ZM62.8775 15.0258C63.1418 15.6403 63.4769 15.9286 63.8829 15.8908C64.2888 15.853 64.6876 15.6025 65.0794 15.1392C65.4712 14.676 65.7756 14.1182 65.9928 13.466C66.191 12.8515 66.2571 12.2772 66.191 11.743C66.1249 11.2089 65.9432 10.8 65.6458 10.5164C65.3485 10.2328 64.9496 10.1572 64.4493 10.2896C63.8168 10.5353 63.3778 10.9229 63.1324 11.4523C62.8869 11.9817 62.7618 12.5655 62.7571 13.2036C62.7524 13.8417 62.7925 14.4491 62.8775 15.0258ZM59.2244 26.0435C58.9412 25.5803 58.8279 24.8902 58.8845 23.9732C58.9412 23.0562 59.0969 22.1487 59.3518 21.2506C59.6067 20.3525 59.8946 19.6907 60.2156 19.2653C60.2062 19.4638 60.1873 19.7805 60.159 20.2154C60.1401 20.8866 60.0976 21.6571 60.0315 22.5268C59.9654 23.3965 59.871 24.1741 59.7483 24.8595C59.6256 25.5449 59.4509 25.9395 59.2244 26.0435ZM83.9878 15.1533C83.8084 16.2499 83.5913 17.2 83.3364 18.0035C82.7322 17.9562 82.2531 17.727 81.8991 17.3158C81.5451 16.9045 81.3492 16.4011 81.3114 15.8056C81.2831 15.3234 81.269 14.846 81.269 14.3733C81.269 13.8818 81.2548 13.3807 81.2265 12.8702C80.0559 14.6475 78.9986 15.8906 78.0545 16.5997C77.1105 17.3087 76.1712 17.7459 75.2366 17.9113C74.302 18.0768 73.4807 17.9752 72.7727 17.6065C72.1402 17.3134 71.621 16.8856 71.215 16.3231C70.8091 15.7607 70.5023 15.1296 70.2946 14.4301C69.9076 13.1066 69.9123 11.9414 70.3088 10.9346C70.7053 9.9278 71.3189 9.11243 72.1496 8.4885C72.9804 7.86456 73.8512 7.45806 74.7622 7.26899C75.6732 7.07991 76.4497 7.14373 77.0916 7.46042C77.7336 7.77712 78.0734 8.37505 78.1112 9.25424C78.0923 10.2752 77.8728 11.0835 77.4527 11.6791C77.0326 12.2747 76.5205 12.7166 75.9163 13.0049C75.3121 13.2933 74.7315 13.4847 74.1746 13.5792C73.6176 13.6738 73.1928 13.7258 72.9001 13.7352C72.7208 13.7447 72.6311 13.7589 72.6311 13.7778C72.8199 14.4962 73.1597 14.9713 73.6506 15.2029C74.1415 15.4345 74.7174 15.4511 75.3782 15.2525C76.039 15.054 76.9028 14.5341 77.9696 13.6927C79.0741 12.7095 79.8175 11.906 80.1998 11.282C80.5822 10.6581 80.8441 10.1665 80.9857 9.80727C81.1557 9.37241 81.479 9.13607 81.9557 9.09825C82.4325 9.06044 82.8124 9.34877 83.0956 9.96325C83.1523 10.1523 83.2137 10.2705 83.2797 10.3178C83.8367 9.01317 84.5683 8.15762 85.4746 7.75112C86.3809 7.34461 87.4948 7.46751 88.8165 8.11981C89.4584 8.47904 89.8809 8.98481 90.0838 9.6371C90.2868 10.2894 90.3198 10.9062 90.183 11.4876C90.0461 12.069 89.7747 12.4354 89.3687 12.5866C88.9628 12.7379 88.4625 12.4826 87.8677 11.8209C87.7072 11.6034 87.5609 11.334 87.4287 11.0126C87.3344 10.7763 87.2352 10.5706 87.1314 10.3958C87.0275 10.2209 86.9048 10.1145 86.7632 10.0767C86.1873 10.0011 85.7248 10.2043 85.3755 10.6865C85.0262 11.1686 84.7477 11.8138 84.54 12.6221C84.3323 13.4303 84.1482 14.2741 83.9878 15.1533ZM72.4468 12.4871C72.8055 11.6836 73.2539 11.0762 73.792 10.665C74.3301 10.2537 74.8163 10.0221 75.2506 9.97012C75.6848 9.91812 75.9208 10.0221 75.9586 10.2821C75.9964 10.5421 75.6895 10.9462 75.0382 11.4945C74.7455 11.7308 74.3537 11.9648 73.8628 12.1964C73.4333 12.3991 73.0182 12.4986 72.6176 12.495C72.5604 12.4945 72.5034 12.4919 72.4468 12.4871ZM94.6629 4.7447C94.9367 3.66699 95.168 3.09741 95.3568 3.03597C95.5456 2.97452 95.607 3.52992 95.5409 4.70216C95.2577 4.71161 94.965 4.72579 94.6629 4.7447ZM93.7067 9.04137C93.5981 9.79766 93.5769 10.3554 93.643 10.7147C93.9545 10.4405 94.2519 10.0033 94.5351 9.40297C94.8183 8.80267 95.0684 7.92585 95.2856 6.77251C94.9174 6.76306 94.5634 6.75361 94.2235 6.74415C93.9875 7.51935 93.8152 8.28509 93.7067 9.04137Z" fill="white"/>
<ellipse cx="105.77" cy="17.4211" rx="1.48855" ry="1.42105" fill="url(#paint0_linear)"/>
<defs>
<linearGradient id="paint0_linear" x1="104.281" y1="16" x2="107.548" y2="16.3677" gradientUnits="userSpaceOnUse">
<stop offset="0.0501562" stop-color="#49E3D7"/>
<stop offset="1" stop-color="#42CEA9"/>
</linearGradient>
</defs>
</svg>
