<svg width="126" height="29" viewBox="0 0 126 29" fill="none" xmlns="http://www.w3.org/2000/svg">
<path d="M49.0501 19.2095C49.0501 16.5901 47.8184 15.1494 45.2765 14.2064V14.154C47.1895 13.1587 48.1591 11.6918 48.1591 9.77962C48.1591 8.0508 47.504 6.7149 46.2199 5.77191C44.9358 4.82892 43.4159 4.35743 41.6077 4.35743H33.0909V24.8674H41.7387C45.3289 24.8674 49.0501 23.3744 49.0501 19.2095ZM43.9924 10.4345C43.9924 11.9275 42.918 12.6872 40.7429 12.6872H37.2314V8.26036H41.0312C42.7083 8.26036 43.9924 8.86282 43.9924 10.4345ZM44.9096 18.6594C44.9096 20.1787 43.8352 20.9383 41.6863 20.9383H37.2314V16.3543H41.5553C43.7828 16.3543 44.9096 17.114 44.9096 18.6594Z" fill="#151B26"/>
<path d="M60.9511 10.8274C60.7414 10.7488 60.4794 10.7226 60.1387 10.7226C58.2781 10.7226 56.7844 11.7442 56.1817 13.0277H56.1555V10.8798H52.0936V24.8674H56.1817V18.9476C56.1817 16.4329 57.3347 14.7827 59.9815 14.7827C60.3222 14.7827 60.6366 14.8089 60.9511 14.8613V10.8274Z" fill="#151B26"/>
<path d="M76.3884 19C76.4146 18.6856 76.4408 18.1879 76.4408 17.5331C76.4408 15.4637 75.7857 13.7611 74.5016 12.4776C73.2175 11.1941 71.5404 10.5392 69.4701 10.5392C67.4523 10.5392 65.6965 11.2465 64.229 12.6872C62.7877 14.1278 62.054 15.8305 62.054 17.8474C62.054 19.9953 62.7877 21.7503 64.2552 23.1386C65.749 24.5007 67.5571 25.1818 69.7322 25.1818C72.5886 25.1818 74.5802 24.134 75.7595 22.0123L72.7982 20.0739C72.1693 21.0955 70.9114 21.7503 69.6798 21.7503C67.924 21.7503 66.4565 20.7026 66.2207 19H76.3884ZM66.3255 16.302C66.4041 15.7519 66.7186 15.2018 67.2689 14.6779C67.8192 14.1278 68.5267 13.8659 69.3653 13.8659C71.2259 13.8659 72.2479 15.0708 72.3528 16.302H66.3255Z" fill="#151B26"/>
<path d="M92.4512 24.8674V16.171C92.4512 14.5993 92.0319 13.2896 91.1671 12.2157C90.3285 11.1417 89.0707 10.6178 87.3935 10.6178C86.7908 10.6178 86.057 10.644 84.8254 11.3513C84.2226 11.6918 83.7771 12.1371 83.4365 12.7134H83.4103V10.8798H79.3484V24.8674H83.4365V17.114C83.4365 15.5685 84.3013 14.3898 85.9522 14.3898C87.5507 14.3898 88.3893 15.4637 88.3893 17.114V24.8674H92.4512Z" fill="#151B26"/>
<path d="M106.305 24.8674H110.262V3.54541H106.2V12.4776H106.148C105.1 11.2465 103.711 10.6178 101.955 10.6178C100.042 10.6178 98.4436 11.3513 97.1596 12.8443C95.8755 14.3112 95.2466 15.9876 95.2466 17.8474C95.2466 19.812 95.8755 21.5408 97.1072 22.9815C98.3388 24.4221 99.9374 25.1294 101.903 25.1294C103.868 25.1294 105.336 24.4483 106.253 23.0862H106.305V24.8674ZM106.305 17.8474C106.305 18.8952 105.965 19.7596 105.309 20.4406C104.654 21.0955 103.816 21.436 102.846 21.436C101.877 21.436 101.038 21.0955 100.383 20.4406C99.7277 19.7596 99.387 18.8952 99.387 17.8474C99.387 15.7781 100.881 14.3112 102.846 14.3112C104.812 14.3112 106.305 15.7781 106.305 17.8474Z" fill="#151B26"/>
<path d="M117.981 25.1294C119.842 25.1294 121.231 24.4483 122.174 23.1124L122.226 23.1386V24.8674H126V16.1972C126 12.53 123.615 10.5654 119.92 10.5654C116.854 10.5654 114.705 11.6656 113.5 13.8921L116.618 15.7519C117.326 14.4946 118.348 13.8659 119.737 13.8659C121.204 13.8659 121.991 14.6255 121.991 15.5947C121.991 16.2758 121.624 16.6163 120.89 16.6163H119.501C117.929 16.6163 116.618 16.852 115.334 17.4545C114.076 18.057 113.264 19.2619 113.264 20.9121V20.9645C113.264 22.2218 113.71 23.2434 114.627 24.003C115.544 24.7627 116.671 25.1294 117.981 25.1294ZM119.16 22.1433C118.112 22.1433 117.378 21.6718 117.378 20.7288C117.378 19.681 118.322 19.1309 119.501 19.1309H121.964V19.4453C121.964 20.9907 120.916 22.1433 119.16 22.1433Z" fill="#151B26"/>
<path fill-rule="evenodd" clip-rule="evenodd" d="M13.4036 14.8886C12.8897 15.5608 9.34338 17.6183 8.2205 18.0115C1.77848 20.266 1.69872 9.8803 8.05701 11.9317C8.93835 12.2162 12.8212 14.3341 13.4036 14.8886ZM0.576685 4.14042C1.57795 4.25518 9.52638 4.16296 11.2263 4.16296C14.9428 4.16296 17.8493 3.87371 19.0734 7.14298C19.7678 8.99762 19.0884 10.1297 18.1632 11.1014C17.7127 11.5745 17.2222 11.8763 16.6407 12.2695C16.1107 12.6279 16.1211 12.6126 14.8851 11.7619C13.0704 10.513 10.2352 8.60825 7.66641 8.06928C0.530582 6.57297 -2.01669 15.2788 1.70155 20.1152C3.40313 22.3282 6.63912 22.5419 9.71814 21.2719C12.225 20.2379 15.9277 17.3952 16.5242 17.1645C17.0356 17.4924 17.9686 18.5531 18.398 19.0973C20.5456 21.8179 18.781 25.1589 15.4794 25.7143C12.921 26.145 1.85626 25.608 0.575837 25.8856L0.576968 28.9315C1.38561 29.06 8.9095 28.9642 10.404 28.9642C13.3736 28.9642 16.7787 29.1736 19.1226 27.7941C20.9747 26.7041 22.8016 24.5465 22.9045 21.51C23.0465 17.3205 19.8179 15.7417 19.4448 14.8783C19.9698 14.5785 21.483 12.9868 21.8492 12.3632C23.9047 8.86178 22.6757 3.87049 19.0157 2.09577C16.4362 0.845095 13.3776 1.03305 10.3127 1.03305C8.64165 1.03305 1.63678 0.943463 0.604687 1.05296L0.576685 4.14042Z" fill="#248AD3"/>
</svg>
