<svg width="70" height="13" viewBox="0 0 70 13" fill="none" xmlns="http://www.w3.org/2000/svg">
<path d="M0 13V0H4.32987C5.1513 0 5.85125 0.0809131 6.42972 0.242739C7.01398 0.404565 7.49122 0.635316 7.86144 0.934994C8.23745 1.23467 8.51222 1.59728 8.68576 2.02282C8.85931 2.44836 8.94608 2.92785 8.94608 3.46127C8.94608 3.76694 8.90269 4.06063 8.81592 4.34232C8.72915 4.61803 8.59321 4.87875 8.4081 5.12448C8.22877 5.36422 7.99738 5.58299 7.71393 5.78077C7.43626 5.97856 7.10364 6.14638 6.71606 6.28423C8.43991 6.6858 9.30184 7.65076 9.30184 9.17912C9.30184 9.73052 9.2006 10.24 8.99814 10.7075C8.79567 11.175 8.50065 11.5795 8.11308 11.9212C7.7255 12.2568 7.24826 12.5205 6.68136 12.7123C6.11445 12.9041 5.46656 13 4.73769 13H0ZM2.33414 7.30014V11.112H4.70298C5.13684 11.112 5.49838 11.0581 5.78762 10.9502C6.08264 10.8423 6.31692 10.6985 6.49046 10.5187C6.66979 10.3389 6.79705 10.1291 6.87225 9.88935C6.95324 9.64961 6.99373 9.39488 6.99373 9.12517C6.99373 8.84348 6.95035 8.59175 6.86358 8.36999C6.7768 8.14223 6.64086 7.95044 6.45575 7.79461C6.27064 7.63278 6.03347 7.50991 5.74423 7.426C5.455 7.34209 5.10502 7.30014 4.6943 7.30014H2.33414ZM2.33414 5.62794H4.19971C4.99222 5.62794 5.59383 5.4781 6.00454 5.17842C6.41526 4.87875 6.62062 4.40226 6.62062 3.74896C6.62062 3.07169 6.43551 2.58921 6.06528 2.30152C5.69506 2.01383 5.11659 1.86999 4.32987 1.86999H2.33414V5.62794Z" fill="white"/>
<path d="M13.8608 7.92047V13H11.5267V0H15.3532C16.2094 0 16.9412 0.0929 17.5485 0.2787C18.1617 0.458506 18.6621 0.713232 19.0497 1.04288C19.443 1.37252 19.7294 1.7681 19.9087 2.2296C20.0938 2.68511 20.1864 3.18857 20.1864 3.73997C20.1864 4.1775 20.1228 4.59106 19.9955 4.98064C19.874 5.37022 19.6947 5.72384 19.4575 6.04149C19.2261 6.35915 18.9369 6.63785 18.5898 6.87759C18.2485 7.11734 17.858 7.30913 17.4184 7.45297C17.7134 7.62679 17.9679 7.87552 18.182 8.19917L21.3231 13H19.2232C19.0208 13 18.8472 12.958 18.7026 12.8741C18.5638 12.7902 18.4452 12.6704 18.3468 12.5145L15.709 8.35201C15.6107 8.19617 15.5008 8.08529 15.3793 8.01936C15.2636 7.95343 15.09 7.92047 14.8587 7.92047H13.8608ZM13.8608 6.18534H15.3185C15.7582 6.18534 16.14 6.1284 16.4639 6.01452C16.7936 5.90065 17.0626 5.74481 17.2709 5.54703C17.4849 5.34325 17.644 5.1035 17.7481 4.8278C17.8522 4.5521 17.9043 4.24942 17.9043 3.91978C17.9043 3.26049 17.6932 2.75403 17.2709 2.40042C16.8544 2.0468 16.2152 1.86999 15.3532 1.86999H13.8608V6.18534Z" fill="white"/>
<path d="M30.8784 0V1.92393H25.3164V5.52905H29.6983V7.39004H25.3164V11.0671H30.8784V13H22.9649V0H30.8784Z" fill="white"/>
<path d="M34.2642 0C34.3683 0 34.4551 0.00599347 34.5245 0.0179804C34.5939 0.0239742 34.6547 0.041955 34.7067 0.0719227C34.7646 0.0958973 34.8195 0.134855 34.8716 0.188797C34.9236 0.236745 34.9815 0.302674 35.0451 0.386584L41.631 9.08022C41.6079 8.87045 41.5905 8.66667 41.579 8.46888C41.5732 8.2651 41.5703 8.0763 41.5703 7.90249V0H43.6268V13H42.4206C42.2355 13 42.0822 12.97 41.9608 12.9101C41.8393 12.8502 41.7207 12.7423 41.605 12.5864L35.0451 3.92877C35.0625 4.12056 35.074 4.31236 35.0798 4.50415C35.0914 4.68995 35.0972 4.86077 35.0972 5.0166V13H33.0407V0H34.2642Z" fill="white"/>
<path d="M57.444 6.5C57.444 7.45297 57.2907 8.32803 56.9841 9.12517C56.6776 9.92231 56.2466 10.6086 55.6913 11.184C55.1359 11.7593 54.4678 12.2059 53.6869 12.5235C52.9059 12.8412 52.0411 13 51.0924 13H46.3027V0H51.0924C52.0411 0 52.9059 0.161826 53.6869 0.485477C54.4678 0.803135 55.1359 1.24965 55.6913 1.82504C56.2466 2.39442 56.6776 3.07769 56.9841 3.87483C57.2907 4.67197 57.444 5.54703 57.444 6.5ZM55.0578 6.5C55.0578 5.78677 54.9653 5.14846 54.7802 4.58506C54.5951 4.01568 54.3319 3.53619 53.9906 3.14661C53.6493 2.75104 53.2327 2.44836 52.7411 2.23859C52.2551 2.02882 51.7056 1.92393 51.0924 1.92393H48.6541V11.0761H51.0924C51.7056 11.0761 52.2551 10.9712 52.7411 10.7614C53.2327 10.5516 53.6493 10.252 53.9906 9.86238C54.3319 9.46681 54.5951 8.98732 54.7802 8.42393C54.9653 7.85454 55.0578 7.21323 55.0578 6.5Z" fill="white"/>
<path d="M70 13H68.1952C67.9927 13 67.8249 12.9491 67.6919 12.8472C67.5646 12.7393 67.4721 12.6074 67.4142 12.4516L66.4771 9.79945H61.2795L60.3424 12.4516C60.2961 12.5894 60.2036 12.7153 60.0647 12.8292C59.9317 12.9431 59.7668 13 59.5701 13H57.7566L62.6852 0H65.0714L70 13ZM61.8782 8.09129H65.8784L64.3512 3.76694C64.2818 3.57515 64.2037 3.35039 64.1169 3.09267C64.0359 2.82895 63.955 2.54426 63.874 2.23859C63.793 2.54426 63.712 2.82895 63.631 3.09267C63.5558 3.35639 63.4806 3.58714 63.4054 3.78492L61.8782 8.09129Z" fill="white"/>
</svg>
