<svg width="20" height="12" viewBox="0 0 20 12" fill="none" xmlns="http://www.w3.org/2000/svg">
<path d="M0 1C0 0.447715 0.447715 0 1 0H19C19.5523 0 20 0.447715 20 1C20 1.55228 19.5523 2 19 2H1C0.447716 2 0 1.55228 0 1Z" fill="#5C5F62"/>
<path d="M3 6C3 5.44772 3.44772 5 4 5H16C16.5523 5 17 5.44772 17 6C17 6.55228 16.5523 7 16 7H4C3.44772 7 3 6.55228 3 6Z" fill="#5C5F62"/>
<path d="M8 10C7.44772 10 7 10.4477 7 11C7 11.5523 7.44772 12 8 12H12C12.5523 12 13 11.5523 13 11C13 10.4477 12.5523 10 12 10H8Z" fill="#5C5F62"/>
</svg>
