<svg width="18" height="18" viewBox="0 0 17 16" fill="none" xmlns="http://www.w3.org/2000/svg">
<path fill-rule="evenodd" clip-rule="evenodd" d="M3.3638 15.9999C3.1982 15.9999 3.0334 15.9487 2.8942 15.8479C2.6542 15.6735 2.5294 15.3808 2.5718 15.0864L3.315 9.88332L0.398185 6.96581C0.186184 6.75382 0.110983 6.44183 0.202184 6.15624C0.293384 5.87065 0.536586 5.66025 0.831787 5.61146L5.23021 4.87788L7.44783 0.442814C7.58463 0.170023 7.88463 -0.00997163 8.16783 0.000428047C8.47263 0.002028 8.74943 0.176423 8.88303 0.450814L11.0062 4.81228L15.5039 5.61306C15.7975 5.66505 16.0375 5.87625 16.1271 6.16024C16.2167 6.44503 16.1407 6.75542 15.9295 6.96581L13.0119 9.88332L13.7559 15.0864C13.7975 15.3824 13.6727 15.6767 13.4295 15.8503C13.1871 16.0247 12.8671 16.0479 12.6023 15.9135L8.21983 13.6944L3.7182 15.9167C3.6062 15.9727 3.4846 15.9999 3.3638 15.9999Z" fill="url(#paint0_linear)"/>
<defs>
<linearGradient id="paint0_linear" x1="0.164062" y1="0" x2="17.7389" y2="1.88868" gradientUnits="userSpaceOnUse">
<stop offset="0.0501562" stop-color="#49E3D7"/>
<stop offset="1" stop-color="#42CEA9"/>
</linearGradient>
</defs>
</svg>
