<svg width="18" height="18" viewBox="0 0 18 18" fill="none" xmlns="http://www.w3.org/2000/svg">
<path fill-rule="evenodd" clip-rule="evenodd" d="M4.3638 16.9999C4.1982 16.9999 4.0334 16.9487 3.8942 16.8479C3.6542 16.6735 3.5294 16.3808 3.5718 16.0864L4.315 10.8833L1.39818 7.96581C1.18618 7.75382 1.11098 7.44183 1.20218 7.15624C1.29338 6.87065 1.53659 6.66025 1.83179 6.61146L6.23021 5.87788L8.44783 1.44281C8.58463 1.17002 8.88463 0.990028 9.16783 1.00043C9.47263 1.00203 9.74943 1.17642 9.88303 1.45081L12.0062 5.81228L16.5039 6.61306C16.7975 6.66505 17.0375 6.87625 17.1271 7.16024C17.2167 7.44503 17.1407 7.75542 16.9295 7.96581L14.0119 10.8833L14.7559 16.0864C14.7975 16.3824 14.6727 16.6767 14.4295 16.8503C14.1871 17.0247 13.8671 17.0479 13.6023 16.9135L9.21983 14.6944L4.7182 16.9167C4.6062 16.9727 4.4846 16.9999 4.3638 16.9999Z" stroke="url(#paint0_linear)"/>
<defs>
<linearGradient id="paint0_linear" x1="1.16406" y1="1" x2="18.7389" y2="2.88868" gradientUnits="userSpaceOnUse">
<stop offset="0.0501562" stop-color="#49E3D7"/>
<stop offset="1" stop-color="#42CEA9"/>
</linearGradient>
</defs>
</svg>
