<svg width="291" height="30" viewBox="0 0 291 30" fill="none" xmlns="http://www.w3.org/2000/svg">
<path fill-rule="evenodd" clip-rule="evenodd" d="M13.4568 13.394C12.9408 14.0421 9.38048 16.0262 8.25314 16.4053C1.78557 18.5794 1.70549 8.56456 8.08901 10.5427C8.97384 10.8171 12.8721 12.8593 13.4568 13.394ZM0.579004 3.02967C1.58424 3.14034 9.5642 3.05141 11.2708 3.05141C15.0021 3.05141 17.9201 2.77249 19.1491 5.925C19.8463 7.71341 19.1642 8.80509 18.2353 9.74206C17.783 10.1983 17.2906 10.4893 16.7068 10.8685C16.1746 11.214 16.1851 11.1993 14.9442 10.3789C13.1223 9.17463 10.2758 7.33794 7.69686 6.81822C0.532718 5.37535 -2.02467 13.7703 1.70833 18.434C3.41666 20.5679 6.6655 20.774 9.75673 19.5494C12.2735 18.5523 15.9909 15.8111 16.5898 15.5886C17.1032 15.9048 18.04 16.9276 18.471 17.4524C20.6272 20.0759 18.8555 23.2975 15.5408 23.8331C12.9723 24.2483 1.86366 23.7306 0.578152 23.9982L0.579288 26.9353C1.39114 27.0593 8.94488 26.967 10.4453 26.967C13.4267 26.967 16.8453 27.1688 19.1985 25.8386C21.0579 24.7876 22.8921 22.707 22.9954 19.7789C23.138 15.7391 19.8965 14.2166 19.522 13.3841C20.049 13.095 21.5682 11.5601 21.936 10.9588C23.9995 7.58242 22.7657 2.76939 19.0912 1.05805C16.5015 -0.14796 13.4307 0.0332805 10.3536 0.0332805C8.67596 0.0332805 1.6433 -0.0531051 0.607116 0.0524773L0.579004 3.02967Z" fill="#248AD3"/>
<path d="M42.6586 23.1492L47.17 8.40964H47.2228L51.7079 23.1492H56.3248L62.4456 2.8304H58.0397L53.9768 17.3624L49.5181 2.8304H44.9539L40.4952 17.2586L36.5642 2.8304H32L38.068 23.1492H42.6586Z" fill="white"/>
<path d="M62.6719 16.2465C62.6719 18.3225 63.4107 20.0352 64.8881 21.4106C66.3655 22.7859 68.1859 23.4606 70.3493 23.4606C72.4863 23.4606 74.3067 22.76 75.8105 21.3846C77.3143 19.9833 78.0531 18.2447 78.0531 16.1687C78.0531 14.1186 77.3143 12.4319 75.8369 11.0565C74.3595 9.68119 72.5391 8.98054 70.4021 8.98054C68.2651 8.98054 66.4183 9.68119 64.9145 11.0825C63.4107 12.4578 62.6719 14.1965 62.6719 16.2465ZM66.8932 16.1946C66.8932 15.1826 67.2361 14.3262 67.8957 13.6775C68.5553 13.0028 69.3731 12.6654 70.3493 12.6654C71.3255 12.6654 72.1697 13.0028 72.8293 13.6775C73.4888 14.3262 73.8318 15.1826 73.8318 16.1946C73.8318 18.2706 72.3544 19.7498 70.3757 19.7498C69.3995 19.7498 68.5553 19.4124 67.8957 18.7637C67.2361 18.089 66.8932 17.2326 66.8932 16.1946Z" fill="white"/>
<path d="M89.9024 9.24004C89.6913 9.16219 89.4275 9.13624 89.0845 9.13624C87.2114 9.13624 85.7075 10.1483 85.1007 11.4198H85.0743V9.29194H80.985V23.1492H85.1007V17.2845C85.1007 14.7933 86.2616 13.1585 88.9262 13.1585C89.2692 13.1585 89.5858 13.1844 89.9024 13.2363V9.24004Z" fill="white"/>
<path d="M96.3082 16.5839H96.4138L101.4 23.1492H106.597L100.767 15.6756L106.439 9.29194H101.189L96.3082 14.7414V2H92.1925V23.1492H96.3082V16.5839Z" fill="white"/>
<path d="M118.747 18.9713C118.747 16.5579 116.873 15.1826 113.312 14.456C112.072 14.1965 111.465 13.7813 111.465 13.1844C111.465 12.6395 112.098 12.1724 112.942 12.1724C114.13 12.1724 114.974 12.6135 115.501 13.4958L118.483 11.7572C117.559 10.0704 115.66 8.95459 113.048 8.95459C111.57 8.95459 110.304 9.36979 109.222 10.2002C108.167 11.0046 107.639 12.0686 107.639 13.3401C107.639 15.5978 109.301 17.1029 112.652 17.8295C114.446 18.2187 114.895 18.6339 114.895 19.1789C114.895 19.7238 114.209 20.1909 113.18 20.1909C111.65 20.1909 110.594 19.62 110.014 18.5042L106.98 20.2688C108.114 22.3967 110.172 23.4606 113.127 23.4606C116.61 23.4606 118.747 21.6441 118.747 18.9713Z" fill="white"/>
<path d="M125.73 9.29194H121.641V30H125.757V21.6182H125.81C126.812 22.8119 128.21 23.4087 129.978 23.4087C131.957 23.4087 133.566 22.6821 134.859 21.2289C136.152 19.7498 136.785 18.089 136.785 16.1946C136.785 14.3262 136.152 12.6654 134.912 11.2122C133.672 9.75904 132.062 9.03244 130.084 9.03244C128.21 9.03244 126.759 9.68119 125.783 11.0046H125.73V9.29194ZM125.651 16.1946C125.651 15.1826 125.994 14.3262 126.654 13.6775C127.313 13.0287 128.131 12.6914 129.107 12.6914C130.084 12.6914 130.928 13.0287 131.587 13.6775C132.273 14.3262 132.616 15.1826 132.616 16.1946C132.616 17.2326 132.273 18.089 131.614 18.7637C130.954 19.4124 130.11 19.7498 129.134 19.7498C128.158 19.7498 127.313 19.4124 126.654 18.7637C125.994 18.089 125.651 17.2326 125.651 16.1946Z" fill="white"/>
<path d="M143.685 23.4087C145.558 23.4087 146.957 22.734 147.906 21.4106L147.959 21.4365V23.1492H151.758V14.5598C151.758 10.9268 149.357 8.98054 145.637 8.98054C142.551 8.98054 140.387 10.0704 139.174 12.2762L142.313 14.1186C143.026 12.873 144.055 12.2502 145.453 12.2502C146.93 12.2502 147.722 13.0028 147.722 13.9629C147.722 14.6376 147.352 14.975 146.614 14.975H145.215C143.632 14.975 142.313 15.2085 141.021 15.8054C139.754 16.4022 138.936 17.5959 138.936 19.2308V19.2827C138.936 20.5283 139.385 21.5403 140.308 22.2929C141.232 23.0454 142.366 23.4087 143.685 23.4087ZM144.872 20.4504C143.817 20.4504 143.078 19.9833 143.078 19.0491C143.078 18.0111 144.028 17.4662 145.215 17.4662H147.695V17.7776C147.695 19.3086 146.64 20.4504 144.872 20.4504Z" fill="white"/>
<path d="M162.146 23.4606C165.285 23.4606 167.844 21.9815 168.926 19.1529L165.285 17.6738C164.679 19.0491 163.65 19.7238 162.172 19.7238C160.167 19.7238 158.795 18.2706 158.795 16.1946C158.795 14.0408 160.273 12.6914 162.172 12.6914C163.57 12.6914 164.599 13.3661 165.206 14.7414L168.821 13.2623C167.897 10.5375 165.312 8.98054 162.172 8.98054C160.062 8.98054 158.268 9.68119 156.79 11.0825C155.313 12.4838 154.574 14.1965 154.574 16.2465C154.574 18.3225 155.286 20.0352 156.711 21.4106C158.136 22.7859 159.956 23.4606 162.146 23.4606Z" fill="white"/>
<path d="M185.21 17.3364C185.237 17.025 185.263 16.532 185.263 15.8832C185.263 13.8332 184.604 12.1464 183.311 10.8749C182.018 9.60334 180.33 8.95459 178.245 8.95459C176.214 8.95459 174.446 9.65524 172.969 11.0825C171.518 12.5097 170.779 14.1965 170.779 16.1946C170.779 18.3225 171.518 20.0612 172.995 21.4365C174.499 22.7859 176.32 23.4606 178.509 23.4606C181.385 23.4606 183.39 22.4226 184.577 20.3207L181.596 18.4004C180.963 19.4124 179.696 20.0612 178.457 20.0612C176.689 20.0612 175.211 19.0232 174.974 17.3364H185.21ZM175.08 14.6636C175.159 14.1186 175.475 13.5737 176.029 13.0547C176.583 12.5097 177.296 12.2502 178.14 12.2502C180.013 12.2502 181.042 13.4439 181.148 14.6636H175.08Z" fill="white"/>
<path d="M190.433 23.4606C191.224 23.4606 191.884 23.1752 192.438 22.6302C192.992 22.0853 193.282 21.4106 193.282 20.658C193.282 19.101 192.016 17.8295 190.433 17.8295C188.85 17.8295 187.584 19.101 187.584 20.658C187.584 21.4106 187.874 22.0853 188.428 22.6302C188.982 23.1752 189.668 23.4606 190.433 23.4606Z" fill="white"/>
<path d="M213.53 17.8703C213.53 15.2753 212.29 13.848 209.731 12.9138V12.8619C211.657 11.8758 212.633 10.4226 212.633 8.52829C212.633 6.8156 211.973 5.49215 210.681 4.55795C209.388 3.62375 207.858 3.15665 206.037 3.15665H197.463V23.4755H206.169C209.784 23.4755 213.53 21.9963 213.53 17.8703ZM208.438 9.17704C208.438 10.6562 207.356 11.4087 205.167 11.4087H201.631V7.0232H205.457C207.145 7.0232 208.438 7.62004 208.438 9.17704ZM209.361 17.3253C209.361 18.8304 208.28 19.583 206.116 19.583H201.631V15.0417H205.984C208.227 15.0417 209.361 15.7943 209.361 17.3253Z" fill="white"/>
<path d="M225.511 9.56629C225.3 9.48844 225.036 9.46249 224.693 9.46249C222.82 9.46249 221.317 10.4745 220.71 11.7461H220.683V9.61819H216.594V23.4755H220.71V17.6108C220.71 15.1196 221.871 13.4847 224.535 13.4847C224.878 13.4847 225.195 13.5107 225.511 13.5626V9.56629Z" fill="white"/>
<path d="M241.053 17.6627C241.079 17.3513 241.106 16.8582 241.106 16.2095C241.106 14.1594 240.446 12.4727 239.153 11.2011C237.861 9.92959 236.172 9.28084 234.088 9.28084C232.057 9.28084 230.289 9.98149 228.811 11.4087C227.36 12.836 226.622 14.5227 226.622 16.5209C226.622 18.6488 227.36 20.3874 228.838 21.7628C230.342 23.1122 232.162 23.7869 234.352 23.7869C237.228 23.7869 239.233 22.7489 240.42 20.6469L237.439 18.7266C236.805 19.7387 235.539 20.3874 234.299 20.3874C232.531 20.3874 231.054 19.3494 230.817 17.6627H241.053ZM230.922 14.9898C231.001 14.4449 231.318 13.8999 231.872 13.3809C232.426 12.836 233.138 12.5765 233.982 12.5765C235.856 12.5765 236.885 13.7702 236.99 14.9898H230.922Z" fill="white"/>
<path d="M257.224 23.4755V14.8601C257.224 13.3031 256.802 12.0056 255.932 10.9416C255.087 9.87769 253.821 9.35869 252.133 9.35869C251.526 9.35869 250.787 9.38464 249.547 10.0853C248.94 10.4226 248.492 10.8638 248.149 11.4347H248.122V9.61819H244.033V23.4755H248.149V15.7943C248.149 14.2632 249.019 13.0955 250.681 13.0955C252.291 13.0955 253.135 14.1594 253.135 15.7943V23.4755H257.224Z" fill="white"/>
<path d="M271.172 23.4755H275.156V2.3522H271.067V11.2011H271.014C269.959 9.98149 268.56 9.35869 266.793 9.35869C264.867 9.35869 263.257 10.0853 261.965 11.5644C260.672 13.0176 260.039 14.6784 260.039 16.5209C260.039 18.4671 260.672 20.1798 261.912 21.6071C263.152 23.0343 264.761 23.735 266.74 23.735C268.719 23.735 270.196 23.0603 271.119 21.7109H271.172V23.4755ZM271.172 16.5209C271.172 17.5589 270.829 18.4152 270.17 19.0899C269.51 19.7387 268.666 20.076 267.69 20.076C266.713 20.076 265.869 19.7387 265.21 19.0899C264.55 18.4152 264.207 17.5589 264.207 16.5209C264.207 14.4708 265.711 13.0176 267.69 13.0176C269.668 13.0176 271.172 14.4708 271.172 16.5209Z" fill="white"/>
<path d="M282.927 23.735C284.8 23.735 286.198 23.0603 287.148 21.7368L287.201 21.7628V23.4755H291V14.886C291 11.253 288.599 9.30679 284.879 9.30679C281.792 9.30679 279.629 10.3967 278.415 12.6024L281.555 14.4449C282.267 13.1993 283.296 12.5765 284.695 12.5765C286.172 12.5765 286.963 13.329 286.963 14.2892C286.963 14.9639 286.594 15.3012 285.855 15.3012H284.457C282.874 15.3012 281.555 15.5348 280.262 16.1316C278.996 16.7285 278.178 17.9222 278.178 19.557V19.6089C278.178 20.8545 278.627 21.8666 279.55 22.6191C280.473 23.3717 281.608 23.735 282.927 23.735ZM284.114 20.7767C283.059 20.7767 282.32 20.3096 282.32 19.3754C282.32 18.3374 283.27 17.7924 284.457 17.7924H286.937V18.1038C286.937 19.6349 285.882 20.7767 284.114 20.7767Z" fill="white"/>
</svg>
