<svg width="60" height="56" viewBox="0 0 60 56" fill="none" xmlns="http://www.w3.org/2000/svg">
<rect x="2" y="1.00049" width="56" height="35" fill="black"/>
<path d="M41.2756 55.6935H18.8067C18.1346 55.6935 17.6064 55.1654 17.6064 54.4932C17.6064 53.8211 18.1346 53.293 18.8067 53.293H41.2756C41.9477 53.293 42.4758 53.8211 42.4758 54.4932C42.4758 55.1654 41.9477 55.6935 41.2756 55.6935Z" fill="black"/>
<path d="M56.0627 46.9067H3.97136C1.81089 46.9067 0.0825195 45.1783 0.0825195 43.0178V3.88933C0.0825195 1.72886 1.8589 0.000488281 3.97136 0.000488281H56.0627C58.2231 0.000488281 59.9515 1.72886 59.9515 3.88933V43.0178C59.9995 45.1303 58.2231 46.9067 56.0627 46.9067ZM3.97136 2.40101C3.15519 2.40101 2.48304 3.07316 2.48304 3.88933V43.0178C2.48304 43.834 3.15519 44.5062 3.97136 44.5062H56.0627C56.8789 44.5062 57.551 43.834 57.551 43.0178V3.88933C57.551 3.07316 56.8789 2.40101 56.0627 2.40101H3.97136Z" fill="black"/>
<path d="M58.7993 37.9782H1.28278C0.610634 37.9782 0.0825195 37.45 0.0825195 36.7779C0.0825195 36.1058 0.610634 35.5776 1.28278 35.5776H58.7993C59.4714 35.5776 59.9995 36.1058 59.9995 36.7779C59.9995 37.45 59.4714 37.9782 58.7993 37.9782Z" fill="black"/>
<path d="M30.0413 55.6933C29.3692 55.6933 28.8411 55.1652 28.8411 54.493V45.7071C28.8411 45.035 29.3692 44.5068 30.0413 44.5068C30.7135 44.5068 31.2416 45.035 31.2416 45.7071V54.493C31.2416 55.1652 30.7135 55.6933 30.0413 55.6933Z" fill="black"/>
<path fill-rule="evenodd" clip-rule="evenodd" d="M24.6074 20.3527C24.1704 20.4495 23.7161 20.5005 23.25 20.5005C19.7982 20.5005 17 17.7023 17 14.2505C17 10.7987 19.7982 8.00049 23.25 8.00049C26.626 8.00049 29.3769 10.6773 29.496 14.0242L34.9673 14.9361C35.6067 13.7819 36.8371 13.0005 38.25 13.0005C40.3211 13.0005 42 14.6794 42 16.7505C42 18.8216 40.3211 20.5005 38.25 20.5005C37.8494 20.5005 37.4635 20.4377 37.1015 20.3214L33.5188 25.0252C34.1353 25.8566 34.5 26.886 34.5 28.0005C34.5 30.7619 32.2614 33.0005 29.5 33.0005C26.7386 33.0005 24.5 30.7619 24.5 28.0005C24.5 26.4536 25.2024 25.0709 26.3057 24.1537L24.6074 20.3527ZM26.8895 19.332L28.5674 23.0873C28.8696 23.0303 29.1813 23.0005 29.5 23.0005C30.2406 23.0005 30.9435 23.1615 31.5758 23.4504L35.1131 18.8061C34.839 18.3886 34.646 17.9132 34.5564 17.4021L29.0866 16.4905C28.6453 17.6397 27.8743 18.6254 26.8895 19.332Z" fill="url(#paint0_linear)"/>
<defs>
<linearGradient id="paint0_linear" x1="17" y1="8.00049" x2="44.4606" y2="10.9516" gradientUnits="userSpaceOnUse">
<stop offset="0.0501562" stop-color="#49E3D7"/>
<stop offset="1" stop-color="#42CEA9"/>
</linearGradient>
</defs>
</svg>
