<svg width="60" height="60" viewBox="0 0 60 60" fill="none" xmlns="http://www.w3.org/2000/svg">
<path d="M58.4672 43.0297C57.58 43.0297 56.7815 43.7395 56.7815 44.7154C56.7815 51.1921 51.4582 56.5153 44.9816 56.5153C38.5049 56.5153 33.1817 51.2808 33.1817 44.7154C33.1817 38.2388 38.5049 32.9155 44.9816 32.9155C45.8688 32.9155 46.6673 32.2057 46.6673 31.2298V10.2916C46.6673 6.56535 43.562 3.46012 39.8358 3.46012H38.3275V1.24209C38.3275 0.532321 37.7952 0 37.0854 0H34.4238C33.714 0 33.1817 0.532321 33.1817 1.24209V3.46012H13.9292V1.50826C13.9292 0.798487 13.3969 0.266166 12.6871 0.266166H10.0255C9.31571 0.266166 8.78338 0.798487 8.78338 1.50826V3.3714H6.83152C3.10523 3.3714 0 6.47664 0 10.2029V39.4809C0 43.2071 3.10523 46.3124 6.83152 46.3124H29.8103C30.6088 53.8537 37.0854 59.798 44.8041 59.798C53.1439 59.798 59.9754 53.0552 59.9754 44.6267C60.1529 43.7395 59.3544 43.0297 58.4672 43.0297ZM7.00896 6.74279H39.8358C41.7876 6.74279 43.2959 8.33978 43.2959 10.2029V14.1954H3.54884V10.2029C3.54884 8.33978 5.14582 6.74279 7.00896 6.74279ZM3.54884 39.4809V17.5668H43.2959V29.6328C36.2869 30.4313 30.6975 36.0208 29.9877 42.941H7.00896C5.14582 43.0297 3.54884 41.4327 3.54884 39.4809ZM50.3048 32.2057C50.7484 31.4073 51.8131 31.1411 52.6116 31.5847C53.4101 32.0283 53.6762 33.0929 53.2326 33.8914C52.8778 34.4238 52.3454 34.6899 51.8131 34.6899C51.5469 34.6899 51.2808 34.6012 51.0146 34.4238C50.1274 33.9802 49.8612 33.0042 50.3048 32.2057ZM55.1845 38.7711C54.7409 37.9726 55.0071 36.908 55.8055 36.4643C56.604 36.0207 57.6687 36.2869 58.1123 37.0854C58.5559 37.8839 58.2897 38.9486 57.4912 39.3922C57.2251 39.5696 56.9589 39.6583 56.6928 39.6583C56.0717 39.5696 55.5394 39.3034 55.1845 38.7711ZM43.8282 43.4733L48.6191 38.6824C49.2402 38.0613 50.3048 38.0613 51.0146 38.6824C51.6357 39.3034 51.6357 40.3681 51.0146 41.0779L46.2237 45.8688C45.8688 46.2237 45.4252 46.4011 45.0703 46.4011C44.7154 46.4011 44.1831 46.2237 43.9169 45.8688C43.2072 45.159 43.2071 44.0943 43.8282 43.4733Z" fill="black"/>
<path d="M25.6399 25.1104V27.5059C25.6399 28.1269 25.1075 28.6592 24.4865 28.6592H22.091C21.47 28.6592 20.9376 28.1269 20.9376 27.5059V25.1104C20.9376 24.4894 21.47 23.957 22.091 23.957H24.4865C25.1075 23.957 25.6399 24.4894 25.6399 25.1104ZM30.3421 27.5059V25.1104C30.3421 24.4894 30.8744 23.957 31.4954 23.957H33.8909C34.512 23.957 35.0443 24.4894 35.0443 25.1104V27.5059C35.0443 28.1269 34.512 28.6592 33.8909 28.6592H31.4954C30.8744 28.6592 30.3421 28.1269 30.3421 27.5059ZM25.6399 34.5148V36.9103C25.6399 37.5314 25.1075 38.0637 24.4865 38.0637H22.091C21.47 38.0637 20.9376 37.5314 20.9376 36.9103V34.5148C20.9376 33.8938 21.47 33.3615 22.091 33.3615H24.4865C25.1075 33.3615 25.6399 33.8938 25.6399 34.5148ZM16.2354 34.5148V36.9103C16.2354 37.5314 15.7031 38.0637 15.082 38.0637H12.6866C12.0655 38.0637 11.5332 37.5314 11.5332 36.9103V34.5148C11.5332 33.8938 12.0655 33.3615 12.6866 33.3615H15.082C15.7031 33.3615 16.2354 33.8938 16.2354 34.5148Z" fill="url(#paint0_linear)"/>
<path d="M58.4672 43.0297C57.58 43.0297 56.7815 43.7395 56.7815 44.7154C56.7815 51.1921 51.4582 56.5153 44.9816 56.5153C38.5049 56.5153 33.1817 51.2808 33.1817 44.7154C33.1817 38.2388 38.5049 32.9155 44.9816 32.9155C45.8688 32.9155 46.6673 32.2057 46.6673 31.2298V10.2916C46.6673 6.56535 43.562 3.46012 39.8358 3.46012H38.3275V1.24209C38.3275 0.532321 37.7952 0 37.0854 0H34.4238C33.714 0 33.1817 0.532321 33.1817 1.24209V3.46012H13.9292V1.50826C13.9292 0.798487 13.3969 0.266166 12.6871 0.266166H10.0255C9.31571 0.266166 8.78338 0.798487 8.78338 1.50826V3.3714H6.83152C3.10523 3.3714 0 6.47664 0 10.2029V39.4809C0 43.2071 3.10523 46.3124 6.83152 46.3124H29.8103C30.6088 53.8537 37.0854 59.798 44.8041 59.798C53.1439 59.798 59.9754 53.0552 59.9754 44.6267C60.1529 43.7395 59.3544 43.0297 58.4672 43.0297ZM7.00896 6.74279H39.8358C41.7876 6.74279 43.2959 8.33978 43.2959 10.2029V14.1954H3.54884V10.2029C3.54884 8.33978 5.14582 6.74279 7.00896 6.74279ZM50.3048 32.2057C50.7484 31.4073 51.8131 31.1411 52.6116 31.5847C53.4101 32.0283 53.6762 33.093 53.2326 33.8914C52.8778 34.4238 52.3454 34.6899 51.8131 34.6899C51.5469 34.6899 51.2808 34.6012 51.0146 34.4238C50.1274 33.9802 49.8612 33.0042 50.3048 32.2057ZM55.1845 38.7711C54.7409 37.9726 55.0071 36.9079 55.8055 36.4643C56.604 36.0207 57.6687 36.2869 58.1123 37.0854C58.5559 37.8839 58.2897 38.9486 57.4912 39.3922C57.2251 39.5696 56.9589 39.6583 56.6928 39.6583C56.0717 39.5696 55.5394 39.3034 55.1845 38.7711ZM43.8282 43.4733L48.6191 38.6824C49.2402 38.0613 50.3048 38.0613 51.0146 38.6824C51.6357 39.3034 51.6357 40.3681 51.0146 41.0779L46.2237 45.8688C45.8688 46.2237 45.4252 46.4011 45.0703 46.4011C44.7154 46.4011 44.1831 46.2237 43.9169 45.8688C43.2072 45.159 43.2071 44.0944 43.8282 43.4733Z" fill="black"/>
<path d="M25.6399 25.1104V27.5059C25.6399 28.1269 25.1075 28.6592 24.4865 28.6592H22.091C21.47 28.6592 20.9376 28.1269 20.9376 27.5059V25.1104C20.9376 24.4894 21.47 23.957 22.091 23.957H24.4865C25.1075 23.957 25.6399 24.4894 25.6399 25.1104ZM30.3421 27.5059V25.1104C30.3421 24.4894 30.8744 23.957 31.4954 23.957H33.8909C34.512 23.957 35.0443 24.4894 35.0443 25.1104V27.5059C35.0443 28.1269 34.512 28.6592 33.8909 28.6592H31.4954C30.8744 28.6592 30.3421 28.1269 30.3421 27.5059ZM25.6399 34.5148V36.9103C25.6399 37.5314 25.1075 38.0637 24.4865 38.0637H22.091C21.47 38.0637 20.9376 37.5314 20.9376 36.9103V34.5148C20.9376 33.8938 21.47 33.3615 22.091 33.3615H24.4865C25.1075 33.3615 25.6399 33.8938 25.6399 34.5148ZM16.2354 34.5148V36.9103C16.2354 37.5314 15.7031 38.0637 15.082 38.0637H12.6866C12.0655 38.0637 11.5332 37.5314 11.5332 36.9103V34.5148C11.5332 33.8938 12.0655 33.3615 12.6866 33.3615H15.082C15.7031 33.3615 16.2354 33.8938 16.2354 34.5148Z" fill="url(#paint1_linear)"/>
<defs>
<linearGradient id="paint0_linear" x1="11.5332" y1="23.957" x2="36.8446" y2="28.4905" gradientUnits="userSpaceOnUse">
<stop offset="0.0501562" stop-color="#49E3D7"/>
<stop offset="1" stop-color="#42CEA9"/>
</linearGradient>
<linearGradient id="paint1_linear" x1="11.5332" y1="23.957" x2="36.8446" y2="28.4905" gradientUnits="userSpaceOnUse">
<stop offset="0.0501562" stop-color="#49E3D7"/>
<stop offset="1" stop-color="#42CEA9"/>
</linearGradient>
</defs>
</svg>
