<svg width="60" height="60" viewBox="0 0 60 60" fill="none" xmlns="http://www.w3.org/2000/svg">
<path fill-rule="evenodd" clip-rule="evenodd" d="M45 27C48.312 27 51 29.688 51 33C51 36.312 48.312 39 45 39C41.688 39 39 36.312 39 33C39 29.688 41.688 27 45 27ZM30 27C26.688 27 24 24.312 24 21C24 17.688 26.688 15 30 15C33.312 15 36 17.688 36 21C36 24.312 33.312 27 30 27ZM48 6C51.312 6 54 8.688 54 12C54 15.312 51.312 18 48 18C44.688 18 42 15.312 42 12C42 8.688 44.688 6 48 6ZM39 48C40.656 48 42 49.341 42 51C42 52.659 40.656 54 39 54H21C20.754 54 20.511 53.97 20.271 53.91L8.271 50.91C6.936 50.574 6 49.377 6 48V39C6 37.707 6.825 36.561 8.052 36.156L17.052 33.156C17.337 33.057 17.634 33.021 17.934 33.015C17.955 33.012 17.976 33 18 33H27C28.656 33 30 34.341 30 36C30 37.659 28.656 39 27 39H21.498C23.295 44.421 29.982 48 39 48Z" fill="black"/>
<path fill-rule="evenodd" clip-rule="evenodd" d="M45 27C48.312 27 51 29.688 51 33C51 36.312 48.312 39 45 39C41.688 39 39 36.312 39 33C39 29.688 41.688 27 45 27ZM30 27C26.688 27 24 24.312 24 21C24 17.688 26.688 15 30 15C33.312 15 36 17.688 36 21C36 24.312 33.312 27 30 27ZM48 6C51.312 6 54 8.688 54 12C54 15.312 51.312 18 48 18C44.688 18 42 15.312 42 12C42 8.688 44.688 6 48 6Z" fill="url(#paint0_linear)"/>
<defs>
<linearGradient id="paint0_linear" x1="24" y1="6" x2="57.0182" y2="9.22574" gradientUnits="userSpaceOnUse">
<stop offset="0.0501562" stop-color="#49E3D7"/>
<stop offset="1" stop-color="#42CEA9"/>
</linearGradient>
</defs>
</svg>
