<svg width="60" height="60" viewBox="0 0 60 60" fill="none" xmlns="http://www.w3.org/2000/svg">
<path d="M33.875 30.3219C36.2575 31.2061 38.3118 32.7911 39.7636 34.8654C41.2154 36.9397 41.9955 39.4045 42 41.9307C42 42.4795 41.7805 43.0058 41.3898 43.3939C40.9991 43.782 40.4692 44 39.9167 44H19.0833C18.5308 44 18.0009 43.782 17.6102 43.3939C17.2195 43.0058 17 42.4795 17 41.9307C17.0045 39.4045 17.7847 36.9397 19.2364 34.8654C20.6882 32.7911 22.7425 31.2061 25.125 30.3219C23.5814 29.3762 22.3905 27.956 21.7332 26.277C21.0759 24.598 20.988 22.7518 21.4829 21.0187C21.9777 19.2856 23.0284 17.7602 24.4752 16.674C25.9221 15.5877 27.6863 15 29.5 15C31.3137 15 33.0779 15.5877 34.5248 16.674C35.9716 17.7602 37.0223 19.2856 37.5171 21.0187C38.012 22.7518 37.9241 24.598 37.2668 26.277C36.6095 27.956 35.4186 29.3762 33.875 30.3219Z" fill="black"/>
<path d="M0 54V50C0 49.4696 0.210714 48.9609 0.585786 48.5858C0.960859 48.2107 1.46957 48 2 48C2.53043 48 3.03914 48.2107 3.41421 48.5858C3.78929 48.9609 4 49.4696 4 50V54C4 54.5304 4.21071 55.0391 4.58579 55.4142C4.96086 55.7893 5.46957 56 6 56H10C10.5304 56 11.0391 56.2107 11.4142 56.5858C11.7893 56.9609 12 57.4696 12 58C12 58.5304 11.7893 59.0391 11.4142 59.4142C11.0391 59.7893 10.5304 60 10 60H6C4.4087 60 2.88258 59.3679 1.75736 58.2426C0.632141 57.1174 0 55.5913 0 54ZM54 0H50C49.4696 0 48.9609 0.210714 48.5858 0.585786C48.2107 0.960859 48 1.46957 48 2C48 2.53043 48.2107 3.03914 48.5858 3.41421C48.9609 3.78929 49.4696 4 50 4H54C54.5304 4 55.0391 4.21071 55.4142 4.58579C55.7893 4.96086 56 5.46957 56 6V10C56 10.5304 56.2107 11.0391 56.5858 11.4142C56.9609 11.7893 57.4696 12 58 12C58.5304 12 59.0391 11.7893 59.4142 11.4142C59.7893 11.0391 60 10.5304 60 10V6C60 4.4087 59.3679 2.88258 58.2426 1.75736C57.1174 0.632141 55.5913 0 54 0Z" fill="url(#paint0_linear)"/>
<defs>
<linearGradient id="paint0_linear" x1="0" y1="0" x2="65.9055" y2="7.08256" gradientUnits="userSpaceOnUse">
<stop offset="0.0501562" stop-color="#49E3D7"/>
<stop offset="1" stop-color="#42CEA9"/>
</linearGradient>
</defs>
</svg>
