<svg width="60" height="51" viewBox="0 0 60 51" fill="none" xmlns="http://www.w3.org/2000/svg">
<path d="M9.56141 0C7.9264 0 6.46556 0.347022 5.32269 1.1504C4.17982 1.95379 3.42699 3.30227 3.42699 4.77194V26.5866C3.42443 26.7673 3.4578 26.9466 3.52516 27.1143C3.59253 27.2819 3.69253 27.4345 3.81937 27.5632C3.94621 27.6919 4.09735 27.794 4.26401 27.8637C4.43067 27.9335 4.60953 27.9694 4.79019 27.9694C4.97085 27.9694 5.14971 27.9335 5.31637 27.8637C5.48303 27.794 5.63417 27.6919 5.76101 27.5632C5.88785 27.4345 5.98786 27.2819 6.05522 27.1143C6.12258 26.9466 6.15595 26.7673 6.1534 26.5866V17.7244H57.2736V41.5841C57.2736 42.2347 57.0769 42.598 56.5494 42.9688C56.0219 43.3396 55.0914 43.6292 53.8656 43.6292H21.8303C21.6497 43.6268 21.4705 43.6604 21.3031 43.7278C21.1356 43.7953 20.9832 43.8953 20.8547 44.0221C20.7262 44.149 20.6241 44.3002 20.5545 44.4668C20.4848 44.6334 20.449 44.8121 20.449 44.9927C20.449 45.1733 20.4848 45.352 20.5545 45.5186C20.6241 45.6852 20.7262 45.8363 20.8547 45.9631C20.9832 46.09 21.1356 46.1901 21.3031 46.2575C21.4705 46.325 21.6497 46.3584 21.8303 46.3561H53.8656C55.5006 46.3561 56.9614 45.9877 58.1043 45.1844C59.2472 44.381 60 43.0538 60 41.5841V4.77194C60 3.30227 59.2472 1.95379 58.1043 1.1504C56.9614 0.347022 55.5006 0 53.8656 0H9.56141ZM32.0543 5.45367C30.1882 5.45367 28.6463 6.99585 28.6463 8.86218C28.6463 10.7285 30.1882 12.2707 32.0543 12.2707C33.9204 12.2707 35.4623 10.7285 35.4623 8.86218C35.4623 6.99585 33.9204 5.45367 32.0543 5.45367ZM41.5967 5.45367C39.7307 5.45367 38.1887 6.99585 38.1887 8.86218C38.1887 10.7285 39.7307 12.2707 41.5967 12.2707C43.4628 12.2707 45.0047 10.7285 45.0047 8.86218C45.0047 6.99585 43.4628 5.45367 41.5967 5.45367ZM51.1392 5.45367C49.2731 5.45367 47.7312 6.99585 47.7312 8.86218C47.7312 10.7285 49.2731 12.2707 51.1392 12.2707C53.0052 12.2707 54.5472 10.7285 54.5472 8.86218C54.5472 6.99585 53.0052 5.45367 51.1392 5.45367ZM32.0543 8.18049C32.4469 8.18049 32.7359 8.46957 32.7359 8.86218C32.7359 9.25483 32.4469 9.54392 32.0543 9.54392C31.6617 9.54392 31.3727 9.25483 31.3727 8.86218C31.3727 8.46957 31.6617 8.18049 32.0543 8.18049ZM41.5967 8.18049C41.9893 8.18049 42.2783 8.46957 42.2783 8.86218C42.2783 9.25483 41.9893 9.54392 41.5967 9.54392C41.2042 9.54392 40.9151 9.25483 40.9151 8.86218C40.9151 8.46957 41.2042 8.18049 41.5967 8.18049ZM51.1392 8.18049C51.5317 8.18049 51.8208 8.46957 51.8208 8.86218C51.8208 9.25483 51.5317 9.54392 51.1392 9.54392C50.7466 9.54392 50.4576 9.25483 50.4576 8.86218C50.4576 8.46957 50.7466 8.18049 51.1392 8.18049ZM12.2878 27.95C7.41027 27.95 3.42699 31.9338 3.42699 36.8122C3.42699 39.1043 4.31033 41.2004 5.7487 42.7771L0.423674 48.1029C0.292341 48.2279 0.18724 48.3778 0.11452 48.5438C0.0418002 48.7099 0.00292158 48.8888 0.000158421 49.0701C-0.00260473 49.2514 0.0308029 49.4313 0.0984274 49.5995C0.166052 49.7677 0.266535 49.9208 0.393999 50.0497C0.521464 50.1786 0.673349 50.2808 0.840771 50.3503C1.00819 50.4198 1.18779 50.4551 1.36905 50.4544C1.55032 50.4536 1.72961 50.4167 1.89644 50.3459C2.06328 50.275 2.2143 50.1715 2.34068 50.0416L7.8787 44.5027C9.1787 45.2533 10.6851 45.6743 12.2878 45.6743C17.1654 45.6743 21.1487 41.6905 21.1487 36.8122C21.1487 31.9338 17.1654 27.95 12.2878 27.95ZM12.2878 30.6768C15.6919 30.6768 18.4222 33.4075 18.4222 36.8122C18.4222 40.2167 15.6919 42.9476 12.2878 42.9476C8.88373 42.9476 6.1534 40.2167 6.1534 36.8122C6.1534 33.4075 8.88372 30.6768 12.2878 30.6768Z" fill="black"/>
<path d="M32.0545 5.45312C30.1884 5.45312 28.6465 6.99531 28.6465 8.86163C28.6465 10.728 30.1884 12.2702 32.0545 12.2702C33.9206 12.2702 35.4625 10.728 35.4625 8.86163C35.4625 6.99531 33.9206 5.45312 32.0545 5.45312ZM41.5969 5.45312C39.7309 5.45312 38.1889 6.99531 38.1889 8.86163C38.1889 10.728 39.7309 12.2702 41.5969 12.2702C43.463 12.2702 45.0049 10.728 45.0049 8.86163C45.0049 6.99531 43.463 5.45312 41.5969 5.45312ZM51.1394 5.45312C49.2733 5.45312 47.7314 6.99531 47.7314 8.86163C47.7314 10.728 49.2733 12.2702 51.1394 12.2702C53.0054 12.2702 54.5474 10.728 54.5474 8.86163C54.5474 6.99531 53.0054 5.45312 51.1394 5.45312ZM32.0545 8.17994C32.4471 8.17994 32.7361 8.46902 32.7361 8.86163C32.7361 9.25429 32.4471 9.54337 32.0545 9.54337C31.6619 9.54337 31.3729 9.25429 31.3729 8.86163C31.3729 8.46902 31.6619 8.17994 32.0545 8.17994ZM41.5969 8.17994C41.9895 8.17994 42.2785 8.46902 42.2785 8.86163C42.2785 9.25429 41.9895 9.54337 41.5969 9.54337C41.2044 9.54337 40.9153 9.25429 40.9153 8.86163C40.9153 8.46902 41.2044 8.17994 41.5969 8.17994ZM51.1394 8.17994C51.5319 8.17994 51.821 8.46902 51.821 8.86163C51.821 9.25429 51.5319 9.54337 51.1394 9.54337C50.7468 9.54337 50.4578 9.25429 50.4578 8.86163C50.4578 8.46902 50.7468 8.17994 51.1394 8.17994Z" fill="url(#paint0_linear)"/>
<defs>
<linearGradient id="paint0_linear" x1="28.6465" y1="5.45312" x2="53.313" y2="15.5246" gradientUnits="userSpaceOnUse">
<stop offset="0.0501562" stop-color="#49E3D7"/>
<stop offset="1" stop-color="#42CEA9"/>
</linearGradient>
</defs>
</svg>
