<svg width="24" height="24" viewBox="0 0 24 24" fill="none" xmlns="http://www.w3.org/2000/svg">
<path fill-rule="evenodd" clip-rule="evenodd" d="M20.1076 0H1.05829C0.473057 0 0 0.473057 0 1.05829V20.1076C0 20.6928 0.473057 21.1659 1.05829 21.1659H5.02627C5.61151 21.1659 6.08456 20.6928 6.08456 20.1076C6.08456 19.5223 5.61151 19.0493 5.02627 19.0493H2.11659V2.11659H19.0493V9.12684C19.0493 9.71208 19.5223 10.1851 20.1076 10.1851C20.6928 10.1851 21.1659 9.71208 21.1659 9.12684V1.05829C21.1659 0.473057 20.6928 0 20.1076 0Z" fill="#DADEE8"/>
<path d="M12.1689 15.6415V12.3652H6.46576C5.67703 12.3652 5.07031 12.972 5.07031 13.7607V20.7986C5.07031 21.5873 5.67703 22.1941 6.46576 22.1941H7.6792V23.2862C7.6792 23.8322 8.28592 24.0749 8.71062 23.7109L10.2274 22.2547H17.9934C18.7821 22.2547 19.3889 21.648 19.3889 20.8593V17.7043H14.1711C13.079 17.6437 12.1689 16.7336 12.1689 15.6415Z" fill="#757E91"/>
<path d="M22.7865 9.27344H14.2317C13.625 9.27344 13.1396 9.75881 13.1396 10.3655V12.3677V15.644C13.1396 16.2507 13.625 16.7361 14.2317 16.7361H19.4495H20.0562L20.9663 17.6461C21.3303 18.0102 21.9977 17.7675 21.9977 17.2214V16.7361H22.9078C23.5145 16.7361 23.9999 16.2507 23.9999 15.644V10.3655C23.8786 9.75881 23.3932 9.27344 22.7865 9.27344Z" fill="#757E91"/>
</svg>
