<svg width="322" height="322" viewBox="0 0 322 322" fill="none" xmlns="http://www.w3.org/2000/svg">
<path d="M161.712 266.434C219.942 266.434 267.146 219.229 267.146 161C267.146 102.769 219.942 55.5664 161.712 55.5664C103.482 55.5664 56.2788 102.769 56.2788 161C56.2788 219.229 103.482 266.434 161.712 266.434Z" fill="#F0F1F2"/>
<path d="M105.192 130.935C121.742 130.935 135.159 117.518 135.159 100.967C135.159 84.4169 121.742 71 105.192 71C88.6411 71 75.2242 84.4169 75.2242 100.967C75.2242 117.518 88.6411 130.935 105.192 130.935Z" fill="url(#paint0_linear_101_16)"/>
<path d="M143.567 154.435C137.962 145.164 127.829 139.128 116.402 139.128H93.9807C77.8113 139.128 64.2289 151.201 62.2886 167.155L59.0547 193.026C58.6235 196.475 60.7794 199.494 64.2289 200.356C77.1645 203.159 90.7468 204.668 104.976 204.668C112.091 204.668 119.205 204.237 126.104 203.59L128.907 181.168C130.416 170.389 135.806 160.902 143.567 154.435Z" fill="url(#paint1_linear_101_16)"/>
<path d="M209.971 178.797L214.068 178.581L217.302 175.779C218.595 174.701 219.889 173.838 221.182 173.192C216.224 161.981 205.013 154.435 192.077 154.435H170.087C153.917 154.435 140.335 166.508 138.395 182.462L135.161 208.333C134.73 211.783 136.885 214.801 140.335 215.663C153.27 218.466 166.853 219.975 181.082 219.975C182.591 219.975 184.316 219.975 185.825 219.975C184.531 214.37 185.825 208.118 189.706 203.59L192.508 200.572L192.94 196.26C193.586 186.774 200.701 179.444 209.971 178.797Z" fill="black"/>
<path d="M181.079 146.026C197.629 146.026 211.046 132.609 211.046 116.059C211.046 99.5084 197.629 86.0915 181.079 86.0915C164.528 86.0915 151.111 99.5084 151.111 116.059C151.111 132.609 164.528 146.026 181.079 146.026Z" fill="black"/>
<circle cx="231" cy="215" r="25" fill="white"/>
<path d="M261.926 209.411L259.123 206.177C257.83 204.668 257.183 202.943 256.967 201.003L256.536 196.691C256.105 192.163 252.656 188.714 248.128 188.283L243.816 187.852C241.876 187.636 240.151 186.989 238.642 185.696L235.408 182.893C231.959 179.875 227 179.875 223.551 182.893L220.317 185.696C218.807 186.989 217.083 187.636 215.142 187.852L210.831 188.283C206.303 188.714 202.854 192.163 202.422 196.691L201.991 201.003C201.776 202.943 201.129 204.668 199.835 206.177L197.033 209.411C194.014 212.86 194.014 217.819 197.033 221.269L199.835 224.502C201.129 226.012 201.776 227.736 201.991 229.677L202.422 233.989C202.854 238.516 206.303 241.965 210.831 242.397L215.142 242.828C217.083 243.043 218.807 243.69 220.317 244.984L223.551 247.786C227 250.805 231.959 250.805 235.408 247.786L238.642 244.984C240.151 243.69 241.876 243.043 243.816 242.828L248.128 242.397C252.656 241.965 256.105 238.516 256.536 233.989L256.967 229.677C257.183 227.736 257.83 226.012 259.123 224.502L261.926 221.269C264.729 217.819 264.729 212.86 261.926 209.411ZM231.959 229.461V233.126C231.959 233.557 231.743 233.773 231.312 233.773H227.862C227.431 233.773 227.216 233.557 227.216 233.126V229.461C223.766 229.245 220.748 226.443 220.532 222.993C220.532 222.562 220.748 222.346 221.179 222.346H224.628C224.844 222.346 225.275 222.562 225.275 222.778C225.491 223.856 226.569 224.718 227.647 224.718H230.665C232.39 224.718 234.115 223.424 234.33 221.7C234.546 219.544 232.821 217.819 230.881 217.819H228.725C224.413 217.819 220.532 214.585 220.101 210.273C219.67 205.746 222.904 201.865 227.216 201.218V197.769C227.216 197.338 227.431 197.122 227.862 197.122H231.312C231.743 197.122 231.959 197.338 231.959 197.769V201.218C235.408 201.434 238.426 204.237 238.642 207.686C238.642 208.117 238.426 208.333 237.995 208.333H234.546C234.33 208.333 233.899 208.117 233.899 207.902C233.683 206.824 232.605 205.961 231.527 205.961H228.509C226.784 205.961 225.06 207.255 224.844 208.98C224.628 211.136 226.353 212.86 228.294 212.86H230.881C235.839 212.86 239.72 216.957 239.073 221.915C238.642 225.796 235.624 228.814 231.959 229.461Z" fill="url(#paint2_linear_101_16)"/>
<defs>
<linearGradient id="paint0_linear_101_16" x1="28" y1="54.5" x2="129.806" y2="48.0805" gradientUnits="userSpaceOnUse">
<stop offset="0.0501562" stop-color="#BFE4F8"/>
<stop offset="1" stop-color="#248AD3"/>
</linearGradient>
<linearGradient id="paint1_linear_101_16" x1="26.5" y1="131" x2="146.24" y2="135.482" gradientUnits="userSpaceOnUse">
<stop stop-color="#BFE4F8"/>
<stop offset="1" stop-color="#248AD3"/>
</linearGradient>
<linearGradient id="paint2_linear_101_16" x1="117.5" y1="138.5" x2="259.785" y2="133.425" gradientUnits="userSpaceOnUse">
<stop offset="0.0501562" stop-color="#BFE4F8"/>
<stop offset="1" stop-color="#248AD3"/>
</linearGradient>
</defs>
</svg>
