<svg width="18" height="20" viewBox="0 0 18 20" fill="none" xmlns="http://www.w3.org/2000/svg">
<path d="M1.28964 0.188759C1.6019 -0.0449367 2.01817 -0.0631242 2.34823 0.142509L16.7941 9.14251C17.0841 9.32323 17.2616 9.64874 17.2616 10C17.2616 10.3513 17.0841 10.6768 16.7941 10.8575L2.34823 19.8575C2.01817 20.0631 1.6019 20.0449 1.28964 19.8112C0.977381 19.5775 0.829125 19.1732 0.912624 18.7831L2.5783 11L7.59409 11C8.14638 11 8.59409 10.5523 8.59409 10C8.59409 9.44772 8.14638 9 7.59409 9L2.5783 9L0.912624 1.21693C0.829125 0.826771 0.977381 0.422456 1.28964 0.188759Z" fill="#5C5F62"/>
</svg>
