<svg width="28" height="24" viewBox="0 0 28 24" fill="none" xmlns="http://www.w3.org/2000/svg">
<path fill-rule="evenodd" clip-rule="evenodd" d="M21.2286 0H1.11729C0.49943 0 0 0.49943 0 1.11729V21.2286C0 21.8465 0.49943 22.3459 1.11729 22.3459H5.30649C5.92436 22.3459 6.42379 21.8465 6.42379 21.2286C6.42379 20.6107 5.92436 20.1113 5.30649 20.1113H2.23459V2.23459H20.1113V9.63568C20.1113 10.2535 20.6107 10.753 21.2286 10.753C21.8465 10.753 22.3459 10.2535 22.3459 9.63568V1.11729C22.3459 0.49943 21.8465 0 21.2286 0Z" fill="#DADEE8"/>
<path d="M27.2418 12.7794C27.1158 12.7337 26.9667 12.7496 26.8609 12.8193L22.6524 15.5938C22.572 15.6467 22.5264 15.7241 22.5264 15.8054V19.8072C22.5264 19.8889 22.5725 19.9659 22.6524 20.0188L26.8609 22.7932C26.9263 22.8365 27.0086 22.8591 27.0918 22.8591C27.1428 22.8591 27.1937 22.8509 27.2418 22.8331C27.3678 22.7879 27.4491 22.6893 27.4491 22.5816V13.0309C27.4491 12.9227 27.3683 12.8246 27.2418 12.7794Z" fill="#757E91"/>
<path d="M20.1529 11.6133H8.83292C8.03602 11.6133 7.39014 12.1909 7.39014 12.9036V22.7097C7.39014 23.4224 8.03602 24 8.83292 24H20.1529C20.9498 24 21.5957 23.4224 21.5957 22.7097V12.9036C21.5957 12.1909 20.9498 11.6133 20.1529 11.6133Z" fill="#757E91"/>
</svg>
