<svg width="13" height="12" viewBox="0 0 13 12" fill="none" xmlns="http://www.w3.org/2000/svg">
<rect x="0.571289" width="12" height="12" rx="6" fill="#596172"/>
<path d="M3.37109 4.39961C3.37109 4.18744 3.45538 3.98395 3.60541 3.83392C3.75544 3.68389 3.95892 3.59961 4.17109 3.59961H6.57109C6.78327 3.59961 6.98675 3.68389 7.13678 3.83392C7.28681 3.98395 7.37109 4.18744 7.37109 4.39961V7.59961C7.37109 7.81178 7.28681 8.01527 7.13678 8.16529C6.98675 8.31532 6.78327 8.39961 6.57109 8.39961H4.17109C3.95892 8.39961 3.75544 8.31532 3.60541 8.16529C3.45538 8.01527 3.37109 7.81178 3.37109 7.59961V4.39961ZM8.39229 4.84201C8.32586 4.87521 8.26998 4.92624 8.23091 4.9894C8.19185 5.05256 8.17113 5.12534 8.17109 5.19961V6.79961C8.17113 6.87387 8.19185 6.94666 8.23091 7.00982C8.26998 7.07298 8.32586 7.12401 8.39229 7.15721L9.19229 7.55721C9.25326 7.58768 9.321 7.60206 9.38909 7.59899C9.45718 7.59592 9.52335 7.57551 9.58134 7.53969C9.63932 7.50386 9.68719 7.45382 9.7204 7.3943C9.75361 7.33478 9.77106 7.26777 9.77109 7.19961V4.79961C9.77106 4.73145 9.75361 4.66444 9.7204 4.60492C9.68719 4.5454 9.63932 4.49536 9.58134 4.45953C9.52335 4.42371 9.45718 4.40329 9.38909 4.40023C9.321 4.39716 9.25326 4.41154 9.19229 4.44201L8.39229 4.84201Z" fill="white"/>
</svg>
