<svg width="322" height="322" viewBox="0 0 322 322" fill="none" xmlns="http://www.w3.org/2000/svg">
<path d="M161.433 266.867C219.662 266.867 266.866 219.663 266.866 161.434C266.866 103.203 219.662 56 161.433 56C103.202 56 55.999 103.203 55.999 161.434C55.999 219.663 103.202 266.867 161.433 266.867Z" fill="#F0F1F2"/>
<rect x="94" y="103" width="133" height="96" fill="white"/>
<rect x="156" y="103" width="71" height="66" fill="white"/>
<path d="M226.994 93H96.2349C91.1439 93 87 97.1422 87 102.235V190.644C87 195.735 91.1422 199.879 96.2349 199.879H145.944V216.118C124.445 216.484 117.21 225.6 116.91 225.995L115.329 228.072H207.899L206.319 225.995C206.019 225.6 198.783 216.484 177.286 216.118V199.879H226.994C232.085 199.879 236.229 195.737 236.229 190.644V102.235C236.229 97.1422 232.086 93 226.994 93ZM132.783 139.019C140.417 139.019 146.628 145.23 146.628 152.864C146.628 160.494 140.415 166.703 132.783 166.703C125.151 166.703 118.944 160.494 118.944 152.864C118.944 145.23 125.151 139.019 132.783 139.019ZM145.944 197.291H103.562C104.245 181.742 117.07 169.293 132.783 169.293C148.496 169.293 161.323 181.742 162.006 197.291H145.944ZM220.002 153.185C220.002 155.326 218.259 157.067 216.12 157.067H166.79C164.651 157.067 162.908 155.326 162.908 153.185V125.865C162.908 123.724 164.651 121.983 166.79 121.983H216.12C218.259 121.983 220.002 123.724 220.002 125.865V153.185Z" fill="black"/>
<path d="M184.804 150.095L198.978 139.523L184.804 128.957V150.095Z" fill="black"/>
<mask id="mask0" mask-type="alpha" maskUnits="userSpaceOnUse" x="87" y="93" width="150" height="136">
<path d="M226.994 93H96.2349C91.1439 93 87 97.1422 87 102.235V190.644C87 195.735 91.1422 199.879 96.2349 199.879H145.944V216.118C124.445 216.484 117.21 225.6 116.91 225.995L115.329 228.072H207.899L206.319 225.995C206.019 225.6 198.783 216.484 177.286 216.118V199.879H226.994C232.085 199.879 236.229 195.737 236.229 190.644V102.235C236.229 97.1422 232.086 93 226.994 93ZM132.783 139.019C140.417 139.019 146.628 145.23 146.628 152.864C146.628 160.494 140.415 166.703 132.783 166.703C125.151 166.703 118.944 160.494 118.944 152.864C118.944 145.23 125.151 139.019 132.783 139.019ZM145.944 197.291H103.562C104.245 181.742 117.07 169.293 132.783 169.293C148.496 169.293 161.323 181.742 162.006 197.291H145.944ZM220.002 153.185C220.002 155.326 218.259 157.067 216.12 157.067H166.79C164.651 157.067 162.908 155.326 162.908 153.185V125.865C162.908 123.724 164.651 121.983 166.79 121.983H216.12C218.259 121.983 220.002 123.724 220.002 125.865V153.185Z" fill="url(#paint0_linear)"/>
<path d="M184.804 150.095L198.978 139.523L184.804 128.957V150.095Z" fill="url(#paint1_linear)"/>
</mask>
<g mask="url(#mask0)">
<rect x="99" y="200" width="135" height="40" fill="url(#paint2_linear)"/>
</g>
<defs>
<linearGradient id="paint0_linear" x1="87" y1="93" x2="250.505" y2="112.413" gradientUnits="userSpaceOnUse">
<stop offset="0.0501562" stop-color="#49E3D7"/>
<stop offset="1" stop-color="#42CEA9"/>
</linearGradient>
<linearGradient id="paint1_linear" x1="184.804" y1="128.957" x2="200.471" y2="130.086" gradientUnits="userSpaceOnUse">
<stop offset="0.0501562" stop-color="#49E3D7"/>
<stop offset="1" stop-color="#42CEA9"/>
</linearGradient>
<linearGradient id="paint2_linear" x1="99" y1="200" x2="231.562" y2="248.08" gradientUnits="userSpaceOnUse">
<stop offset="0.0501562" stop-color="#49E3D7"/>
<stop offset="1" stop-color="#42CEA9"/>
</linearGradient>
</defs>
</svg>
