<svg width="322" height="322" viewBox="0 0 322 322" fill="none" xmlns="http://www.w3.org/2000/svg">
<path d="M162.434 266.434C220.663 266.434 267.867 219.229 267.867 161C267.867 102.769 220.663 55.5664 162.434 55.5664C104.203 55.5664 57 102.769 57 161C57 219.229 104.203 266.434 162.434 266.434Z" fill="#F0F1F2"/>
<path d="M162.004 106.071C144.399 106.071 132.438 119.795 132.438 136.73C132.438 153.66 144.399 167.391 162.004 167.391C179.602 167.391 191.566 153.66 191.566 136.73C191.568 119.795 179.604 106.071 162.004 106.071Z" fill="url(#paint0_linear)"/>
<path d="M162.002 174.43C161.924 174.43 161.848 174.415 161.764 174.415V174.442C133.258 174.69 110.221 196.974 110.221 224.461C110.616 232.539 113.485 241.597 118.152 246.774C122.624 252.007 204.161 251.622 205.855 246.774C210.521 241.6 213.386 232.539 213.784 224.461C213.784 196.974 190.749 174.69 162.24 174.442V174.415C162.164 174.415 162.081 174.43 162.002 174.43Z" fill="black"/>
<path d="M220.681 131.323C238.281 131.323 250.241 117.589 250.241 100.659C250.241 83.729 238.281 70 220.681 70C203.076 70 191.117 83.729 191.117 100.659C191.117 117.589 203.076 131.323 220.681 131.323Z" fill="url(#paint1_linear)"/>
<path d="M103.329 70C85.7243 70 73.7627 83.729 73.7627 100.659C73.7627 117.589 85.7243 131.323 103.329 131.323C120.927 131.323 132.889 117.589 132.889 100.659C132.889 83.729 120.927 70 103.329 70Z" fill="url(#paint2_linear)"/>
<path d="M220.916 138.37V138.345C220.84 138.345 220.762 138.355 220.676 138.355C220.597 138.355 220.519 138.345 220.44 138.345V138.37C212.828 138.431 205.614 140.083 199.119 142.97C197.435 154.58 191.089 164.181 181.948 169.841C201.976 176.812 217.134 193.816 220.877 214.482C242.319 214.465 263.672 213.159 264.526 210.702C269.192 205.525 272.057 196.467 272.457 188.389C272.462 160.904 249.425 138.615 220.916 138.37Z" fill="black"/>
<path d="M103.121 214.482C106.87 193.819 122.027 176.812 142.055 169.841C132.916 164.181 126.59 154.58 124.904 142.98C118.402 140.086 111.18 138.431 103.563 138.37V138.345C103.485 138.345 103.403 138.355 103.325 138.355C103.246 138.355 103.168 138.345 103.084 138.345V138.37C74.5757 138.615 51.541 160.904 51.541 188.389C51.9411 196.467 54.8057 205.522 59.4745 210.702C61.6666 213.267 82.3767 214.48 103.121 214.482Z" fill="black"/>
<defs>
<linearGradient id="paint0_linear" x1="132.438" y1="106.071" x2="197.438" y2="112.807" gradientUnits="userSpaceOnUse">
<stop offset="0.0501562" stop-color="#49E3D7"/>
<stop offset="1" stop-color="#42CEA9"/>
</linearGradient>
<linearGradient id="paint1_linear" x1="191.117" y1="70" x2="256.112" y2="76.7342" gradientUnits="userSpaceOnUse">
<stop offset="0.0501562" stop-color="#49E3D7"/>
<stop offset="1" stop-color="#42CEA9"/>
</linearGradient>
<linearGradient id="paint2_linear" x1="73.7627" y1="70" x2="138.76" y2="76.7347" gradientUnits="userSpaceOnUse">
<stop offset="0.0501562" stop-color="#49E3D7"/>
<stop offset="1" stop-color="#42CEA9"/>
</linearGradient>
</defs>
</svg>
