<svg width="41" height="40" viewBox="0 0 41 40" fill="none" xmlns="http://www.w3.org/2000/svg">
<path fill-rule="evenodd" clip-rule="evenodd" d="M40.9219 20C40.9219 31.0457 31.9676 40 20.9219 40C9.87618 40 0.921875 31.0457 0.921875 20C0.921875 8.95431 9.87618 0 20.9219 0C31.9676 0 40.9219 8.95431 40.9219 20ZM11.5077 16.5858L19.5077 8.58579C20.2887 7.80474 21.555 7.80474 22.3361 8.58579L30.3361 16.5858C31.1171 17.3668 31.1171 18.6332 30.3361 19.4142C29.555 20.1953 28.2887 20.1953 27.5077 19.4142L22.9219 14.8284V30C22.9219 31.1046 22.0264 32 20.9219 32C19.8173 32 18.9219 31.1046 18.9219 30V14.8284L14.3361 19.4142C13.555 20.1953 12.2887 20.1953 11.5077 19.4142C10.7266 18.6332 10.7266 17.3668 11.5077 16.5858Z" fill="#DEE4F5"/>
</svg>
