<svg width="89" height="88" viewBox="0 0 89 88" fill="none" xmlns="http://www.w3.org/2000/svg">
<path d="M48.1697 81.0826C47.8915 81.0808 47.625 80.9707 47.4273 80.7758C47.3314 80.6772 47.2553 80.5613 47.2032 80.4342C47.1473 80.3091 47.1187 80.1736 47.1192 80.0367C47.1181 79.8975 47.1468 79.7597 47.2032 79.6323C47.2261 79.5671 47.2592 79.5059 47.3013 79.451C47.3357 79.3942 47.3782 79.3425 47.4273 79.2976C47.8435 78.9045 48.4959 78.9045 48.912 79.2976C49.3217 79.706 49.3217 80.3675 48.912 80.7758C48.7152 80.972 48.4482 81.0824 48.1697 81.0826Z" fill="#DEE4F5"/>
<path fill-rule="evenodd" clip-rule="evenodd" d="M7.43871 78.9908C6.85853 78.9908 6.3882 79.4591 6.3882 80.0367H6.36719C6.36713 80.3178 6.48069 80.587 6.68227 80.7838C6.88384 80.9805 7.15648 81.0882 7.43871 81.0826C8.01889 81.0826 8.48923 80.6143 8.48923 80.0367C8.48923 79.4591 8.01889 78.9908 7.43871 78.9908ZM12.208 80.0367C12.208 79.4591 12.6784 78.9908 13.2586 78.9908C13.8387 78.9908 14.3091 79.4591 14.3091 80.0367C14.3091 80.6143 13.8387 81.0826 13.2586 81.0826C12.9769 81.0863 12.7053 80.978 12.5042 80.7816C12.303 80.5853 12.1889 80.3172 12.187 80.0367H12.208ZM19.0854 78.9908C18.5052 78.9908 18.0349 79.4591 18.0349 80.0367H18.0139C18.0138 80.3178 18.1274 80.587 18.329 80.7838C18.5305 80.9805 18.8032 81.0882 19.0854 81.0826C19.6656 81.0826 20.1359 80.6143 20.1359 80.0367C20.1359 79.4591 19.6656 78.9908 19.0854 78.9908ZM23.8547 80.0367C23.8547 79.4591 24.3251 78.9908 24.9053 78.9908C25.4854 78.9908 25.9558 79.4591 25.9558 80.0367C25.9558 80.6143 25.4854 81.0826 24.9053 81.0826C24.6194 81.094 24.3413 80.9888 24.1351 80.7915C23.9289 80.5941 23.8125 80.3215 23.8127 80.0367H23.8547ZM30.7251 78.9908C30.1449 78.9908 29.6746 79.4591 29.6746 80.0367H29.6536C29.6535 80.3178 29.7671 80.587 29.9687 80.7838C30.1702 80.9805 30.4429 81.0882 30.7251 81.0826C31.3053 81.0826 31.7756 80.6143 31.7756 80.0367C31.7756 79.4591 31.3053 78.9908 30.7251 78.9908ZM35.5014 80.0367C35.5014 79.4591 35.9718 78.9908 36.552 78.9908C37.1321 78.9908 37.6025 79.4591 37.6025 80.0367C37.5987 80.6128 37.1306 81.0788 36.552 81.0826C36.2697 81.0882 35.9971 80.9805 35.7955 80.7838C35.5939 80.587 35.4804 80.3178 35.4804 80.0367H35.5014ZM41.3213 80.0367C41.3213 79.4591 41.7916 78.9908 42.3718 78.9908C42.952 78.9908 43.4223 79.4591 43.4223 80.0367C43.4223 80.6143 42.952 81.0826 42.3718 81.0826C41.7916 81.0826 41.3213 80.6143 41.3213 80.0367Z" fill="#DEE4F5"/>
<path d="M1.59742 81.0825C1.3189 81.0823 1.05188 80.9719 0.855055 80.7757C0.655992 80.5811 0.544789 80.3144 0.546905 80.0366C0.54715 79.7593 0.65799 79.4935 0.855055 79.2975C0.902207 79.246 0.956437 79.2014 1.01613 79.1651C1.07206 79.1244 1.13332 79.0915 1.19822 79.0675C1.26102 79.0393 1.3268 79.0182 1.39432 79.0047C1.5289 78.9838 1.66593 78.9838 1.80052 79.0047C1.86804 79.0182 1.93382 79.0393 1.99661 79.0675C2.06084 79.093 2.12193 79.1258 2.1787 79.1651C2.23708 79.2033 2.29109 79.2477 2.33978 79.2975C2.53685 79.4935 2.64769 79.7593 2.64793 80.0366C2.64617 80.3136 2.53556 80.5789 2.33978 80.7757C2.14296 80.9719 1.87594 81.0823 1.59742 81.0825Z" fill="#DEE4F5"/>
<path fill-rule="evenodd" clip-rule="evenodd" d="M1.59739 40.3145C1.01721 40.3145 0.546875 40.7827 0.546875 41.3603C0.546875 41.9379 1.01721 42.4062 1.59739 42.4062C2.17757 42.4062 2.6479 41.9379 2.6479 41.3603C2.6479 40.7827 2.17757 40.3145 1.59739 40.3145ZM0.546875 46.8825C0.546875 46.3049 1.01721 45.8367 1.59739 45.8367C2.17757 45.8367 2.6479 46.3049 2.6479 46.8825C2.6479 47.4601 2.17757 47.9284 1.59739 47.9284C1.01721 47.9284 0.546875 47.4601 0.546875 46.8825ZM1.59739 51.3658C1.01721 51.3658 0.546875 51.8341 0.546875 52.4117C0.546875 52.9893 1.01721 53.4576 1.59739 53.4576C2.17757 53.4576 2.6479 52.9893 2.6479 52.4117C2.6479 51.8341 2.17757 51.3658 1.59739 51.3658ZM0.546875 57.9339C0.546875 57.3563 1.01721 56.888 1.59739 56.888C2.17757 56.888 2.6479 57.3563 2.6479 57.9339C2.6479 58.5115 2.17757 58.9798 1.59739 58.9798C1.01721 58.9798 0.546875 58.5115 0.546875 57.9339ZM1.59739 62.4172C1.01721 62.4172 0.546875 62.8855 0.546875 63.4631V63.477C0.546875 64.0546 1.01721 64.5229 1.59739 64.5229C2.17757 64.5229 2.6479 64.0546 2.6479 63.477C2.65165 63.1972 2.54263 62.9276 2.34521 62.7284C2.14779 62.5293 1.87845 62.4172 1.59739 62.4172ZM0.546875 68.9853C0.546875 68.4077 1.01721 67.9394 1.59739 67.9394C2.17757 67.9394 2.6479 68.4077 2.6479 68.9853C2.6479 69.5629 2.17757 70.0312 1.59739 70.0312C1.01721 70.0312 0.546875 69.5629 0.546875 68.9853ZM0.546875 74.5075C0.546875 73.9299 1.01721 73.4616 1.59739 73.4616C2.17757 73.4616 2.6479 73.9299 2.6479 74.5075C2.6479 75.0851 2.17757 75.5534 1.59739 75.5534C1.01721 75.5534 0.546875 75.0851 0.546875 74.5075Z" fill="#DEE4F5"/>
<path d="M1.59739 36.8841C1.31887 36.8838 1.05185 36.7735 0.855026 36.5773C0.659244 36.3805 0.548634 36.1152 0.546875 35.8382C0.54712 35.5609 0.65796 35.295 0.855026 35.0991C0.902177 35.0476 0.956407 35.003 1.0161 34.9666C1.0744 34.9357 1.13533 34.9101 1.19819 34.8899L1.40129 34.8132C1.53525 34.7854 1.67353 34.7854 1.80749 34.8132L2.00359 34.869L2.18568 34.9666C2.24405 35.0048 2.29807 35.0492 2.34676 35.0991C2.54382 35.295 2.65466 35.5609 2.65491 35.8382C2.65491 36.4158 2.18458 36.8841 1.60439 36.8841H1.59739Z" fill="#DEE4F5"/>
<path fill-rule="evenodd" clip-rule="evenodd" d="M7.43871 34.7922C6.85853 34.7922 6.3882 35.2605 6.3882 35.8381H6.36719C6.36713 36.1192 6.48069 36.3884 6.68227 36.5851C6.88384 36.7819 7.15648 36.8896 7.43871 36.884C8.01889 36.884 8.48923 36.4157 8.48923 35.8381C8.48923 35.2605 8.01889 34.7922 7.43871 34.7922ZM12.208 35.8381C12.208 35.2605 12.6784 34.7922 13.2586 34.7922C13.8387 34.7922 14.3091 35.2605 14.3091 35.8381C14.3091 36.4157 13.8387 36.884 13.2586 36.884C12.9763 36.8896 12.7037 36.7819 12.5021 36.5851C12.3005 36.3884 12.187 36.1192 12.187 35.8381H12.208ZM19.0854 34.7922C18.5052 34.7922 18.0349 35.2605 18.0349 35.8381H18.0139C18.0138 36.1192 18.1274 36.3884 18.329 36.5851C18.5305 36.7819 18.8032 36.8896 19.0854 36.884C19.6656 36.884 20.1359 36.4157 20.1359 35.8381C20.1359 35.2605 19.6656 34.7922 19.0854 34.7922ZM23.8547 35.8381C23.8547 35.2605 24.3251 34.7922 24.9053 34.7922C25.4854 34.7922 25.9558 35.2605 25.9558 35.8381C25.9558 36.4157 25.4854 36.884 24.9053 36.884C24.6194 36.8954 24.3413 36.7902 24.1351 36.5928C23.9289 36.3955 23.8125 36.1229 23.8127 35.8381H23.8547ZM30.7251 34.7922C30.1449 34.7922 29.6746 35.2605 29.6746 35.8381H29.6536C29.6535 36.1192 29.7671 36.3884 29.9687 36.5851C30.1702 36.7819 30.4429 36.8896 30.7251 36.884C31.3053 36.884 31.7756 36.4157 31.7756 35.8381C31.7756 35.2605 31.3053 34.7922 30.7251 34.7922ZM35.5014 35.8381C35.5014 35.2605 35.9718 34.7922 36.552 34.7922C37.1321 34.7922 37.6025 35.2605 37.6025 35.8381C37.6025 36.4157 37.1321 36.884 36.552 36.884C36.2697 36.8896 35.9971 36.7819 35.7955 36.5851C35.5939 36.3884 35.4804 36.1192 35.4804 35.8381H35.5014ZM41.3213 35.8381C41.3213 35.2605 41.7916 34.7922 42.3718 34.7922C42.952 34.7922 43.4223 35.2605 43.4223 35.8381C43.4223 36.4157 42.952 36.884 42.3718 36.884C41.7916 36.884 41.3213 36.4157 41.3213 35.8381Z" fill="#DEE4F5"/>
<path d="M48.1709 36.8841C47.8183 36.8868 47.4881 36.7121 47.2931 36.4195C47.0982 36.127 47.0648 35.7562 47.2045 35.4338C47.2288 35.3692 47.2618 35.3083 47.3025 35.2525C47.3385 35.1967 47.3808 35.1453 47.4286 35.0991C47.6791 34.8529 48.0356 34.7459 48.381 34.8132L48.5771 34.869C48.6378 34.8973 48.6963 34.93 48.7522 34.9666C48.8119 35.003 48.8661 35.0476 48.9133 35.0991C48.9633 35.1451 49.0079 35.1966 49.0464 35.2525C49.0464 35.3152 49.1164 35.371 49.1444 35.4338C49.1695 35.4968 49.1883 35.5622 49.2004 35.629C49.2706 35.973 49.1628 36.3292 48.9133 36.5773C48.8661 36.6267 48.8118 36.669 48.7522 36.7028C48.6979 36.742 48.6391 36.7747 48.5771 36.8004C48.4492 36.8566 48.3107 36.8851 48.1709 36.8841Z" fill="#DEE4F5"/>
<path fill-rule="evenodd" clip-rule="evenodd" d="M48.1697 40.3145C47.5895 40.3145 47.1191 40.7827 47.1191 41.3603C47.1191 41.9379 47.5895 42.4062 48.1697 42.4062C48.7498 42.4062 49.2202 41.9379 49.2202 41.3603C49.2202 40.7827 48.7498 40.3145 48.1697 40.3145ZM47.1191 46.8825C47.1191 46.3049 47.5895 45.8367 48.1697 45.8367C48.7498 45.8367 49.2202 46.3049 49.2202 46.8825C49.2202 47.4601 48.7498 47.9284 48.1697 47.9284C47.5895 47.9284 47.1191 47.4601 47.1191 46.8825ZM48.1697 51.3658C47.5895 51.3658 47.1191 51.8341 47.1191 52.4117C47.1191 52.9893 47.5895 53.4576 48.1697 53.4576C48.7498 53.4576 49.2202 52.9893 49.2202 52.4117C49.2202 51.8341 48.7498 51.3658 48.1697 51.3658ZM47.1191 57.9339C47.1191 57.3563 47.5895 56.888 48.1697 56.888C48.7498 56.888 49.2202 57.3563 49.2202 57.9339C49.2202 58.5115 48.7498 58.9798 48.1697 58.9798C47.5895 58.9798 47.1191 58.5115 47.1191 57.9339ZM48.1697 62.4102C47.5883 62.4141 47.1191 62.8843 47.1191 63.4631V63.477C47.123 64.0519 47.5922 64.5159 48.1697 64.5159C48.7471 64.5159 49.2163 64.0519 49.2202 63.477C49.2239 63.1966 49.1151 62.9263 48.9179 62.726C48.7207 62.5257 48.4514 62.4121 48.1697 62.4102ZM47.1191 68.9853C47.1191 68.4077 47.5895 67.9394 48.1697 67.9394C48.7498 67.9394 49.2202 68.4077 49.2202 68.9853C49.2202 69.5629 48.7498 70.0312 48.1697 70.0312C47.5895 70.0312 47.1191 69.5629 47.1191 68.9853ZM47.1191 74.5075C47.1191 73.9299 47.5895 73.4616 48.1697 73.4616C48.7498 73.4616 49.2202 73.9299 49.2202 74.5075C49.2202 75.0851 48.7498 75.5534 48.1697 75.5534C47.5895 75.5534 47.1191 75.0851 47.1191 74.5075Z" fill="#DEE4F5"/>
<path d="M12.3555 8.38049H76.2687V69.4245H12.3555V8.38049Z" fill="white"/>
<path fill-rule="evenodd" clip-rule="evenodd" d="M68.7464 70.0172H76.8634C76.8646 69.9016 76.866 69.7853 76.8673 69.6687C76.8807 68.5057 76.8945 67.2983 76.8564 66.1196C76.8353 65.4712 76.8353 64.828 76.8353 64.1813C76.8353 63.5346 76.8354 62.8844 76.8143 62.222C76.8025 61.6674 76.7879 61.1116 76.7733 60.5567C76.7187 58.4812 76.6644 56.4176 76.7583 54.4756C76.8354 52.8817 76.8097 51.2119 76.7839 49.536C76.7699 48.624 76.7558 47.7102 76.7583 46.8059C76.7653 44.24 76.8283 41.709 76.9404 39.1849C77.0069 37.9005 77.0069 36.6136 76.9404 35.3292C76.8348 34.0397 76.8091 32.745 76.8634 31.4525C76.9893 29.6521 76.9667 27.8013 76.9441 25.9493C76.9352 25.2263 76.9264 24.5032 76.9264 23.7827C76.9324 22.6784 77.0059 21.5896 77.0798 20.4941C77.0918 20.3169 77.1038 20.1395 77.1155 19.9618C77.1995 18.6859 77.1995 17.4029 77.1995 16.113L77.1225 12.2503L77.0805 10.3259C77.0836 10.0352 77.094 9.74458 77.1044 9.4533C77.1169 9.10168 77.1295 8.74913 77.1295 8.39448C77.1049 7.97107 76.7636 7.63425 76.3381 7.61357H76.2821C74.3162 7.4951 72.3464 7.55927 70.3785 7.62337C69.6824 7.64605 68.9866 7.66872 68.2912 7.68329C67.4048 7.70187 66.5177 7.7305 65.6303 7.75914C63.8533 7.8165 62.0752 7.87388 60.3003 7.85063C59.2361 7.83669 58.173 7.79822 57.1098 7.75975C55.514 7.702 53.9177 7.64424 52.3163 7.66935C51.4295 7.68325 50.5435 7.69484 49.6579 7.70643C47.879 7.72971 46.1022 7.75296 44.3254 7.79485C44.029 7.80184 43.7325 7.80875 43.436 7.81565C41.0711 7.87072 38.7056 7.92581 36.3345 8.02494L32.3426 8.15045C31.4555 8.17369 30.5684 8.16594 29.6813 8.1582C29.2377 8.15432 28.7942 8.15045 28.3506 8.15045C25.6823 8.07375 23.021 8.07375 20.3597 8.07375C19.4729 8.07375 18.5853 8.06678 17.6974 8.05981C15.9208 8.04587 14.1433 8.03191 12.3688 8.07375C12.1588 8.07755 11.9906 8.24814 11.9906 8.45724C12.0466 11.0022 12.0957 13.5471 12.0466 16.0921C12.0254 17.1968 11.9737 18.3002 11.9221 19.4034C11.8548 20.8417 11.7875 22.2797 11.7875 23.72C11.7832 24.501 11.8288 25.2767 11.8744 26.0536C11.9033 26.546 11.9323 27.0389 11.9486 27.5339C11.9842 28.6144 11.9344 29.6849 11.8843 30.7623C11.8752 30.9572 11.8661 31.1524 11.8576 31.3479C11.8381 31.7906 11.8111 32.2333 11.7841 32.6757C11.7332 33.5084 11.6825 34.3401 11.6825 35.1688V38.9827C11.7018 41.794 11.6655 44.6073 11.6292 47.4216C11.5998 49.6958 11.5704 51.9707 11.5704 54.2455C11.5704 54.457 11.5696 54.6685 11.5689 54.88C11.5673 55.303 11.5657 55.726 11.5704 56.149C11.5751 56.5732 11.6111 57.0005 11.647 57.4267C11.6648 57.6381 11.6825 57.8491 11.6965 58.0594C11.7197 59.3328 11.6659 60.6064 11.5354 61.8734C11.4414 63.4256 11.5064 64.9752 11.5713 66.5253C11.6129 67.5168 11.6545 68.5085 11.6545 69.5013C11.6545 69.8864 11.968 70.1985 12.3548 70.1985H16.3818H18.3988L20.4157 70.2543C23.1191 70.338 25.8154 70.3868 28.5257 70.4356C29.3941 70.4266 30.2595 70.3914 31.122 70.3563C31.5951 70.3371 32.0673 70.3179 32.5387 70.3031C33.8693 70.2613 35.207 70.2334 36.5656 70.2613C37.1924 70.2741 37.8207 70.2959 38.4491 70.3177C39.1829 70.3431 39.9168 70.3685 40.6486 70.3798C41.4 70.3914 42.1428 70.3688 42.883 70.3464C43.4812 70.3282 44.0777 70.3101 44.6756 70.3101L52.6455 70.08L56.6235 69.9754C57.6569 69.97 58.707 70.0104 59.7771 70.0516C60.0921 70.0637 60.4089 70.0759 60.7275 70.087H62.7655C63.1034 70.087 63.4325 70.0693 63.7598 70.0518C64.0838 70.0345 64.406 70.0172 64.7334 70.0172C65.5964 69.9894 66.4936 69.9986 67.3939 70.0079C67.8453 70.0126 68.2974 70.0172 68.7464 70.0172ZM75.6728 65.0459V68.8319C74.556 68.8379 73.4341 68.84 72.3169 68.8421C70.8209 68.845 69.3334 68.8478 67.878 68.8598H63.914C63.4572 68.8598 63.0035 68.8543 62.5538 68.8488C61.666 68.838 60.7938 68.8274 59.9431 68.8598C59.6529 68.8709 59.3627 68.883 59.072 68.8951C58.0789 68.9366 57.0801 68.9783 56.0562 68.9783L52.0642 68.9156L44.0803 68.7761H40.1164L36.2015 68.9086C34.8988 68.9574 33.5682 68.9574 32.2445 68.9574L28.2736 68.9156C27.2949 68.9182 26.3159 68.9219 25.3368 68.9257C21.2254 68.9416 17.1105 68.9574 12.9956 68.8849C13.0154 68.0853 13.056 67.2862 13.0965 66.4873C13.1752 64.9359 13.2539 63.385 13.1812 61.8316C13.0681 60.5635 13.0353 59.2897 13.0832 58.0176C13.1017 57.8071 13.1265 57.5959 13.1513 57.3844C13.2012 56.9583 13.2512 56.5312 13.2512 56.1071V54.2037L13.3073 46.5339V42.72L13.4053 38.9549C13.412 38.5477 13.4237 38.1413 13.4354 37.7354C13.4603 36.8691 13.4852 36.005 13.4613 35.1409C13.4471 33.8637 13.3629 32.5881 13.2092 31.32C13.1999 31.2142 13.1902 31.1085 13.1804 31.0027C13.1318 30.474 13.0832 29.9452 13.0832 29.4165C13.0412 28.7804 13.0412 28.1422 13.0832 27.506C13.1219 27.0678 13.1756 26.6296 13.2294 26.191C13.3313 25.3597 13.4333 24.5274 13.4333 23.6921C13.4291 22.1465 13.3189 20.6164 13.208 19.0751C13.1362 18.0785 13.0641 17.0773 13.0201 16.0642C12.934 14.0808 13.0258 12.118 13.1175 10.16C13.1327 9.83461 13.1479 9.5094 13.1623 9.18425C18.2338 9.23409 23.2995 9.12279 28.3716 8.91045C31.0333 8.79657 33.6995 8.84313 36.3555 9.0499C38.0705 9.15745 39.7825 9.18723 41.4935 9.217C42.4447 9.23355 43.3956 9.2501 44.3465 9.27999C46.4026 9.34463 48.4588 9.33852 50.5182 9.3324C51.1243 9.3306 51.7306 9.3288 52.3374 9.3288C53.0027 9.36366 53.668 9.34971 54.3333 9.3288C54.9987 9.30788 55.664 9.28696 56.3293 9.23815C56.757 9.21574 57.1847 9.18685 57.6124 9.15795C58.5154 9.09695 59.4183 9.03595 60.3213 9.03595C62.8358 8.96687 65.3488 9.04058 67.8616 9.11428C70.4089 9.189 72.9561 9.26371 75.5047 9.18968V10.2561L75.4487 12.1387L75.3296 15.9038C75.3086 17.1589 75.3086 18.4139 75.3926 19.6829L75.5047 21.5864V23.4829C75.5047 24.1166 75.4641 24.7432 75.4236 25.3672C75.3835 25.986 75.3436 26.6022 75.3436 27.2202C75.3115 28.4879 75.3489 29.7565 75.4557 31.0202C75.5235 32.2649 75.4813 33.5131 75.3296 34.7504C75.2382 35.9969 75.2382 37.2483 75.3296 38.4947C75.4627 41.0745 75.5887 43.6543 75.5887 46.1644L75.5117 49.8877C75.4977 51.1358 75.5607 52.4257 75.6308 53.7295C75.775 55.9847 75.7336 58.1167 75.6924 60.2401C75.6856 60.5917 75.6787 60.943 75.6728 61.2947V65.0459ZM75.5047 9.18968C75.7708 9.18195 76.0369 9.1726 76.3031 9.16146L75.5047 8.35962V9.18968ZM13.1623 9.18425C13.174 8.92097 13.1851 8.65773 13.1952 8.39448L12.3898 9.1754C12.6473 9.17877 12.9048 9.18172 13.1623 9.18425ZM12.9956 68.8849C12.796 68.8814 12.5964 68.8777 12.3968 68.8738L12.9851 69.4594C12.9872 69.2679 12.9908 69.0764 12.9956 68.8849Z" fill="#DEE4F5"/>
<g opacity="0.5">
<path d="M18.1406 13.9027H70.4912V63.9023H18.1406V13.9027Z" fill="#DEE4F5"/>
<path fill-rule="evenodd" clip-rule="evenodd" d="M64.2579 64.2998H70.8832C70.8806 63.5093 70.8838 62.713 70.8871 61.9135C70.8926 60.5759 70.8981 59.2291 70.8762 57.8851C70.8686 57.42 70.859 56.9547 70.8495 56.4903C70.815 54.8103 70.7808 53.1437 70.8412 51.5541C70.8903 50.2589 70.8739 48.9155 70.8574 47.5673C70.848 46.8034 70.8386 46.0379 70.8412 45.2788C70.8482 43.1801 70.8902 41.1302 70.9602 39.0385C70.9602 38.6813 70.9649 38.3288 70.9696 37.9779C70.9789 37.2807 70.9882 36.5896 70.9602 35.8799C70.9573 35.8054 70.9543 35.7308 70.9513 35.6563C70.9118 34.6651 70.8726 33.6812 70.9182 32.7214C70.9649 31.3269 70.9493 29.9324 70.9338 28.5379C70.926 27.8407 70.9182 27.1434 70.9182 26.4462C70.9392 25.4073 70.9812 24.3684 71.0373 23.3155C71.0933 22.2627 71.0933 21.2238 71.0933 20.171L71.0513 17.0124V15.4366V13.8609C71.0554 13.5568 70.817 13.3041 70.512 13.2891H70.47C68.8513 13.2269 67.2287 13.2649 65.608 13.3028C65.048 13.3159 64.4881 13.329 63.9288 13.3379C63.2325 13.3491 62.5362 13.3659 61.8396 13.3828C60.3574 13.4186 58.8741 13.4545 57.3876 13.4355C56.5857 13.4253 55.7838 13.4047 54.9823 13.3842C53.5997 13.3487 52.2181 13.3133 50.8394 13.331C50.022 13.3414 49.2036 13.3489 48.385 13.3565C47.0222 13.369 45.6588 13.3815 44.2982 13.4076L44.267 13.4082C42.0992 13.4499 39.9246 13.4917 37.757 13.561L34.4794 13.6447H31.2088C29.0307 13.5959 26.8526 13.5959 24.6676 13.5959C23.9387 13.5959 23.2106 13.5913 22.483 13.5866C21.0294 13.5773 19.5779 13.568 18.1264 13.5959C17.986 13.5997 17.8742 13.7141 17.8743 13.8539C17.8769 14.0148 17.8797 14.1757 17.8824 14.3366C17.9152 16.2674 17.9481 18.1983 17.9093 20.1291L17.7412 26.4043C17.9486 29.0322 17.8584 31.6711 17.7686 34.2985C17.7159 35.8398 17.6634 37.3772 17.6712 38.906C17.6826 41.1689 17.6585 43.4465 17.6343 45.7307C17.6142 47.62 17.5941 49.5138 17.5941 51.4076V52.9276C17.5941 53.1848 17.615 53.4436 17.6359 53.7033C17.657 53.9648 17.6782 54.2271 17.6782 54.4895C17.6933 55.5319 17.6559 56.5744 17.5661 57.6132C17.5109 58.8819 17.551 60.1507 17.5911 61.4194C17.6171 62.2424 17.6431 63.0654 17.6431 63.8884C17.645 64.0178 17.6984 64.1413 17.7917 64.2315C17.8849 64.3217 18.0104 64.3713 18.1404 64.3695C20.9156 64.3518 23.6992 64.4068 26.4894 64.4619C28.1071 64.4939 29.727 64.5259 31.3488 64.5438L34.6405 64.4671C35.0041 64.4671 35.3678 64.4625 35.732 64.4578C36.4619 64.4485 37.1938 64.4392 37.9321 64.4671C38.6705 64.4671 39.4121 64.4764 40.1529 64.4857C41.6322 64.5043 43.1084 64.5229 44.5503 64.4671L51.0915 64.3137L54.3481 64.244C55.4406 64.237 56.5612 64.23 57.6887 64.2998C58.4439 64.3465 59.1834 64.3306 59.9093 64.315C60.2672 64.3074 60.6218 64.2998 60.9733 64.2998H64.2579ZM70.0918 57.3203V63.5119C69.8523 63.5126 69.6129 63.5132 69.3735 63.5138C67.4564 63.5187 65.5437 63.5235 63.6697 63.6165H60.4201C60.0489 63.6165 59.6792 63.6117 59.312 63.6071C58.5844 63.5978 57.8662 63.5887 57.1635 63.6165L53.9629 63.6862L50.6923 63.6443L44.1511 63.5467C41.966 63.484 39.823 63.5467 37.6799 63.6234C36.2515 63.6746 34.8013 63.6575 33.35 63.6405C32.624 63.632 31.8977 63.6234 31.1738 63.6234C29.729 63.6234 28.2834 63.6312 26.8376 63.6389C24.0778 63.6537 21.3171 63.6685 18.5591 63.6294C18.5716 62.9502 18.5977 62.2711 18.6238 61.5919C18.6732 60.3075 18.7226 59.0231 18.6796 57.7387C18.6026 56.6993 18.5816 55.6566 18.6166 54.615C18.629 54.4294 18.6468 54.2438 18.6645 54.0585C18.6966 53.7217 18.7287 53.386 18.7287 53.0532V51.4913C18.7517 49.7807 18.7558 48.0735 18.7599 46.3661C18.7658 43.9118 18.7718 41.4568 18.8337 38.9897C18.9257 36.8974 18.8835 34.8014 18.7077 32.7144C18.6108 31.6761 18.5874 30.6323 18.6376 29.5908C18.6621 29.2303 18.6968 28.8682 18.7316 28.5049C18.7965 27.8282 18.8617 27.1477 18.8617 26.4671C18.8617 25.1656 18.7858 23.864 18.7099 22.5625C18.6638 21.7723 18.6177 20.9821 18.5886 20.1919C18.5282 18.5524 18.5926 16.9129 18.657 15.2734C18.6674 15.0089 18.6778 14.7444 18.6876 14.4799C22.8642 14.5173 27.047 14.4472 31.2298 14.3001C31.5942 14.3001 31.9587 14.2962 32.3228 14.2924C33.0504 14.2846 33.777 14.2769 34.5004 14.3001L37.778 14.4187C39.9561 14.5232 42.1411 14.579 44.3192 14.579C45.045 14.579 45.7707 14.5767 46.4967 14.5744C47.9496 14.5697 49.4034 14.5651 50.8604 14.579C52.0881 14.5908 53.3159 14.5321 54.5424 14.4735C55.4987 14.4277 56.4543 14.3821 57.4086 14.3698C58.6525 14.3539 59.8963 14.3744 61.1415 14.3949C62.0767 14.4102 63.0126 14.4256 63.9498 14.4256C64.6787 14.4256 65.4068 14.4349 66.1343 14.4442C67.4079 14.4605 68.6799 14.4768 69.9517 14.4431V15.4436V16.9915L69.8817 20.0873C69.8195 21.289 69.8752 22.5225 69.931 23.7574C69.9693 24.6075 70.0078 25.4583 70.0078 26.2998C70.0078 26.988 69.9883 27.6723 69.9688 28.3564C69.9299 29.7238 69.8911 31.0901 70.0078 32.4843C70.0505 33.5077 70.0224 34.5327 69.9237 35.5522C69.8675 36.5788 69.8675 37.6076 69.9237 38.6341C69.9409 39.0288 69.9598 39.4261 69.9788 39.8244C70.0604 41.5367 70.1429 43.2689 70.0918 44.9093C70.0288 46.9313 70.0218 48.9882 70.0918 51.1148C70.1387 52.5395 70.1228 53.9392 70.1071 55.3117C70.0994 55.9879 70.0918 56.6575 70.0918 57.3203ZM69.9517 14.4431C70.1315 14.4383 70.3112 14.4325 70.491 14.4256L69.9517 13.8887V14.4431ZM18.6876 14.4799C18.6946 14.2921 18.7014 14.1044 18.7077 13.9166L18.1474 14.4744C18.3275 14.4765 18.5075 14.4783 18.6876 14.4799ZM18.5591 63.6294C18.4265 63.6276 18.294 63.6256 18.1614 63.6234L18.5536 64.0139C18.5549 63.8857 18.5567 63.7576 18.5591 63.6294Z" fill="#DEE4F5"/>
</g>
<rect x="24.2812" y="23.1134" width="15.5126" height="17.0965" rx="7.75629" fill="#DEE4F5"/>
<path fill-rule="evenodd" clip-rule="evenodd" d="M26.0387 37.8881C27.6176 39.5215 29.7917 40.4516 32.0686 40.4679C33.1908 40.4615 34.2996 40.2241 35.3252 39.7707C35.8358 39.5248 36.3173 39.2231 36.7609 38.8712C36.9926 38.7153 37.2126 38.5429 37.4192 38.3552C37.6352 38.1786 37.8366 37.9851 38.0215 37.7765C38.7776 36.9472 39.3397 35.9614 39.6673 34.8899L39.8634 34.102C39.8793 33.9991 39.8973 33.8951 39.9153 33.7905C39.9449 33.6189 39.9747 33.4456 39.9965 33.2723C40.0595 32.7145 40.0595 32.1707 40.0595 31.6338V30.818L40.0105 29.9883C39.9944 29.8968 39.9806 29.8045 39.9668 29.7125C39.9386 29.524 39.9105 29.3366 39.8634 29.1586C39.8466 29.0948 39.8302 29.0303 39.8136 28.9655C39.7615 28.7607 39.7085 28.5527 39.6393 28.3567C39.2796 27.2976 38.6997 26.3259 37.9375 25.505C37.1654 24.7068 36.2418 24.0693 35.2202 23.6294C34.2056 23.1724 33.1052 22.9348 31.9916 22.9321C30.8779 22.9536 29.7789 23.1904 28.756 23.6294C27.738 24.0822 26.8266 24.7426 26.0807 25.5677C25.3132 26.3821 24.7325 27.3527 24.3789 28.4125L24.1547 29.2213C24.1403 29.3146 24.1202 29.4087 24.0999 29.5033C24.061 29.6845 24.0217 29.8678 24.0217 30.051C23.9727 30.6158 23.9727 31.1597 23.9727 31.6965V32.4914L24.0077 33.3351C24.0215 33.4271 24.0324 33.5192 24.0432 33.611C24.065 33.7973 24.0868 33.9826 24.1337 34.1648C24.1579 34.2587 24.1805 34.3535 24.203 34.4486C24.2458 34.6286 24.2888 34.8096 24.3438 34.9875C24.6891 36.0661 25.2676 37.0561 26.0387 37.8881ZM37.5733 37.3791C36.2029 38.9902 34.1892 39.9186 32.0686 39.9171V39.931C29.9297 39.9936 27.8748 39.101 26.4659 37.4976C24.9844 35.9399 24.2582 33.8168 24.4769 31.6826C24.4909 31.1387 24.5189 30.6019 24.575 30.0859C24.5862 29.9827 24.6063 29.8795 24.6265 29.7763C24.6568 29.6215 24.687 29.4667 24.687 29.3119C24.7444 29.0478 24.8169 28.787 24.9041 28.531C25.2803 27.5646 25.8073 26.6633 26.4659 25.8606C27.1588 25.0797 28.0144 24.4587 28.9731 24.0408C29.4453 23.8269 29.9381 23.661 30.4438 23.5457C30.7008 23.4949 30.9603 23.4577 31.2212 23.4341H31.9986C33.0449 23.4116 34.0852 23.5965 35.0591 23.978C36.0156 24.4088 36.8682 25.0389 37.5593 25.8257C38.2783 26.5909 38.8272 27.4985 39.1701 28.4892C39.2541 28.7332 39.3382 28.9842 39.3872 29.2422C39.4152 29.3896 39.4341 29.5371 39.4529 29.6845C39.4671 29.795 39.4812 29.9056 39.4993 30.0162V30.7971V31.6129C39.5577 32.663 39.4321 33.7153 39.1281 34.7226C38.7913 35.7017 38.2628 36.6046 37.5733 37.3791Z" fill="#DEE4F5"/>
<rect x="32.0352" y="31.6616" width="20.2609" height="22.3259" fill="white"/>
<path fill-rule="evenodd" clip-rule="evenodd" d="M50.8124 54.1734C51.3859 54.1781 51.9592 54.1827 52.5262 54.1827C52.5262 53.2345 52.5262 52.3211 52.4492 51.331L52.4141 49.8947L52.4492 48.5002C52.4843 47.9485 52.4726 47.3611 52.4607 46.7674C52.4536 46.4155 52.4466 46.0614 52.4492 45.7112C52.4525 45.264 52.47 44.8231 52.4875 44.3832C52.5069 43.8973 52.5262 43.4126 52.5262 42.9222L52.5472 41.3882L52.5962 39.9937C52.5472 39.0664 52.5472 38.1042 52.5962 37.2048C52.6453 36.3053 52.6593 35.3292 52.5962 34.4158C52.5635 33.9412 52.578 33.4609 52.5926 32.977C52.6062 32.5295 52.6198 32.079 52.5962 31.6268C52.5887 31.4678 52.4549 31.3439 52.2951 31.3479C52.0925 31.3546 51.89 31.3616 51.6875 31.3686C50.2022 31.4198 48.7169 31.4711 47.2316 31.4037H45.964H44.6964H42.1611C41.5185 31.409 40.8748 31.4304 40.2309 31.4519C39.1837 31.4869 38.1358 31.5219 37.0906 31.4873H32.0272C31.9552 31.4908 31.8976 31.5481 31.8941 31.6198C31.8941 31.9287 31.8964 32.2375 31.8988 32.5466C31.9034 33.1656 31.9081 33.7857 31.8941 34.4088C31.887 34.7223 31.8776 35.035 31.8682 35.3472C31.8496 35.9654 31.8311 36.5816 31.8311 37.1978C31.8731 37.658 31.8731 38.1251 31.8731 38.5923L31.8101 39.9868V42.7758C31.8101 43.3966 31.8038 44.0174 31.7976 44.6379C31.7852 45.8783 31.7727 47.1175 31.8101 48.3537C31.8661 48.9722 31.8474 49.5938 31.8287 50.2144C31.8194 50.5242 31.8101 50.8339 31.8101 51.1427V53.9317C31.8101 54.0704 31.9229 54.1827 32.0622 54.1827C32.7082 54.1827 33.3571 54.2018 34.0069 54.2209C35.0689 54.2522 36.1328 54.2835 37.1887 54.2315C38.0291 54.1827 38.8835 54.1688 39.7519 54.2315C40.3314 54.2734 40.8984 54.2594 41.4634 54.2454C41.7451 54.2385 42.0262 54.2315 42.3082 54.2315C42.5745 54.2239 42.8398 54.2155 43.1046 54.2072C44.525 54.1624 45.932 54.1181 47.4137 54.1827C48.5158 54.1548 49.6647 54.1641 50.8124 54.1734ZM52.127 51.0033V53.7923H52.099C51.7048 53.789 51.3138 53.7903 50.9238 53.7917C49.6578 53.7961 48.4033 53.8004 47.0915 53.6459C46.0091 53.7062 44.8862 53.6862 43.7603 53.666C43.1961 53.656 42.6311 53.6459 42.0701 53.6459C41.7894 53.6459 41.5088 53.6404 41.2286 53.635C40.6699 53.6241 40.1133 53.6133 39.5629 53.6459C38.7364 53.6947 37.903 53.6947 37.0626 53.6947H32.2113C32.2133 53.4821 32.2132 53.2692 32.2132 53.0561C32.213 52.3972 32.2128 51.7369 32.2723 51.08C32.3163 50.5945 32.2969 50.1091 32.2776 49.6227C32.2599 49.1798 32.2422 48.7362 32.2723 48.291C32.3227 47.1781 32.3278 46.0626 32.3328 44.9462C32.3362 44.2021 32.3395 43.4576 32.3563 42.713C32.3563 42.4011 32.3657 42.0899 32.375 41.7792C32.3937 41.1594 32.4123 40.5417 32.3563 39.924C32.3455 39.7792 32.3319 39.6345 32.3184 39.4899C32.2883 39.168 32.2583 38.8471 32.2583 38.5295C32.2715 38.0631 32.3089 37.5976 32.3703 37.135C32.4076 36.4303 32.3559 35.7216 32.3043 35.0149C32.288 34.7917 32.2717 34.5687 32.2583 34.346C32.224 33.7791 32.2474 33.2095 32.2707 32.6406C32.2817 32.3719 32.2927 32.1034 32.2976 31.8353C33.8953 31.8705 35.493 31.8648 37.0906 31.7592C38.1173 31.6914 39.1465 31.7396 40.1751 31.7878C40.8376 31.8189 41.4999 31.8499 42.1611 31.8499H44.6894H45.957L47.2246 31.8011C48.3498 31.7267 49.475 31.7515 50.6003 31.7763C51.0655 31.7865 51.5308 31.7968 51.9961 31.8C51.9786 32.3283 51.9877 32.8461 51.9969 33.3697C52.0024 33.6803 52.0079 33.993 52.0079 34.3112C52.0079 34.6294 52.0008 34.9428 51.9938 35.2542C51.9798 35.8709 51.9661 36.4794 52.0079 37.1002C52.0583 38.0292 52.0583 38.9602 52.0079 39.8892C52.0139 40.0845 52.0236 40.2811 52.0334 40.4785C52.0466 40.746 52.0599 41.0148 52.064 41.2837C52.0676 41.5264 52.0448 41.7578 52.022 41.9887C52.0009 42.2022 51.9799 42.4152 51.9799 42.6363L52.078 45.4253C52.078 45.7529 52.0708 46.0685 52.0637 46.3797C52.0498 46.9893 52.0362 47.5819 52.078 48.2143L52.127 49.6088V51.0033ZM51.9961 31.8C52.0935 31.8007 52.1908 31.8011 52.2881 31.8011L52.0079 31.5222C52.0031 31.6152 51.9992 31.7078 51.9961 31.8ZM32.2976 31.8353C32.2993 31.7425 32.3003 31.6497 32.3003 31.557L32.0272 31.829C32.1173 31.8312 32.2075 31.8333 32.2976 31.8353ZM32.2113 53.6947H32.0272L32.2093 53.869C32.2101 53.8109 32.2108 53.7528 32.2113 53.6947Z" fill="white"/>
<path d="M56.0287 41.444L49.1934 54.6917L64.3558 54.2036L56.4349 41.4231C56.3907 41.3509 56.3104 41.3086 56.2255 41.3129C56.1407 41.3173 56.0651 41.3676 56.0287 41.444Z" fill="#DEE4F5"/>
<path fill-rule="evenodd" clip-rule="evenodd" d="M56.1687 41.0327C55.9958 41.055 55.8458 41.1625 55.7695 41.3185C55.6019 41.6543 55.4311 41.9902 55.2602 42.3262C54.8669 43.0994 54.4731 43.8737 54.1167 44.6514L53.2273 46.3038L52.4079 47.9703C52.1809 48.4059 51.9678 48.8457 51.7557 49.2836C51.4245 49.9672 51.0957 50.6459 50.72 51.2961C50.6012 51.5158 50.4745 51.732 50.3475 51.9485C50.1601 52.268 49.9724 52.5882 49.8096 52.9207C49.5365 53.4785 49.2213 54.0154 48.9061 54.5523C48.8959 54.5982 48.8959 54.6458 48.9061 54.6917C48.9023 54.7713 48.9305 54.8491 48.9843 54.9079C49.0382 54.9668 49.1134 55.0019 49.1933 55.0055C49.9371 55.0423 50.681 54.9975 51.4235 54.9528C51.9462 54.9213 52.4683 54.8898 52.9891 54.887C53.6514 54.8833 54.3137 54.8604 54.977 54.8375C55.5762 54.8167 56.1763 54.796 56.778 54.7894C57.566 54.7807 58.3513 54.7235 59.1356 54.6664C59.6129 54.6317 60.0899 54.5969 60.5668 54.5732C60.7767 54.5732 60.9873 54.5794 61.1982 54.5856C61.6207 54.598 62.0443 54.6104 62.4648 54.5732L64.3627 54.4826C64.4103 54.4826 64.4568 54.468 64.4958 54.4407C64.5588 54.4034 64.6035 54.3418 64.6194 54.2705C64.6353 54.1993 64.621 54.1246 64.5798 54.0642L63.5293 52.4257C63.1978 51.8911 62.8686 51.3333 62.5418 50.7523L60.5388 47.4194C60.2307 46.8686 59.8945 46.3108 59.5303 45.76C59.4332 45.6131 59.3361 45.4681 59.2394 45.324C58.9739 44.9277 58.7123 44.5374 58.4658 44.1284L57.4293 42.4829L56.9111 41.6602C56.904 41.6483 56.8971 41.6367 56.8904 41.6254C56.8108 41.4911 56.7536 41.3945 56.6309 41.2209C56.522 41.0801 56.3455 41.0082 56.1687 41.0327ZM56.2306 41.6254C56.2403 41.6068 56.25 41.5882 56.2597 41.5695C56.2667 41.5695 56.1897 41.5626 56.1897 41.5626L56.2306 41.6254ZM63.9224 53.9913L62.0376 51.0451C61.7106 50.5307 61.4034 50.0103 61.0969 49.4908C60.7469 48.8978 60.3977 48.3061 60.0206 47.7262C59.9062 47.5426 59.7902 47.3598 59.6743 47.177C59.4424 46.8113 59.2105 46.4456 58.9911 46.0738C58.8895 45.9017 58.79 45.7283 58.6904 45.5547C58.4671 45.1658 58.2436 44.7764 57.9966 44.4004L56.9601 42.7618L56.4348 41.9391L56.2306 41.6254C56.0969 41.8823 55.9638 42.1395 55.8308 42.3967C55.4027 43.2242 54.9746 44.0517 54.5229 44.8675L53.7385 46.5618L52.8981 48.2213C52.428 49.0988 51.9657 49.9785 51.5037 50.8579C50.8733 52.0575 50.2434 53.2564 49.5946 54.4476C49.4514 54.4477 49.3083 54.4477 49.1653 54.4477H49.1653L49.3964 54.8103C49.4627 54.6895 49.5288 54.5686 49.5946 54.4476C50.7135 54.4469 51.8373 54.4406 52.9611 54.3849C53.5315 54.3567 54.1004 54.3539 54.6685 54.3511C55.3631 54.3476 56.0566 54.3442 56.75 54.2943C57.5152 54.2393 58.283 54.2279 59.0503 54.2166C59.547 54.2093 60.0434 54.2019 60.5388 54.1827C61.1691 54.1583 61.8012 54.1183 62.4333 54.0782C62.9299 54.0467 63.4266 54.0152 63.9224 53.9913ZM63.9224 53.9913L64.1386 54.3292L64.3277 53.9736C64.1927 53.9788 64.0576 53.9847 63.9224 53.9913Z" fill="#DEE4F5"/>
<ellipse cx="74.0262" cy="68.0301" rx="13.6707" ry="14.2796" fill="#DEE4F5" stroke="#DEE4F5" stroke-width="2" stroke-linecap="round" stroke-linejoin="round"/>
<path d="M74.0273 60.8903V75.1699" stroke="white" stroke-width="3" stroke-linecap="round" stroke-linejoin="round"/>
<path d="M79.3976 68.0301L74.0259 60.8903L68.6543 68.0301" stroke="white" stroke-width="3" stroke-linecap="round" stroke-linejoin="round"/>
</svg>
