<svg width="322" height="322" viewBox="0 0 322 322" fill="none" xmlns="http://www.w3.org/2000/svg">
<path d="M161.712 266.434C219.941 266.434 267.146 219.229 267.146 161C267.146 102.769 219.941 55.5664 161.712 55.5664C103.481 55.5664 56.2783 102.769 56.2783 161C56.2783 219.229 103.481 266.434 161.712 266.434Z" fill="#F0F1F2"/>
<path d="M140.341 180.947L178.525 44.7381C179.665 40.7487 182.372 37.4717 185.934 35.6195L174.536 154.731L148.889 183.797L140.341 180.947Z" fill="#828A91"/>
<path d="M154.303 187.643C155.016 185.364 154.161 182.942 152.166 181.374L144.615 176.388C143.618 175.675 142.335 175.248 141.195 175.248C138.916 175.248 136.779 176.673 135.924 178.667L121.249 212.292C118.826 217.849 114.695 222.265 109.423 225.115C107.571 226.112 105.434 226.825 103.439 227.395C91.1857 230.672 82.3521 242.497 83.6344 256.033C84.7742 268.428 94.6052 278.687 107.001 280.254C118.684 281.679 129.227 275.695 134.214 266.434L140.056 257.315C142.05 254.181 141.908 250.334 139.913 247.199C138.346 244.919 137.918 242.212 138.773 239.505L154.303 187.643ZM110.42 272.133C100.162 272.133 91.8981 263.869 91.8981 253.611C91.8981 243.352 100.162 235.089 110.42 235.089C120.679 235.089 128.942 243.352 128.942 253.611C128.942 263.869 120.679 272.133 110.42 272.133Z" fill="url(#paint0_linear)"/>
<path d="M203.031 55.5664H46.3057V143.903H203.031V55.5664Z" fill="#1F1F1F"/>
<path d="M191.632 66.9646H57.7031V132.504H191.632V66.9646Z" fill="black"/>
<path d="M176.673 79.7876H172.398V85.4867H176.673V79.7876ZM176.673 91.1858H172.398V96.885H176.673V91.1858ZM176.673 102.584H172.398V108.283H176.673V102.584ZM176.673 113.982H172.398V119.681H176.673V113.982ZM176.673 66.9646H172.398V74.0885H176.673V66.9646ZM176.673 125.381H172.398V132.504H176.673V125.381Z" fill="white"/>
<path d="M177.385 180.947L139.201 44.7381C138.061 40.7487 135.354 37.4717 131.792 35.6195L143.19 154.731L168.836 183.797L177.385 180.947Z" fill="#D2D5D9"/>
<path d="M134.927 49.1549L159.718 137.776C160.573 140.911 163.422 143.19 166.699 143.19L139.201 44.8806C138.061 40.7487 135.354 37.4717 131.792 35.6195L132.647 44.3107C133.644 45.7354 134.499 47.4452 134.927 49.1549Z" fill="#E8E9EB"/>
<path d="M157.438 158.15C158.572 158.15 159.659 157.7 160.461 156.899C161.262 156.097 161.713 155.01 161.713 153.876C161.713 152.743 161.262 151.655 160.461 150.854C159.659 150.052 158.572 149.602 157.438 149.602C156.305 149.602 155.218 150.052 154.416 150.854C153.614 151.655 153.164 152.743 153.164 153.876C153.164 155.01 153.614 156.097 154.416 156.899C155.218 157.7 156.305 158.15 157.438 158.15Z" fill="#828A91"/>
<path d="M214.43 228.962C212.293 228.392 210.298 227.68 208.446 226.682C203.174 223.833 198.9 219.273 196.62 213.859L181.945 180.235C180.805 178.097 178.81 176.673 176.531 176.673C175.248 176.673 174.108 177.1 173.111 177.812L165.56 182.799C163.708 184.224 162.853 186.646 163.423 189.068L179.095 240.93C179.808 243.495 179.38 246.344 177.955 248.624C175.961 251.616 175.818 255.605 177.813 258.74L181.517 264.581C184.509 264.012 187.501 263.299 190.351 262.444C189.354 260.165 188.784 257.6 188.784 255.035C188.784 244.777 197.047 236.513 207.306 236.513C214.43 236.513 220.556 240.503 223.691 246.344C225.97 244.635 228.25 242.925 230.387 240.93C226.825 235.089 221.126 230.814 214.43 228.962Z" fill="url(#paint1_linear)"/>
<path fill-rule="evenodd" clip-rule="evenodd" d="M104.5 113.826L90.5942 121L93.25 105.804L82 95.0426L97.5471 92.8255L104.5 79L111.453 92.8255L127 95.0426L115.75 105.804L118.406 121L104.5 113.826Z" fill="white" stroke="white" stroke-width="2" stroke-linejoin="round"/>
<defs>
<linearGradient id="paint0_linear" x1="83.5107" y1="175.248" x2="162.032" y2="180.945" gradientUnits="userSpaceOnUse">
<stop offset="0.0501562" stop-color="#49E3D7"/>
<stop offset="1" stop-color="#42CEA9"/>
</linearGradient>
<linearGradient id="paint1_linear" x1="163.248" y1="176.673" x2="237.348" y2="182.754" gradientUnits="userSpaceOnUse">
<stop offset="0.0501562" stop-color="#49E3D7"/>
<stop offset="1" stop-color="#42CEA9"/>
</linearGradient>
</defs>
</svg>
