<svg width="155" height="42" viewBox="0 0 155 42" fill="none" xmlns="http://www.w3.org/2000/svg"><path fill-rule="evenodd" clip-rule="evenodd" d="M139.581 27.18c-1.242.333-2.476.22-3.704-.337-1.255-.627-2.214-1.63-2.875-3.012-.662-1.382-1.095-2.94-1.3-4.676a30.57 30.57 0 0 1-.174-5.156c.089-1.701.256-3.199.502-4.492a42.635 42.635 0 0 1-3.366-.184c-1.18-.109-2.214-.313-3.101-.612.614-.34 1.539-.633 2.773-.878a51.724 51.724 0 0 1 4.185-.633c.191-.735.512-1.63.962-2.685a14.09 14.09 0 0 1 1.647-2.89c.648-.87 1.361-1.398 2.138-1.582.778-.184 1.597.221 2.456 1.215.409.517.655 1.249.737 2.195.082.946.041 2.018-.123 3.216 1.637-.055 2.984-.065 4.041-.03 1.058.033 1.62.105 1.689.214.232.707.064 1.266-.502 1.674-.566.408-1.374.704-2.425.888a22.61 22.61 0 0 1-3.396.317c-.492 2.096-1.068 3.913-1.73 5.451-.661 1.539-1.524 2.811-2.588 3.819.354 1.647.927 2.715 1.719 3.205.791.49 1.695.582 2.711.276 1.016-.306 2.05-.84 3.1-1.603a28.372 28.372 0 0 0 2.906-2.41 51.246 51.246 0 0 0 2.128-2.123c.45-.449.727-.46.829-.03.102.428-.106 1.249-.624 2.46-.519 1.116-1.214 2.26-2.087 3.43a17.253 17.253 0 0 1-2.988 3.114c-1.119.905-2.299 1.525-3.54 1.858zm-122.78.01c-.15-1.484-.185-3.186-.103-5.105.082-1.92.205-3.92.369-6.003.027-.504.06-1.014.102-1.532.532-.53.695-1.272.49-2.225-.026-.068-.142-.123-.347-.164.136-2.164.174-4.131.113-5.9-.062-1.77-.321-3.176-.778-4.217-.457-1.041-1.197-1.542-2.22-1.5-.219.122-.566 1.3-1.044 3.532-.477 2.232-.866 4.907-1.166 8.024-1.801.095-3.65.28-5.546.551.164-1.878.205-3.607.123-5.186-.082-1.579-.372-2.869-.87-3.87-.498-1-1.306-1.582-2.425-1.745-.232.095-.6 1.34-1.105 3.737-.505 2.395-.887 5.2-1.146 8.412-.518.231-.934.476-1.248.735.355.19.744.347 1.166.47-.109 2.11-.054 4.087.164 5.931.218 1.845.682 3.325 1.392 4.441.709 1.117 1.746 1.654 3.11 1.613-.15-1.388-.167-2.964-.051-4.726.116-1.763.276-3.59.48-5.483l.124-1.164c.109 0 .28.014.511.041.519.055 1.235.113 2.149.174.914.061 1.896.078 2.947.05-.055 2.015.054 3.877.327 5.585.273 1.709.767 3.07 1.484 4.084.716 1.014 1.715 1.494 2.997 1.44zm6.606-1.838c1.678.53 3.161.667 4.45.408 1.29-.258 2.415-.782 3.377-1.572a12.557 12.557 0 0 0 2.472-2.724c.128.449.285.887.472 1.315.538 1.239 1.313 2.212 2.322 2.92 1.01.708 2.251.98 3.724.817-.654.83-1.306 1.83-1.954 3.001a19.588 19.588 0 0 0-1.575 3.706c-.403 1.3-.57 2.556-.502 3.768a5.265 5.265 0 0 0 1.29 3.205c.832.885 1.708 1.26 2.629 1.123.92-.136 1.794-.571 2.62-1.306a10.557 10.557 0 0 0 2.056-2.471c.982-1.742 1.66-3.75 2.036-6.024.375-2.273.583-4.43.624-6.472 1.2-.667 2.333-1.59 3.397-2.767 1.064-1.177 1.93-2.317 2.599-3.42.668-1.103 1.006-1.892 1.013-2.369.007-.476-.433-.354-1.32.368-.218.177-.464.381-.737.613-.6.517-1.241 1.048-1.923 1.592-.682.545-1.293.963-1.832 1.256-.539.293-.904.33-1.095.112-.204-.34-.32-.956-.347-1.848a52.325 52.325 0 0 1 0-2.93l.04-1.45c-.027-.843-.245-1.493-.654-1.95-.41-.456-.853-.67-1.33-.643-.478.027-.812.347-1.003.96-.164.653-.3 1.484-.41 2.491a31.644 31.644 0 0 1-.572 3.42c-.26 1.164-.69 2.165-1.29 3.002-.6.837-1.48 1.317-2.64 1.44-.545-.137-.927-.606-1.145-1.41-.219-.803-.341-1.715-.369-2.736a44.155 44.155 0 0 1 0-2.695c.014-.259.02-.483.02-.674 0-1.17-.163-1.977-.49-2.42-.328-.442-.727-.619-1.197-.53-.471.088-.921.35-1.351.786a4.24 4.24 0 0 0-.972 1.552 10.838 10.838 0 0 0-.558 3.197c-.198.182-.407.372-.626.57-.941.85-1.95 1.623-3.028 2.317-.696.436-1.494.766-2.395.99-.9.225-1.732.201-2.496-.07-.764-.273-1.276-.927-1.535-1.961 0-.027.123-.048.368-.061.423-.014 1.04-.089 1.852-.225s1.651-.412 2.517-.827c.867-.415 1.607-1.051 2.22-1.909.615-.858.928-2.015.942-3.471-.04-1.28-.529-2.148-1.463-2.604-.935-.456-2.06-.547-3.377-.275-1.316.272-2.571.857-3.765 1.756-1.194.898-2.077 2.072-2.65 3.522-.573 1.45-.587 3.127-.04 5.033a9.349 9.349 0 0 0 1.35 2.726 5.664 5.664 0 0 0 2.25 1.848zm9.875-7.36c-.007.266-.005.534.005.806.036.926.176 1.815.419 2.666l.014-.022a24.613 24.613 0 0 0 1.78-3.114c.519-1.103.686-1.817.502-2.144-.184-.327-.501-.286-.952.123l-.122.122c-.44.439-.989.96-1.646 1.564zm-8.402-2.635c-.778.592-1.426 1.466-1.944 2.623.081.007.164.011.246.012.58.005 1.18-.138 1.8-.43.71-.334 1.269-.67 1.678-1.01.941-.79 1.388-1.372 1.34-1.747-.047-.374-.385-.524-1.013-.449-.627.075-1.33.409-2.107 1zm15.622 18.367c-.266 1.402-.215 2.45.154 3.144.245-.136.535-.667.87-1.593.333-.925.657-1.997.971-3.216.314-1.218.563-2.33.747-3.338.184-1.007.25-1.66.195-1.96-.546.53-1.105 1.473-1.678 2.828a20.302 20.302 0 0 0-1.259 4.135zm20.541-6.432a13.07 13.07 0 0 0 3.674-.307c1.173-.272 2.11-.714 2.813-1.327.703-.612.972-1.388.809-2.328-.028-.122-.314-.088-.86.103-.477.15-1.112.296-1.903.439-.791.143-1.685.143-2.68 0-.996-.143-2.054-.548-3.172-1.215-.137-.817-.246-1.6-.328-2.349a26.787 26.787 0 0 1-.143-1.633c-.027-.844-.04-1.75-.04-2.716a19.89 19.89 0 0 0 3.406-.092c1.194-.129 2.176-.462 2.947-1 .77-.538 1.06-1.385.87-2.542-.123-.19-.9-.249-2.333-.174a81.053 81.053 0 0 0-4.85.419c.055-.94.143-1.845.266-2.716.123-.871.266-1.558.43-2.062.327-1.116.825-1.817 1.494-2.103.668-.286 1.453-.429 2.353-.429a12.01 12.01 0 0 0 2.69-.419c.949-.251 1.907-.86 2.876-1.827-.914-.395-2.053-.705-3.417-.93a18.347 18.347 0 0 0-4.206-.193c-1.439.095-2.708.408-3.806.94-1.098.53-1.831 1.354-2.2 2.47-.518 1.906-.832 4.526-.941 7.861-1.555.408-2.68.932-3.377 1.572.45.286.97.5 1.556.643.586.143 1.18.242 1.78.296 0 1.933.082 3.72.246 5.36.163 1.64.402 2.917.716 3.829.314.748.962 1.324 1.944 1.725.982.402 2.111.637 3.387.705zm20.932-1.317c-1.289.687-2.598.963-3.928.827s-2.569-.865-3.715-2.185c-.545.45-1.16.868-1.841 1.256-.682.388-1.35.585-2.006.592-.654.007-1.2-.337-1.637-1.031a53.251 53.251 0 0 0 2.886-2.94c.327-.341.62-.654.88-.94a22.772 22.772 0 0 0-.635-1.368 27.997 27.997 0 0 1-.992-2.236c-.32-.81-.556-1.67-.706-2.583-.123-1.048 0-1.752.368-2.113.368-.36.819-.534 1.35-.52.806 0 1.42.203 1.842.612.423.408.727.932.911 1.572.184.64.33 1.3.44 1.98.082.49.177.954.286 1.39 1.16-1.62 2.388-3.676 3.684-6.167 1.064.013 1.872.122 2.425.326.552.205.76.684.624 1.44-.137.755-.71 1.97-1.72 3.645-.777 1.238-1.84 2.647-3.191 4.226.423.994 1.023 1.46 1.8 1.399.778-.061 1.63-.442 2.558-1.143a21.584 21.584 0 0 0 2.722-2.471 79.984 79.984 0 0 0 1.446-1.582c.057.113.119.228.187.347.479.875.78 1.845.902 2.908a14.382 14.382 0 0 1-1.47 1.982c-1.024 1.164-2.18 2.09-3.47 2.777zm4.94-4.759l.009.083c.116 1.096.126 2.127.03 3.093-.736.695-1.544 1.733-2.424 3.114a25.1 25.1 0 0 0-2.272 4.574c-.634 1.668-.968 3.28-1.003 4.84-.034 1.558.413 2.868 1.34 3.93.888.885 1.788 1.259 2.702 1.123.914-.136 1.763-.572 2.548-1.307a9.626 9.626 0 0 0 1.913-2.47c.491-.926.839-2.04 1.044-3.34.204-1.3.327-2.684.368-4.154.04-1.47.048-2.934.02-4.39 1.324.272 2.555.112 3.694-.48 1.14-.592 2.1-1.467 2.885-2.624.785-1.157 1.327-2.457 1.627-3.9.26-1.348.167-2.593-.276-3.736-.443-1.144-1.102-2.087-1.975-2.828-.873-.742-1.831-1.188-2.875-1.338-1.043-.15-2.05.099-3.018.745-.969.647-1.767 1.78-2.394 3.4-.328-.653-.706-.994-1.136-1.02a2.14 2.14 0 0 0-1.238.305c-.519.26-.86.67-1.023 1.236-.143.492-.021 1.122.365 1.889.314-.354.61-.694.887-1.021.286-.327.539-.613.757-.858.26-.259.467-.248.624.03.157.28.218.729.184 1.348-.034.62-.201 1.31-.501 2.073a12.164 12.164 0 0 1-.862 1.683zm3.95.42c.382.885.866 1.3 1.453 1.246.586-.055 1.163-.416 1.729-1.083.566-.667 1.006-1.47 1.32-2.409.286-.885.382-1.712.286-2.48-.095-.77-.358-1.359-.788-1.767-.43-.408-1.006-.517-1.729-.327-.914.354-1.548.912-1.903 1.675-.355.762-.535 1.602-.542 2.521-.007.92.051 1.794.174 2.624zm-5.28 15.865c-.409-.667-.572-1.661-.49-2.981a18.33 18.33 0 0 1 .675-3.92c.368-1.294.784-2.247 1.248-2.86-.014.286-.04.742-.082 1.369a70.39 70.39 0 0 1-.184 3.328 33.57 33.57 0 0 1-.41 3.359c-.177.987-.429 1.555-.756 1.705zm35.786-15.681c-.259 1.579-.573 2.947-.941 4.104-.873-.068-1.565-.398-2.077-.99-.511-.593-.795-1.318-.849-2.175a34.977 34.977 0 0 1-.062-2.062c0-.708-.02-1.43-.061-2.165-1.692 2.56-3.219 4.35-4.584 5.37-1.364 1.021-2.721 1.65-4.072 1.889-1.351.238-2.537.092-3.561-.439a5.667 5.667 0 0 1-2.251-1.848 8.986 8.986 0 0 1-1.33-2.726c-.559-1.905-.552-3.583.021-5.033.573-1.45 1.46-2.624 2.66-3.522 1.201-.899 2.459-1.484 3.776-1.756 1.316-.272 2.438-.18 3.366.275.927.456 1.419 1.317 1.473 2.583-.027 1.47-.344 2.634-.951 3.492-.607.858-1.348 1.494-2.221 1.91-.873.414-1.712.69-2.517.826-.805.136-1.418.211-1.841.225-.26.013-.389.034-.389.061.273 1.035.764 1.719 1.473 2.052.71.334 1.542.357 2.497.072.955-.286 2.203-1.035 3.745-2.247 1.596-1.415 2.67-2.572 3.222-3.47.553-.9.932-1.607 1.136-2.124.246-.626.713-.967 1.402-1.021.689-.055 1.238.36 1.647 1.245.082.273.171.443.266.51.805-1.878 1.862-3.11 3.172-3.695s2.92-.408 4.829.531c.928.517 1.539 1.245 1.832 2.185.293.939.341 1.827.143 2.664-.198.837-.59 1.365-1.176 1.583-.587.218-1.31-.15-2.17-1.103a5.483 5.483 0 0 1-.634-1.164 6.336 6.336 0 0 0-.43-.888c-.15-.252-.327-.405-.532-.46-.832-.108-1.5.184-2.005.879-.505.694-.907 1.623-1.207 2.787a51.979 51.979 0 0 0-.799 3.645zm-16.677-3.84c.518-1.157 1.166-2.031 1.944-2.623.777-.592 1.48-.926 2.107-1 .628-.076.969.074 1.024.448.054.375-.389.957-1.33 1.746-.423.34-.99.677-1.699 1.01-.621.293-1.22.436-1.799.43a3.32 3.32 0 0 1-.247-.01zm32.104-11.148c.396-1.552.73-2.372 1.003-2.46.273-.089.362.71.266 2.399-.409.013-.832.034-1.269.061zm-1.382 6.187c-.157 1.089-.187 1.892-.092 2.41.45-.396.88-1.025 1.289-1.89.41-.864.771-2.126 1.085-3.787l-1.535-.04a22.124 22.124 0 0 0-.747 3.307z" fill="#000"/><ellipse cx="152.849" cy="25.085" rx="2.151" ry="2.046" fill="url(#a)"/><defs><linearGradient id="a" x1="150.698" y1="23.039" x2="155.418" y2="23.572" gradientUnits="userSpaceOnUse"><stop offset=".05" stop-color="#49E3D7"/><stop offset="1" stop-color="#42CEA9"/></linearGradient></defs></svg>