<svg width="162" height="44" viewBox="0 0 162 44" fill="none" xmlns="http://www.w3.org/2000/svg">
<path fill-rule="evenodd" clip-rule="evenodd" d="M17.192 27.8845C15.8797 27.9402 14.8573 27.4479 14.1244 26.4084C13.3915 25.3684 12.8854 23.972 12.6062 22.2202C12.3266 20.4683 12.2151 18.559 12.2709 16.4932C11.1962 16.5211 10.1909 16.5035 9.25558 16.4405C8.32024 16.3778 7.58733 16.3187 7.05683 16.2625C6.81925 16.2346 6.64513 16.2209 6.5332 16.2209C6.4916 16.6116 6.44957 17.0096 6.40797 17.4144C6.19826 19.355 6.03401 21.2291 5.91565 23.0367C5.79685 24.8448 5.81444 26.4607 5.96797 27.8845C4.57204 27.9265 3.51105 27.375 2.78499 26.2304C2.05894 25.0858 1.5842 23.5676 1.36119 21.6755C1.13776 19.7843 1.082 17.7566 1.19351 15.5926C0.760791 15.467 0.362813 15.3066 0 15.111C0.321213 14.846 0.746639 14.5947 1.27756 14.3571C1.5426 11.0626 1.93328 8.18669 2.45006 5.72977C2.9664 3.27285 3.34336 1.99529 3.58095 1.89751C4.72557 2.06519 5.5524 2.66216 6.06231 3.68799C6.5718 4.71424 6.86856 6.03683 6.95219 7.65619C7.03582 9.27556 6.99422 11.0484 6.82654 12.9749C8.76668 12.6957 10.6588 12.5074 12.5012 12.4096C12.8082 9.21294 13.2062 6.46955 13.6951 4.18031C14.1836 1.89065 14.5395 0.682988 14.763 0.557333C15.8098 0.515734 16.5672 1.02865 17.035 2.0965C17.5025 3.16435 17.768 4.60617 17.8306 6.42066C17.8936 8.23558 17.855 10.2529 17.7156 12.4723C17.9249 12.5143 18.0433 12.5705 18.0716 12.6399C18.2809 13.6173 18.1132 14.3781 17.569 14.9223C17.5269 15.4532 17.4922 15.9764 17.4643 16.4932C17.2966 18.6289 17.171 20.681 17.0874 22.6494C17.0037 24.6179 17.0385 26.3629 17.192 27.8845Z" fill="black"/>
<path fill-rule="evenodd" clip-rule="evenodd" d="M27.2855 16.9743C28.2487 16.1646 28.7058 15.5681 28.657 15.1839C28.6081 14.8 28.2624 14.6465 27.6204 14.7233C26.9784 14.8 26.2592 15.1423 25.4637 15.7495C24.6677 16.3568 24.0047 17.2535 23.4742 18.4402C24.1445 18.4959 24.8423 18.3531 25.5683 18.0109C26.294 17.6691 26.8665 17.3234 27.2855 16.9743ZM23.9558 25.9996C23.0205 25.5669 22.2528 24.9352 21.6524 24.1045C21.052 23.2738 20.5914 22.3423 20.2707 21.3088C19.7119 19.3545 19.726 17.6339 20.3123 16.1471C20.8985 14.6602 21.8025 13.4564 23.0239 12.5348C24.2457 11.6136 25.5297 11.0137 26.8772 10.734C28.2242 10.4549 29.3761 10.5492 30.3321 11.0167C31.2884 11.4845 31.7876 12.3744 31.8296 13.6867C31.8155 15.1804 31.4943 16.3671 30.8664 17.2467C30.2381 18.1262 29.4808 18.779 28.5943 19.2044C27.7075 19.6302 26.8489 19.9133 26.0186 20.0527C25.1879 20.192 24.5562 20.2692 24.1235 20.283C23.8722 20.2971 23.7465 20.3177 23.7465 20.3456C24.0116 21.4066 24.5352 22.0769 25.317 22.356C26.0988 22.6352 26.9505 22.6597 27.8717 22.4294C28.7933 22.1991 29.6099 21.8607 30.3218 21.4138C31.4244 20.7015 32.4579 19.9094 33.4211 19.0371C34.3843 18.1644 35.1588 17.4349 35.7455 16.8487L35.8712 16.723C36.3318 16.3045 36.6564 16.2624 36.8447 16.5974C37.0329 16.9323 36.8623 17.6652 36.3318 18.7961C35.8291 19.8571 35.2219 20.9215 34.51 21.9894C33.7981 23.0577 32.9498 23.9964 31.9656 24.8061C30.9814 25.6158 29.8299 26.1531 28.5103 26.4182C27.1911 26.6836 25.673 26.5438 23.9558 25.9996Z" fill="black"/>
<path fill-rule="evenodd" clip-rule="evenodd" d="M44.4566 27.4446C43.8982 27.9893 43.3257 28.9555 42.7394 30.345C42.1532 31.7336 41.7239 33.1471 41.4516 34.5851C41.1793 36.023 41.2316 37.0982 41.6085 37.8101C41.8598 37.6703 42.1566 37.126 42.4988 36.1766C42.8406 35.2271 43.1721 34.1279 43.4934 32.8786C43.8141 31.629 44.0693 30.4878 44.2576 29.4547C44.4463 28.4215 44.5123 27.7517 44.4566 27.4446ZM38.363 41.2233C37.5533 40.2738 37.1133 39.1781 37.0438 37.9357C36.9739 36.6929 37.145 35.405 37.5567 34.0722C37.9684 32.7388 38.5062 31.472 39.1692 30.2716C39.8322 29.0708 40.4987 28.0446 41.169 27.1933C39.6611 27.361 38.3908 27.0814 37.3577 26.3557C36.3246 25.6301 35.5325 24.6317 34.981 23.3615C34.4295 22.0912 34.1259 20.73 34.0701 19.2779C34.0143 17.8262 34.2026 16.4582 34.6358 15.1737C34.8588 14.5596 35.1907 14.0291 35.6303 13.5823C36.0699 13.1354 36.5309 12.8669 37.0125 12.776C37.4941 12.6851 37.9024 12.8669 38.2373 13.3202C38.5722 13.7744 38.7399 14.6012 38.7399 15.802C38.7399 15.9976 38.7326 16.2279 38.7189 16.4929C38.691 17.2884 38.691 18.21 38.7189 19.2569C38.7468 20.3041 38.8724 21.2395 39.0959 22.0629C39.3193 22.8867 39.71 23.3683 40.2684 23.5077C41.455 23.3821 42.3556 22.8902 42.9697 22.0316C43.5838 21.173 44.0239 20.1468 44.2889 18.9533C44.5544 17.7597 44.7499 16.5907 44.8756 15.4456C44.9871 14.4129 45.1264 13.5612 45.2941 12.8909C45.4897 12.2631 45.8315 11.935 46.3204 11.9071C46.8089 11.8793 47.2626 12.0988 47.6816 12.5667C48.1001 13.0342 48.3236 13.701 48.3514 14.5665C48.3373 15.0549 48.3236 15.5507 48.3094 16.0533C48.2815 17.1422 48.2815 18.144 48.3094 19.0579C48.3373 19.9726 48.4561 20.6043 48.6654 20.953C48.8609 21.1764 49.2345 21.1383 49.786 20.8381C50.3371 20.5379 50.9619 20.1086 51.6601 19.5502C52.3578 18.9918 53.014 18.4476 53.6285 17.9167C53.9077 17.6795 54.159 17.4703 54.3825 17.2884C55.2895 16.5487 55.7398 16.423 55.733 16.9115C55.7256 17.4004 55.3804 18.21 54.6964 19.3409C54.0124 20.4714 53.1259 21.6409 52.037 22.8481C50.9482 24.0558 49.7894 25.0018 48.5607 25.6854C48.5191 27.7795 48.306 29.992 47.9222 32.3237C47.5383 34.655 46.8436 36.7139 45.8388 38.501C45.28 39.4363 44.5788 40.2811 43.7339 41.0346C42.8895 41.7886 41.9962 42.2354 41.0536 42.3748C40.1114 42.5146 39.2142 42.1308 38.363 41.2233Z" fill="black"/>
<path fill-rule="evenodd" clip-rule="evenodd" d="M70.9873 3.0912C69.9958 4.08272 69.0154 4.70713 68.0453 4.9653C67.0748 5.2239 66.1571 5.36671 65.2916 5.39459C64.37 5.39459 63.5672 5.54126 62.8836 5.83417C62.1992 6.1275 61.6897 6.8467 61.3547 7.99131C61.1871 8.50766 61.0408 9.2127 60.9152 10.106C60.7895 10.9997 60.6986 11.9278 60.6428 12.8914C62.4856 12.6817 64.1397 12.5389 65.6056 12.4621C67.0714 12.3854 67.8674 12.4446 67.993 12.6401C68.1881 13.8268 67.8914 14.6956 67.1027 15.2471C66.314 15.7986 65.3088 16.1404 64.0874 16.273C62.866 16.4059 61.7038 16.4372 60.6008 16.3673C60.6008 17.3588 60.6145 18.2869 60.6428 19.1523C60.6566 19.5014 60.7055 20.0598 60.7895 20.8274C60.8731 21.5955 60.9846 22.3983 61.1245 23.2359C62.2691 23.9199 63.3511 24.335 64.37 24.4817C65.389 24.6284 66.3037 24.6284 67.1134 24.4817C67.9227 24.335 68.572 24.1854 69.0609 24.0314C69.6192 23.8363 69.9121 23.8011 69.9405 23.9268C70.1077 24.89 69.832 25.6859 69.1132 26.3138C68.394 26.9421 67.4342 27.3958 66.2338 27.675C65.033 27.9542 63.7804 28.0588 62.4749 27.9893C61.1695 27.9194 60.0146 27.6784 59.0093 27.2667C58.0045 26.855 57.3411 26.2653 57.0203 25.4972C56.6991 24.5619 56.4546 23.2535 56.2874 21.5711C56.1197 19.8886 56.0361 18.0566 56.0361 16.074C55.4215 16.0186 54.8143 15.917 54.2143 15.7703C53.6139 15.6241 53.0834 15.4041 52.6228 15.1108C53.3347 14.455 54.4862 13.9173 56.0777 13.4987C56.1896 10.0781 56.5104 7.39091 57.0409 5.43662C57.4178 4.292 58.1683 3.44715 59.2919 2.90293C60.416 2.35828 61.7141 2.03707 63.1872 1.93929C64.6599 1.84194 66.094 1.90799 67.4904 2.13828C68.8863 2.36858 70.052 2.68636 70.9873 3.0912Z" fill="black"/>
<path fill-rule="evenodd" clip-rule="evenodd" d="M79.1122 22.3142C79.5449 23.3331 80.159 23.8113 80.955 23.7487C81.7505 23.6856 82.6232 23.2949 83.5723 22.5758C84.5218 21.857 85.4498 21.0126 86.3577 20.0421C87.2647 19.072 88.0607 18.1821 88.7447 17.3724C89.0381 17.0371 89.2962 16.7442 89.5197 16.4929C89.7847 16.2278 89.9974 16.2381 90.1582 16.5242C90.3186 16.8106 90.3812 17.2712 90.3465 17.9064C90.3118 18.5415 90.1407 19.25 89.8336 20.0318C89.2889 21.3441 88.4934 22.5968 87.4466 23.7903C86.3993 24.9842 85.2161 25.9333 83.8969 26.6383C82.5778 27.3434 81.2376 27.626 79.8764 27.4866C78.5152 27.3468 77.2484 26.5997 76.0759 25.2458C75.5175 25.7064 74.8892 26.1357 74.1911 26.5337C73.4929 26.9316 72.8093 27.1336 72.139 27.1409C71.4691 27.1478 70.9107 26.7953 70.4639 26.0834C71.497 25.1064 72.4812 24.1012 73.4165 23.0681C73.7515 22.719 74.0517 22.3978 74.3167 22.1049C74.1353 21.6722 73.9192 21.2043 73.6678 20.7017C73.3188 20.0039 72.98 19.2397 72.6523 18.409C72.3238 17.5783 72.0832 16.6953 71.9297 15.7599C71.804 14.6848 71.9297 13.9626 72.3067 13.5925C72.6836 13.2228 73.1442 13.0448 73.6889 13.0586C74.5123 13.0586 75.1405 13.2679 75.5733 13.6868C76.006 14.1054 76.3165 14.6432 76.5052 15.2993C76.6934 15.9555 76.8435 16.6322 76.9555 17.3304C77.0391 17.833 77.1369 18.3078 77.2484 18.7542C78.435 17.0933 79.6916 14.985 81.0176 12.4303C82.1065 12.4445 82.9337 12.556 83.499 12.7652C84.0646 12.9749 84.2773 13.4668 84.138 14.2418C83.9981 15.0163 83.4119 16.2626 82.3788 17.9797C81.5833 19.25 80.4944 20.6948 79.1122 22.3142Z" fill="black"/>
<path fill-rule="evenodd" clip-rule="evenodd" d="M92.9957 22.1888C93.3864 23.0962 93.8822 23.5221 94.4826 23.4663C95.0825 23.4106 95.6727 23.0405 96.252 22.3565C96.831 21.6724 97.2813 20.8486 97.6025 19.8854C97.8958 18.9779 97.9932 18.1301 97.8958 17.341C97.7981 16.5523 97.5292 15.9485 97.0896 15.5299C96.65 15.1109 96.0599 14.9994 95.3201 15.1946C94.3848 15.5578 93.7355 16.1303 93.3727 16.9117C93.0095 17.6939 92.8246 18.5555 92.8178 19.4981C92.8105 20.4403 92.8701 21.3375 92.9957 22.1888ZM87.593 38.4592C87.9284 38.3056 88.1865 37.7228 88.3679 36.7107C88.5493 35.6986 88.6892 34.5506 88.7869 33.2661C88.8843 31.9817 88.9473 30.844 88.9752 29.8529C89.0172 29.2109 89.0451 28.743 89.0588 28.4501C88.5841 29.0779 88.1587 30.0553 87.7817 31.3817C87.4047 32.7078 87.1744 34.0479 87.0904 35.4023C87.0067 36.7562 87.1744 37.7751 87.593 38.4592ZM101.728 19.8018C101.421 21.2813 100.866 22.6146 100.063 23.8013C99.26 24.9879 98.2762 25.8847 97.1106 26.4919C95.9445 27.0992 94.6846 27.2634 93.3307 26.9842C93.3585 28.478 93.3517 29.9785 93.3097 31.4864C93.2681 32.9938 93.1424 34.4142 92.9331 35.7475C92.7234 37.0808 92.3675 38.222 91.8648 39.1715C91.3622 40.1064 90.7095 40.9512 89.9071 41.7052C89.1043 42.4591 88.235 42.9055 87.3001 43.0453C86.3648 43.1847 85.4436 42.8009 84.5357 41.8934C83.5866 40.8046 83.1295 39.461 83.1642 37.8626C83.1994 36.2638 83.5412 34.6097 84.1904 32.8999C84.8393 31.1896 85.6143 29.626 86.5149 28.2091C87.415 26.7921 88.2423 25.7277 88.9962 25.0158C89.0936 24.0247 89.0833 22.9671 88.9649 21.8431C88.8461 20.7195 88.5356 19.6967 88.033 18.7755C87.4884 17.8264 87.3001 17.0618 87.4673 16.4824C87.635 15.9035 87.9837 15.481 88.5146 15.2156C88.9194 14.9784 89.3414 14.8738 89.7814 14.9016C90.221 14.9295 90.6087 15.2786 90.9437 15.9485C91.5857 14.2875 92.4022 13.1253 93.3937 12.4619C94.3848 11.7989 95.4145 11.5441 96.4823 11.6977C97.5502 11.8516 98.531 12.3084 99.4243 13.0691C100.318 13.8304 100.992 14.797 101.445 15.9695C101.899 17.142 101.993 18.4196 101.728 19.8018Z" fill="black"/>
<path fill-rule="evenodd" clip-rule="evenodd" d="M110.984 16.9743C111.947 16.1646 112.401 15.5681 112.345 15.1839C112.289 14.8 111.94 14.6465 111.298 14.7233C110.655 14.8 109.937 15.1423 109.141 15.7495C108.345 16.3568 107.682 17.2535 107.152 18.4402C107.822 18.4959 108.52 18.3531 109.246 18.0109C109.972 17.6691 110.551 17.3234 110.984 16.9743ZM107.634 25.9996C106.698 25.5669 105.93 24.9352 105.33 24.1045C104.729 23.2738 104.276 22.3423 103.969 21.3088C103.396 19.3545 103.403 17.6339 103.99 16.1471C104.576 14.6602 105.483 13.4564 106.712 12.5348C107.94 11.6136 109.228 11.0137 110.576 10.734C111.923 10.4549 113.071 10.5492 114.02 11.0167C114.969 11.4845 115.472 12.3676 115.528 13.6657C115.5 15.1736 115.175 16.3671 114.554 17.2467C113.933 18.1262 113.175 18.779 112.282 19.2044C111.388 19.6302 110.53 19.9133 109.706 20.0527C108.883 20.192 108.255 20.2692 107.822 20.283C107.556 20.2971 107.424 20.3177 107.424 20.3456C107.703 21.4066 108.205 22.1082 108.932 22.4504C109.657 22.7922 110.509 22.8166 111.486 22.5233C112.463 22.2304 113.741 21.4627 115.318 20.2199C116.952 18.7682 118.051 17.5816 118.617 16.6604C119.182 15.7388 119.569 15.0132 119.779 14.4822C120.03 13.8402 120.508 13.4912 121.213 13.4354C121.918 13.3797 122.48 13.8055 122.899 14.713C122.983 14.9922 123.073 15.1667 123.171 15.2362C123.994 13.3097 125.076 12.0463 126.417 11.4459C127.757 10.846 129.404 11.0274 131.359 11.9906C132.308 12.5211 132.933 13.2677 133.233 14.2314C133.533 15.1946 133.582 16.1055 133.38 16.964C133.177 17.8226 132.775 18.3634 132.175 18.5868C131.575 18.8103 130.835 18.4333 129.956 17.4559C129.718 17.1351 129.502 16.7372 129.307 16.2624C129.166 15.9133 129.02 15.6097 128.867 15.3515C128.713 15.0934 128.532 14.9364 128.322 14.8802C127.47 14.7687 126.787 15.0689 126.27 15.7808C125.753 16.4927 125.341 17.4456 125.035 18.6391C124.727 19.8327 124.455 21.0785 124.218 22.3771C123.952 23.9964 123.632 25.3996 123.255 26.5859C122.361 26.5164 121.653 26.1776 121.129 25.5703C120.606 24.9631 120.316 24.2199 120.26 23.3403C120.218 22.6284 120.197 21.9233 120.197 21.2252C120.197 20.4995 120.177 19.7593 120.135 19.0054C118.403 21.63 116.84 23.4659 115.444 24.5128C114.048 25.56 112.659 26.2055 111.277 26.4499C109.895 26.6939 108.68 26.5438 107.634 25.9996Z" fill="black"/>
<path fill-rule="evenodd" clip-rule="evenodd" d="M141.033 4.48358C140.753 4.57449 140.411 5.41548 140.007 7.00654C140.453 6.97909 140.886 6.95808 141.305 6.94393C141.403 5.21306 141.312 4.39266 141.033 4.48358ZM139.818 13.8858C140.237 12.9994 140.607 11.7047 140.928 10.0012C140.384 9.98752 139.86 9.97337 139.358 9.95922C139.008 11.1043 138.754 12.2347 138.593 13.3515C138.433 14.4686 138.401 15.292 138.499 15.8225C138.96 15.4177 139.4 14.7723 139.818 13.8858ZM136.614 4.62982C137.075 3.54824 137.637 2.56058 138.3 1.66685C138.963 0.773539 139.693 0.232752 140.488 0.0440547C141.284 -0.144213 142.122 0.27092 143.001 1.28988C143.42 1.82081 143.671 2.57088 143.755 3.54095C143.839 4.51145 143.797 5.61104 143.629 6.83928C145.305 6.78353 146.683 6.77324 147.765 6.80798C148.847 6.84272 149.423 6.91605 149.493 7.02755C149.73 7.75361 149.559 8.32613 148.98 8.74469C148.4 9.16369 147.573 9.46732 146.498 9.65559C145.423 9.84428 144.264 9.95235 143.022 9.98023C142.52 12.1301 141.93 13.9939 141.253 15.5712C140.576 17.149 139.693 18.454 138.604 19.4871C138.966 21.1764 139.553 22.2721 140.363 22.7747C141.172 23.2774 142.098 23.3717 143.137 23.0574C144.177 22.7434 145.235 22.1953 146.31 21.4135C147.384 20.6317 148.728 18.8974 149.636 18.032C150.543 17.1661 151.269 16.4405 151.814 15.8538C152.274 15.3933 152.557 15.383 152.662 15.8225C152.766 16.2625 152.553 17.1035 152.023 18.3459C151.493 19.4906 150.428 21.5744 149.534 22.7747C148.641 23.9755 147.622 25.04 146.477 25.968C145.332 26.8965 144.125 27.5316 142.854 27.8738C141.584 28.2156 140.321 28.1007 139.064 27.5282C137.78 26.8857 136.799 25.8565 136.122 24.4396C135.445 23.0226 135.002 21.4243 134.792 19.6441C134.583 17.8643 134.523 16.1017 134.614 14.3567C134.705 12.6117 134.876 11.0764 135.128 9.74993C134.039 9.73621 132.89 9.67317 131.683 9.56167C130.476 9.44973 129.418 9.24045 128.51 8.93339C129.139 8.5843 130.084 8.2841 131.348 8.03279C132.612 7.78148 134.039 7.56534 135.63 7.3835C135.826 6.63 136.154 5.71182 136.614 4.62982Z" fill="black"/>
<path d="M158.782 27.9376C160.277 27.9376 161.489 26.7256 161.489 25.2305C161.489 23.7354 160.277 22.5233 158.782 22.5233C157.286 22.5233 156.074 23.7354 156.074 25.2305C156.074 26.7256 157.286 27.9376 158.782 27.9376Z" fill="url(#paint0_linear)"/>
<defs>
<linearGradient id="paint0_linear" x1="161.489" y1="25.2305" x2="156.074" y2="25.2305" gradientUnits="userSpaceOnUse">
<stop stop-color="#41CEA5"/>
<stop offset="1" stop-color="#4BE5DC"/>
</linearGradient>
</defs>
</svg>
