<svg width="111" height="29" viewBox="0 0 111 29" fill="none" xmlns="http://www.w3.org/2000/svg">
<path fill-rule="evenodd" clip-rule="evenodd" d="M11.817 18.7743C10.915 18.8118 10.2122 18.4803 9.70845 17.7804C9.20468 17.0802 8.85684 16.1401 8.66494 14.9606C8.47275 13.7811 8.39611 12.4957 8.43443 11.1048C7.69572 11.1236 7.00477 11.1117 6.36186 11.0693C5.71895 11.0271 5.21518 10.9873 4.85054 10.9495C4.68724 10.9307 4.56756 10.9215 4.49062 10.9215C4.46203 11.1845 4.43314 11.4525 4.40454 11.725C4.2604 13.0316 4.1475 14.2933 4.06614 15.5104C3.98449 16.7277 3.99657 17.8157 4.1021 18.7743C3.14261 18.8026 2.41333 18.4313 1.91428 17.6606C1.41522 16.89 1.0889 15.8678 0.935619 14.5939C0.782041 13.3206 0.74372 11.9554 0.820362 10.4985C0.522933 10.4139 0.249381 10.3059 0 10.1742C0.220787 9.99577 0.513205 9.82657 0.878138 9.66661C1.06031 7.44852 1.32885 5.51225 1.68406 3.85807C2.03897 2.20389 2.29807 1.34374 2.46138 1.27791C3.24814 1.3908 3.81647 1.79273 4.16696 2.48339C4.51715 3.17434 4.72113 4.0648 4.77862 5.15508C4.8361 6.24535 4.8075 7.439 4.69225 8.73601C6.02581 8.54804 7.32637 8.42128 8.59272 8.35545C8.80378 6.2032 9.07734 4.35614 9.41338 2.81486C9.74913 1.27329 9.99379 0.460199 10.1474 0.375599C10.8669 0.347592 11.3875 0.692922 11.7091 1.41188C12.0304 2.13084 12.2129 3.10157 12.2559 4.32322C12.2992 5.54516 12.2727 6.90339 12.1769 8.39761C12.3208 8.4259 12.4021 8.46373 12.4216 8.5105C12.5654 9.16854 12.4502 9.68076 12.0761 10.0472C12.0472 10.4046 12.0233 10.7569 12.0042 11.1048C11.8889 12.5427 11.8025 13.9243 11.7451 15.2496C11.6876 16.575 11.7115 17.7498 11.817 18.7743Z" fill="white"/>
<path fill-rule="evenodd" clip-rule="evenodd" d="M18.755 11.4279C19.4171 10.8828 19.7313 10.4811 19.6977 10.2224C19.6641 9.964 19.4265 9.86063 18.9852 9.91232C18.544 9.964 18.0496 10.1944 17.5028 10.6033C16.9557 11.0121 16.5 11.6159 16.1353 12.4148C16.5961 12.4523 17.0757 12.3562 17.5747 12.1258C18.0735 11.8957 18.467 11.6629 18.755 11.4279ZM16.4664 17.5044C15.8235 17.2131 15.2958 16.7877 14.8831 16.2285C14.4704 15.6692 14.1539 15.042 13.9334 14.3462C13.5493 13.0304 13.559 11.872 13.962 10.8709C14.3649 9.86987 14.9863 9.05939 15.8258 8.43889C16.6656 7.81868 17.5482 7.41473 18.4744 7.22648C19.4003 7.03851 20.1921 7.10203 20.8491 7.41675C21.5065 7.73177 21.8496 8.3309 21.8785 9.21444C21.8687 10.2201 21.648 11.0191 21.2164 11.6113C20.7846 12.2035 20.264 12.6429 19.6547 12.9293C19.0451 13.2161 18.4549 13.4066 17.8843 13.5005C17.3133 13.5943 16.8791 13.6463 16.5816 13.6555C16.4089 13.665 16.3225 13.6789 16.3225 13.6977C16.5047 14.412 16.8646 14.8633 17.402 15.0513C17.9394 15.2392 18.5248 15.2557 19.158 15.1007C19.7915 14.9456 20.3527 14.7178 20.842 14.4169C21.5999 13.9373 22.3103 13.404 22.9724 12.8167C23.6344 12.2292 24.1668 11.738 24.5701 11.3433L24.6564 11.2587C24.973 10.9769 25.1962 10.9486 25.3256 11.1741C25.455 11.3996 25.3377 11.8931 24.973 12.6545C24.6276 13.3688 24.2101 14.0854 23.7208 14.8044C23.2315 15.5237 22.6484 16.1557 21.9719 16.7008C21.2954 17.246 20.5039 17.6078 19.5969 17.7862C18.6902 17.9649 17.6467 17.8708 16.4664 17.5044Z" fill="white"/>
<path fill-rule="evenodd" clip-rule="evenodd" d="M30.5579 18.4782C30.1741 18.8449 29.7805 19.4954 29.3776 20.4309C28.9746 21.3659 28.6795 22.3175 28.4924 23.2857C28.3052 24.2538 28.3411 24.9777 28.6002 25.457C28.773 25.3629 28.977 24.9964 29.2122 24.3572C29.4471 23.7179 29.675 22.9779 29.8958 22.1368C30.1163 21.2954 30.2917 20.5271 30.4211 19.8315C30.5508 19.1359 30.5962 18.6849 30.5579 18.4782ZM26.3694 27.7551C25.8128 27.1158 25.5104 26.3781 25.4627 25.5416C25.4146 24.7048 25.5322 23.8377 25.8152 22.9403C26.0982 22.0427 26.4678 21.1897 26.9236 20.3815C27.3793 19.5731 27.8374 18.8821 28.2981 18.309C27.2617 18.4219 26.3885 18.2336 25.6784 17.7451C24.9683 17.2565 24.4239 16.5844 24.0448 15.7291C23.6657 14.8739 23.457 13.9574 23.4187 12.9798C23.3804 12.0024 23.5098 11.0813 23.8075 10.2165C23.9608 9.80306 24.1889 9.44589 24.4911 9.14502C24.7932 8.84416 25.1101 8.66341 25.4411 8.60219C25.7722 8.54098 26.0528 8.66341 26.283 8.9686C26.5132 9.27438 26.6285 9.83106 26.6285 10.6395C26.6285 10.7712 26.6235 10.9262 26.614 11.1047C26.5949 11.6403 26.5949 12.2608 26.614 12.9656C26.6332 13.6707 26.7196 14.3004 26.8732 14.8548C27.0267 15.4095 27.2953 15.7337 27.6791 15.8276C28.4947 15.743 29.1137 15.4118 29.5359 14.8337C29.958 14.2557 30.2604 13.5647 30.4426 12.7612C30.6251 11.9576 30.7595 11.1705 30.8459 10.3996C30.9225 9.70431 31.0183 9.13087 31.1336 8.67958C31.268 8.25686 31.5029 8.03598 31.839 8.01721C32.1747 7.99844 32.4866 8.14628 32.7746 8.46129C33.0623 8.77601 33.2159 9.225 33.235 9.80768C33.2253 10.1365 33.2159 10.4703 33.2061 10.8087C33.187 11.5418 33.187 12.2163 33.2061 12.8316C33.2253 13.4475 33.3069 13.8728 33.4508 14.1076C33.5852 14.258 33.842 14.2323 34.221 14.0302C34.5998 13.8281 35.0293 13.539 35.5092 13.1631C35.9888 12.7872 36.4398 12.4208 36.8622 12.0633C37.0541 11.9036 37.2269 11.7627 37.3805 11.6403C38.0039 11.1422 38.3134 11.0576 38.3088 11.3865C38.3037 11.7157 38.0664 12.2608 37.5962 13.0222C37.1261 13.7833 36.5168 14.5707 35.7683 15.3835C35.0199 16.1966 34.2234 16.8335 33.3789 17.2938C33.3503 18.7037 33.2038 20.1933 32.9399 21.7632C32.6761 23.3327 32.1986 24.719 31.5079 25.9221C31.1238 26.5519 30.6419 27.1207 30.0612 27.628C29.4807 28.1356 28.8667 28.4365 28.2188 28.5303C27.5712 28.6244 26.9545 28.366 26.3694 27.7551Z" fill="white"/>
<path fill-rule="evenodd" clip-rule="evenodd" d="M48.7928 2.08119C48.1113 2.74875 47.4374 3.16916 46.7707 3.34298C46.1036 3.51708 45.4728 3.61323 44.8779 3.632C44.2444 3.632 43.6926 3.73075 43.2227 3.92796C42.7523 4.12546 42.4021 4.60967 42.1719 5.38031C42.0566 5.72795 41.9561 6.20264 41.8697 6.80408C41.7833 7.40581 41.7208 8.03064 41.6825 8.67943C42.9492 8.53824 44.0861 8.44209 45.0937 8.39041C46.1012 8.33872 46.6483 8.37857 46.7347 8.51023C46.8688 9.30917 46.6648 9.89415 46.1227 10.2655C45.5806 10.6368 44.8897 10.8669 44.0502 10.9561C43.2106 11.0456 42.4118 11.0667 41.6536 11.0197C41.6536 11.6872 41.6631 12.312 41.6825 12.8947C41.692 13.1298 41.7256 13.5057 41.7833 14.0225C41.8408 14.5397 41.9175 15.0802 42.0136 15.6441C42.8003 16.1046 43.544 16.3841 44.2444 16.4829C44.9448 16.5816 45.5736 16.5816 46.1301 16.4829C46.6863 16.3841 47.1326 16.2833 47.4687 16.1797C47.8525 16.0483 48.0538 16.0246 48.0733 16.1092C48.1882 16.7577 47.9987 17.2936 47.5046 17.7164C47.0103 18.1394 46.3506 18.4448 45.5255 18.6328C44.7001 18.8208 43.8391 18.8912 42.9418 18.8445C42.0445 18.7974 41.2507 18.6351 40.5597 18.3579C39.8691 18.0807 39.413 17.6837 39.1926 17.1666C38.9718 16.5369 38.8037 15.6559 38.6888 14.5232C38.5735 13.3905 38.516 12.157 38.516 10.8222C38.0936 10.7849 37.6762 10.7165 37.2638 10.6177C36.8512 10.5193 36.4865 10.3711 36.1699 10.1737C36.6593 9.73217 37.4507 9.37009 38.5446 9.08828C38.6216 6.78531 38.8421 4.97608 39.2067 3.6603C39.4658 2.88966 39.9817 2.32084 40.754 1.95443C41.5266 1.58774 42.4189 1.37147 43.4314 1.30564C44.4437 1.2401 45.4294 1.28456 46.3892 1.43961C47.3487 1.59467 48.1499 1.80862 48.7928 2.08119Z" fill="white"/>
<path fill-rule="evenodd" clip-rule="evenodd" d="M54.378 15.0237C54.6755 15.7097 55.0976 16.0317 55.6447 15.9895C56.1915 15.9471 56.7914 15.684 57.4437 15.1998C58.0964 14.7159 58.7342 14.1474 59.3583 13.494C59.9817 12.8408 60.5288 12.2417 60.999 11.6966C61.2006 11.4708 61.3781 11.2736 61.5317 11.1044C61.7138 10.9259 61.8601 10.9328 61.9706 11.1254C62.0808 11.3183 62.1239 11.6284 62.1 12.056C62.0761 12.4837 61.9585 12.9607 61.7474 13.487C61.3731 14.3706 60.8263 15.214 60.1067 16.0175C59.3869 16.8214 58.5736 17.4603 57.6669 17.935C56.7601 18.4097 55.839 18.6 54.9033 18.5062C53.9677 18.412 53.0969 17.909 52.291 16.9975C51.9072 17.3076 51.4754 17.5966 50.9955 17.8646C50.5156 18.1325 50.0457 18.2685 49.585 18.2734C49.1245 18.2781 48.7408 18.0407 48.4336 17.5614C49.1437 16.9037 49.8202 16.2269 50.4631 15.5313C50.6933 15.2963 50.8997 15.08 51.0819 14.8828C50.9572 14.5914 50.8086 14.2764 50.6359 13.938C50.3959 13.4683 50.163 12.9537 49.9378 12.3944C49.712 11.8352 49.5467 11.2406 49.4411 10.6109C49.3548 9.88704 49.4411 9.4008 49.7002 9.15162C49.9594 8.90273 50.2759 8.7829 50.6503 8.79214C51.2163 8.79214 51.6481 8.93305 51.9456 9.21514C52.243 9.49695 52.4564 9.85903 52.5861 10.3008C52.7155 10.7426 52.8187 11.1982 52.8956 11.6683C52.9531 12.0067 53.0203 12.3263 53.0969 12.6269C53.9126 11.5086 54.7763 10.0892 55.6877 8.36914C56.4362 8.37867 57.0048 8.45374 57.3933 8.59464C57.7821 8.73584 57.9283 9.06702 57.8325 9.58877C57.7364 10.1102 57.3335 10.9493 56.6234 12.1054C56.0765 12.9607 55.3281 13.9334 54.378 15.0237Z" fill="white"/>
<path fill-rule="evenodd" clip-rule="evenodd" d="M63.9211 14.9392C64.1897 15.5502 64.5304 15.8369 64.9431 15.7994C65.3555 15.7618 65.7611 15.5127 66.1594 15.0521C66.5573 14.5916 66.8668 14.0369 67.0876 13.3884C67.2892 12.7775 67.3561 12.2066 67.2892 11.6753C67.222 11.1443 67.0372 10.7378 66.7351 10.456C66.4329 10.1739 66.0273 10.0988 65.5188 10.2302C64.8759 10.4748 64.4296 10.8602 64.1802 11.3863C63.9306 11.913 63.8035 12.493 63.7988 13.1277C63.7938 13.762 63.8347 14.3661 63.9211 14.9392ZM60.2075 25.8937C60.438 25.7903 60.6155 25.3979 60.7402 24.7165C60.8649 24.0351 60.961 23.2621 61.0282 22.3973C61.0951 21.5326 61.1384 20.7665 61.1576 20.0993C61.1865 19.667 61.2056 19.352 61.2151 19.1548C60.8888 19.5775 60.5963 20.2356 60.3372 21.1286C60.0781 22.0214 59.9198 22.9237 59.862 23.8355C59.8046 24.7471 59.9198 25.4331 60.2075 25.8937ZM69.9231 13.3321C69.712 14.3283 69.3308 15.2259 68.7787 16.0249C68.2269 16.8238 67.5507 17.4276 66.7495 17.8364C65.948 18.2453 65.0819 18.3559 64.1513 18.1679C64.1705 19.1736 64.1658 20.1839 64.1369 21.1991C64.1083 22.214 64.0219 23.1703 63.8781 24.068C63.7339 24.9657 63.4893 25.734 63.1438 26.3733C62.7983 27.0027 62.3497 27.5715 61.7981 28.0791C61.2463 28.5867 60.6488 28.8873 60.0062 28.9814C59.3633 29.0753 58.7301 28.8168 58.1061 28.2059C57.4537 27.4728 57.1395 26.5682 57.1634 25.492C57.1875 24.4156 57.4225 23.3019 57.8688 22.1508C58.3148 20.9993 58.8474 19.9465 59.4665 18.9925C60.0852 18.0385 60.6538 17.3219 61.172 16.8426C61.2389 16.1753 61.2319 15.4633 61.1505 14.7065C61.0689 13.95 60.8554 13.2614 60.51 12.6412C60.1356 12.0022 60.0062 11.4874 60.1212 11.0973C60.2364 10.7075 60.4761 10.4231 60.841 10.2444C61.1193 10.0847 61.4093 10.0142 61.7118 10.033C62.0139 10.0518 62.2804 10.2868 62.5106 10.7378C62.9519 9.61952 63.5131 8.83704 64.1947 8.39036C64.8759 7.94398 65.5837 7.77247 66.3176 7.87583C67.0516 7.97949 67.7258 8.287 68.3398 8.79922C68.9538 9.31173 69.4172 9.96254 69.7288 10.752C70.0407 11.5414 70.1052 12.4015 69.9231 13.3321Z" fill="white"/>
<path fill-rule="evenodd" clip-rule="evenodd" d="M76.2852 11.4279C76.9472 10.8828 77.2591 10.4811 77.2208 10.2224C77.1822 9.964 76.9422 9.86063 76.501 9.91232C76.0594 9.964 75.5656 10.1944 75.0185 10.6033C74.4717 11.0121 74.0157 11.6159 73.6511 12.4148C74.1118 12.4523 74.5914 12.3562 75.0905 12.1258C75.5895 11.8957 75.9875 11.6629 76.2852 11.4279ZM73.9824 17.5044C73.3392 17.2131 72.8115 16.7877 72.3989 16.2285C71.9862 15.6692 71.6743 15.042 71.4635 14.3462C71.07 13.0304 71.0747 11.872 71.4777 10.8709C71.8809 9.86987 72.5044 9.05939 73.3489 8.43889C74.1932 7.81868 75.0784 7.41473 76.0045 7.22648C76.9304 7.03851 77.7196 7.10203 78.3722 7.41675C79.0245 7.73177 79.37 8.32628 79.4086 9.20029C79.3892 10.2155 79.166 11.0191 78.7392 11.6113C78.3123 12.2035 77.7915 12.6429 77.1775 12.9293C76.5631 13.2161 75.973 13.4066 75.407 13.5005C74.8411 13.5943 74.4092 13.6463 74.1118 13.6555C73.9293 13.665 73.8382 13.6789 73.8382 13.6977C74.0301 14.412 74.3753 14.8844 74.8747 15.1148C75.3734 15.3449 75.9589 15.3614 76.6307 15.1639C77.3021 14.9667 78.1803 14.4498 79.2645 13.6131C80.3873 12.6357 81.1428 11.8368 81.5316 11.2165C81.9201 10.596 82.1866 10.1075 82.3304 9.75005C82.5032 9.31781 82.8319 9.08277 83.3165 9.04524C83.8008 9.0077 84.1872 9.29442 84.4749 9.90539C84.5327 10.0934 84.5946 10.2109 84.6621 10.2576C85.2281 8.96064 85.9718 8.11002 86.893 7.70578C87.8142 7.30184 88.9464 7.42397 90.29 8.07248C90.9423 8.42965 91.3718 8.93234 91.5782 9.58113C91.7845 10.2296 91.8178 10.8429 91.679 11.421C91.5398 11.999 91.2636 12.3631 90.8512 12.5136C90.4385 12.664 89.9301 12.4102 89.3255 11.7522C89.1625 11.5362 89.0136 11.2682 88.8795 10.9486C88.7831 10.7136 88.6826 10.5091 88.577 10.3353C88.4715 10.1615 88.3468 10.0558 88.203 10.018C87.6172 9.94292 87.1474 10.145 86.7925 10.6243C86.437 11.1037 86.154 11.7452 85.9432 12.5488C85.7319 13.3523 85.5447 14.1911 85.3817 15.0654C85.1992 16.1557 84.9787 17.1004 84.7196 17.8991C84.1053 17.8523 83.6186 17.6242 83.2587 17.2154C82.8991 16.8065 82.6998 16.3061 82.6615 15.7139C82.6326 15.2346 82.6181 14.7599 82.6181 14.2899C82.6181 13.8013 82.604 13.303 82.5751 12.7954C81.3851 14.5624 80.3103 15.7985 79.3508 16.5033C78.3913 17.2084 77.4366 17.643 76.4868 17.8076C75.5367 17.9719 74.7019 17.8708 73.9824 17.5044Z" fill="white"/>
<path fill-rule="evenodd" clip-rule="evenodd" d="M96.9392 3.01868C96.7473 3.07989 96.5121 3.6461 96.2341 4.71732C96.541 4.69884 96.8384 4.6847 97.1264 4.67517C97.1936 3.50982 97.1311 2.95746 96.9392 3.01868ZM96.1044 9.34897C96.3924 8.75215 96.6465 7.88045 96.8673 6.73358C96.4932 6.72434 96.1333 6.71481 95.7878 6.70528C95.5479 7.47621 95.3728 8.23733 95.2625 8.9892C95.1523 9.74136 95.1304 10.2957 95.1977 10.6529C95.5142 10.3803 95.8167 9.94579 96.1044 9.34897ZM93.9021 3.11714C94.219 2.38894 94.6052 1.72398 95.0609 1.12225C95.5166 0.520804 96.018 0.156706 96.5651 0.0296609C97.1119 -0.0970951 97.6876 0.182403 98.2922 0.868445C98.5802 1.2259 98.753 1.73091 98.8104 2.38403C98.8679 3.03744 98.8393 3.77777 98.7241 4.60471C99.8755 4.56718 100.823 4.56025 101.567 4.58364C102.31 4.60702 102.706 4.6564 102.754 4.73147C102.917 5.2203 102.8 5.60577 102.402 5.88758C102.003 6.16967 101.435 6.3741 100.696 6.50086C99.9571 6.6279 99.1603 6.70066 98.3067 6.71943C97.9612 8.16688 97.5559 9.42173 97.0904 10.4837C96.625 11.546 96.018 12.4246 95.2696 13.1202C95.519 14.2575 95.9219 14.9952 96.4788 15.3336C97.035 15.672 97.6711 15.7356 98.3857 15.5239C99.1005 15.3126 99.8274 14.9436 100.566 14.4172C101.305 13.8908 102.229 12.7232 102.853 12.1405C103.476 11.5575 103.975 11.069 104.35 10.674C104.666 10.3639 104.86 10.357 104.932 10.6529C105.004 10.9492 104.858 11.5154 104.493 12.3518C104.129 13.1225 103.397 14.5255 102.783 15.3336C102.169 16.1421 101.468 16.8588 100.682 17.4836C99.8946 18.1087 99.0645 18.5363 98.1914 18.7667C97.318 18.9969 96.4499 18.9195 95.5862 18.534C94.7033 18.1015 94.0295 17.4085 93.564 16.4545C93.0986 15.5005 92.7941 14.4244 92.6499 13.2259C92.5061 12.0276 92.4651 10.8409 92.5276 9.666C92.5901 8.49113 92.7077 7.45745 92.8804 6.56438C92.132 6.55514 91.3426 6.5127 90.5125 6.43762C89.6827 6.36226 88.9558 6.22136 88.332 6.01462C88.7639 5.77959 89.4139 5.57747 90.2823 5.40827C91.151 5.23907 92.132 5.09355 93.2259 4.97112C93.36 4.46381 93.5855 3.84562 93.9021 3.11714Z" fill="white"/>
<path d="M109.14 18.8094C110.168 18.8094 111.001 17.9933 111.001 16.9867C111.001 15.9801 110.168 15.1641 109.14 15.1641C108.112 15.1641 107.279 15.9801 107.279 16.9867C107.279 17.9933 108.112 18.8094 109.14 18.8094Z" fill="url(#paint0_linear)"/>
<defs>
<linearGradient id="paint0_linear" x1="111.001" y1="16.9867" x2="107.279" y2="16.9867" gradientUnits="userSpaceOnUse">
<stop stop-color="#41CEA5"/>
<stop offset="1" stop-color="#4BE5DC"/>
</linearGradient>
</defs>
</svg>
