<svg width="14" height="14" viewBox="0 0 14 14" fill="none" xmlns="http://www.w3.org/2000/svg">
	<path fill-rule="evenodd" clip-rule="evenodd" d="M8.23548 13.1759C8.23548 12.7213 8.60359 12.3524 9.05898 12.3524H11.1886L7.65326 8.81706C7.33127 8.49507 7.33127 7.97461 7.65326 7.65263C7.97525 7.33064 8.49571 7.33064 8.8177 7.65263L12.353 11.1879V9.05834C12.353 8.60377 12.7211 8.23484 13.1765 8.23484C13.6319 8.23484 14 8.60377 14 9.05834V13.1759C14 13.6304 13.6319 13.9994 13.1765 13.9994H9.05898C8.60359 13.9994 8.23548 13.6304 8.23548 13.1759Z" fill="white" />
	<path fill-rule="evenodd" clip-rule="evenodd" d="M0.824141 0C0.368743 0 0.000637531 0.368929 0.000637531 0.823503V4.94102C0.000637531 5.39559 0.368743 5.76452 0.824141 5.76452C1.27954 5.76452 1.64764 5.39559 1.64764 4.94102V2.81144L5.18294 6.34674C5.34352 6.50732 5.55434 6.58802 5.76516 6.58802C5.97598 6.58802 6.18679 6.50732 6.34737 6.34674C6.66936 6.02475 6.66936 5.50429 6.34737 5.1823L2.81208 1.64701H4.94166C5.39705 1.64701 5.76516 1.27808 5.76516 0.823503C5.76516 0.368929 5.39705 0 4.94166 0H0.824141Z" fill="white" />
</svg>
