<svg width="16" height="22" viewBox="0 0 16 22" fill="none" xmlns="http://www.w3.org/2000/svg">
	<path d="M14.2001 4.7635V5.66349L14.5264 5.89203C14.8708 6.13333 15.3294 6.13333 15.6739 5.89201L16.0001 5.66349V4.7635C16.0001 3.27492 14.7887 2.06354 13.3001 2.06354H10.9728L11.5001 1.53614C11.8516 1.18473 11.8516 0.614975 11.5001 0.263561C11.1487 -0.0878533 10.579 -0.0878537 10.2276 0.26356L8.16399 2.32714C7.81252 2.6786 7.81252 3.24844 8.16399 3.59991L10.2276 5.66349C10.579 6.0149 11.1487 6.0149 11.5001 5.66349C11.8516 5.31207 11.8516 4.74232 11.5001 4.3909L10.9728 3.86351H13.3001C13.796 3.86351 14.2001 4.26761 14.2001 4.7635Z" fill="white" />
	<rect y="7.20117" width="14" height="14" rx="2" fill="white" />
</svg>
