<svg width="16" height="22" viewBox="0 0 16 22" fill="none" xmlns="http://www.w3.org/2000/svg">
	<path d="M1.79989 4.7635V5.66349L1.47364 5.89203C1.12919 6.13333 0.670564 6.13333 0.326114 5.89201L-8.67844e-05 5.66349V4.7635C-8.67844e-05 3.27492 1.2113 2.06354 2.69988 2.06354H5.02724L4.49985 1.53614C4.14844 1.18473 4.14844 0.614975 4.49985 0.263561C4.85126 -0.0878533 5.42102 -0.0878537 5.77243 0.26356L7.83601 2.32714C8.18748 2.6786 8.18748 3.24844 7.83601 3.59991L5.77243 5.66349C5.42102 6.0149 4.85126 6.0149 4.49985 5.66349C4.14844 5.31207 4.14844 4.74232 4.49985 4.3909L5.02724 3.86351H2.69988C2.20398 3.86351 1.79989 4.26761 1.79989 4.7635Z" fill="white" />
	<rect width="14" height="14" rx="2" transform="matrix(-1 0 0 1 16 7.20117)" fill="white" />
</svg>
