<svg width="16" height="18" viewBox="0 0 16 18" fill="none" xmlns="http://www.w3.org/2000/svg">
	<path d="M13.2335 9H1.7C1.58954 9 1.5 9.08954 1.5 9.2V15.6588C1.5 15.8116 1.6644 15.9079 1.79772 15.8333L13.3312 9.3745C13.511 9.27384 13.4395 9 13.2335 9Z" fill="white" />
	<path fill-rule="evenodd" clip-rule="evenodd" d="M1.38068 0C0.661855 0 0 0.555 0 1.332V16.667C0 17.445 0.661855 18 1.38068 18C1.61683 18 1.8592 17.939 2.08603 17.809L15.3304 10.145C16.2232 9.628 16.2232 8.379 15.3304 7.862L2.08707 0.191C1.8592 0.06 1.61683 0 1.38068 0ZM2.07153 2.515L13.2733 9.003L2.07153 15.485V2.515Z" fill="white" />
	<mask id="mask0" mask-type="alpha" maskUnits="userSpaceOnUse" x="0" y="0" width="16" height="18">
		<path fill-rule="evenodd" clip-rule="evenodd" d="M1.38068 0C0.661855 0 0 0.555 0 1.332V16.667C0 17.445 0.661855 18 1.38068 18C1.61683 18 1.8592 17.939 2.08603 17.809L15.3304 10.145C16.2232 9.628 16.2232 8.379 15.3304 7.862L2.08707 0.191C1.8592 0.06 1.61683 0 1.38068 0ZM2.07153 2.515L13.2733 9.003L2.07153 15.485V2.515Z" fill="white" />
	</mask>
	<g mask="url(#mask0)">
	</g>
	<mask id="mask1" mask-type="alpha" maskUnits="userSpaceOnUse" x="0" y="0" width="16" height="18">
		<path fill-rule="evenodd" clip-rule="evenodd" d="M1.38068 0C0.661855 0 0 0.555 0 1.332V16.667C0 17.445 0.661855 18 1.38068 18C1.61683 18 1.8592 17.939 2.08603 17.809L15.3304 10.145C16.2232 9.628 16.2232 8.379 15.3304 7.862L2.08707 0.191C1.8592 0.06 1.61683 0 1.38068 0ZM2.07153 2.515L13.2733 9.003L2.07153 15.485V2.515Z" fill="white" />
	</mask>
	<g mask="url(#mask1)">
	</g>
</svg>
