<svg width="14" height="14" viewBox="0 0 14 14" fill="none" xmlns="http://www.w3.org/2000/svg">
<path d="M7.22682 0.800781C3.65883 0.800781 0.769531 3.57837 0.769531 7.00077C0.769531 10.4232 3.65883 13.2008 7.22682 13.2008C10.8013 13.2008 13.697 10.4232 13.697 7.00077C13.697 3.57837 10.8013 0.800781 7.22682 0.800781ZM7.23328 11.9608C4.3763 11.9608 2.06228 9.74116 2.06228 7.00077C2.06228 4.26037 4.3763 2.04078 7.23328 2.04078C10.0903 2.04078 12.4043 4.26037 12.4043 7.00077C12.4043 9.74116 10.0903 11.9608 7.23328 11.9608ZM9.49559 6.38077C10.0321 6.38077 10.4652 5.96537 10.4652 5.45077C10.4652 4.93617 10.0321 4.52077 9.49559 4.52077C8.9591 4.52077 8.52603 4.93617 8.52603 5.45077C8.52603 5.96537 8.9591 6.38077 9.49559 6.38077ZM4.97097 6.38077C5.50746 6.38077 5.94053 5.96537 5.94053 5.45077C5.94053 4.93617 5.50746 4.52077 4.97097 4.52077C4.43448 4.52077 4.00141 4.93617 4.00141 5.45077C4.00141 5.96537 4.43448 6.38077 4.97097 6.38077ZM7.23328 10.4108C8.73934 10.4108 10.0192 9.50556 10.5363 8.24076H3.93031C4.44741 9.50556 5.72723 10.4108 7.23328 10.4108Z" fill="black"/>
</svg>
