<svg width="94" height="94" viewBox="0 0 94 94" fill="none" xmlns="http://www.w3.org/2000/svg">
<rect width="152" height="26" transform="translate(19.3137 -32.0711) rotate(45)" fill="url(#paint0_linear_103_166)"/>
<path d="M42.9245 16.9955L42.1124 16.1834L47.4392 10.8567L47.3812 10.7987L39.855 13.9261L39.1203 13.1914L42.2477 5.66523L42.1897 5.60723L36.863 10.934L36.0509 10.1219L43.026 3.14686L44.0362 4.15711L40.6043 12.3648L40.6816 12.4421L48.8893 9.01018L49.8996 10.0204L42.9245 16.9955ZM51.2433 16.1786C50.9662 15.9015 50.6552 15.7194 50.3104 15.6324C49.9721 15.5454 49.624 15.5518 49.2663 15.6517C48.9119 15.7549 48.5687 15.9498 48.2368 16.2366L51.108 19.1079C51.4109 18.7921 51.6171 18.4601 51.7267 18.1121C51.8395 17.7673 51.8556 17.4289 51.775 17.097C51.6977 16.7619 51.5205 16.4557 51.2433 16.1786ZM49.3968 20.7707L50.2283 21.6021C49.8512 21.818 49.4532 21.9324 49.0343 21.9453C48.6186 21.9614 48.2029 21.8776 47.7872 21.6939C47.3715 21.5102 46.9735 21.2283 46.5933 20.848C46.1099 20.3646 45.8022 19.8378 45.67 19.2674C45.5379 18.697 45.5782 18.1153 45.7909 17.5224C46.0068 16.9262 46.3887 16.3542 46.9365 15.8064C47.3457 15.3972 47.7711 15.0814 48.2126 14.859C48.6541 14.6367 49.0955 14.511 49.537 14.482C49.9817 14.4497 50.4103 14.5142 50.8228 14.6753C51.2417 14.8364 51.63 15.0959 51.9877 15.4536C52.4582 15.924 52.7547 16.4332 52.8771 16.981C53.006 17.5288 52.9641 18.0896 52.7515 18.6632C52.542 19.24 52.1682 19.7975 51.63 20.3356L51.311 20.6547L47.5649 16.9085L47.5262 16.9472C47.1975 17.3081 46.9703 17.6771 46.8446 18.0541C46.719 18.4311 46.6964 18.7985 46.777 19.1562C46.8607 19.5107 47.0509 19.8361 47.3473 20.1326C47.6825 20.4677 48.0225 20.6885 48.3673 20.7948C48.7153 20.898 49.0585 20.8899 49.3968 20.7707ZM53.9164 20.4178C54.1323 20.2019 54.3804 20.0504 54.6608 19.9634C54.9476 19.8764 55.2457 19.8523 55.555 19.8909C55.8708 19.9296 56.1834 20.0295 56.4928 20.1906C56.8054 20.3485 57.1002 20.566 57.3773 20.8432C57.7415 21.2073 58.0057 21.5876 58.1701 21.9839C58.3409 22.3803 58.4069 22.7686 58.3683 23.1489C58.3328 23.5323 58.191 23.8836 57.9429 24.2026L57.1212 23.3809C57.2726 23.1199 57.3129 22.8282 57.242 22.506C57.1743 22.1805 56.9826 21.8599 56.6668 21.5441C56.4605 21.3378 56.2398 21.1848 56.0046 21.0849C55.7758 20.985 55.5534 20.9431 55.3375 20.9592C55.1248 20.9785 54.9411 21.0655 54.7865 21.2202C54.606 21.4007 54.5319 21.623 54.5641 21.8873C54.5963 22.1515 54.7285 22.4738 54.9605 22.854L55.5695 23.8498C55.9401 24.4588 56.1319 24.9953 56.1447 25.4594C56.1641 25.9234 55.9868 26.3424 55.613 26.7162C55.381 26.9482 55.1152 27.1077 54.8155 27.1947C54.519 27.2849 54.2048 27.3059 53.8729 27.2575C53.5442 27.206 53.2139 27.0916 52.882 26.9143C52.5565 26.7371 52.2455 26.5003 51.9491 26.2038C51.5624 25.8171 51.2788 25.4175 51.0983 25.005C50.9179 24.5925 50.8454 24.1913 50.8808 23.8014C50.9195 23.4083 51.0661 23.0522 51.3207 22.7332L52.1762 23.5887C52.028 23.8788 51.9893 24.1913 52.0602 24.5265C52.1376 24.8616 52.3438 25.1968 52.679 25.5319C52.911 25.7639 53.1511 25.9363 53.3992 26.0491C53.6538 26.1619 53.8922 26.2102 54.1146 26.1941C54.3401 26.1748 54.5335 26.0846 54.6946 25.9234C55.0491 25.569 55.0185 25.0485 54.6028 24.3621L53.9261 23.2504C53.5587 22.6445 53.3702 22.1144 53.3605 21.6601C53.3541 21.2089 53.5394 20.7948 53.9164 20.4178ZM59.0015 25.5029C59.2174 25.287 59.4655 25.1355 59.7459 25.0485C60.0327 24.9615 60.3308 24.9373 60.6401 24.976C60.9559 25.0147 61.2685 25.1146 61.5779 25.2757C61.8904 25.4336 62.1853 25.6511 62.4624 25.9283C62.8266 26.2924 63.0908 26.6727 63.2552 27.069C63.426 27.4654 63.492 27.8537 63.4534 28.234C63.4179 28.6174 63.2761 28.9687 63.028 29.2877L62.2063 28.466C62.3577 28.205 62.398 27.9133 62.3271 27.5911C62.2594 27.2656 62.0677 26.945 61.7519 26.6292C61.5456 26.4229 61.3249 26.2698 61.0897 26.1699C60.8609 26.0701 60.6385 26.0282 60.4226 26.0443C60.2099 26.0636 60.0262 26.1506 59.8716 26.3053C59.6911 26.4858 59.617 26.7081 59.6492 26.9723C59.6814 27.2366 59.8136 27.5588 60.0456 27.9391L60.6546 28.9348C61.0252 29.5439 61.2169 30.0804 61.2298 30.5445C61.2492 31.0085 61.0719 31.4274 60.6981 31.8013C60.4661 32.0333 60.2003 32.1928 59.9006 32.2798C59.6041 32.37 59.2899 32.391 58.958 32.3426C58.6293 32.2911 58.299 32.1767 57.9671 31.9994C57.6416 31.8222 57.3306 31.5853 57.0342 31.2889C56.6475 30.9022 56.3639 30.5026 56.1834 30.0901C56.003 29.6776 55.9304 29.2764 55.9659 28.8865C56.0046 28.4934 56.1512 28.1373 56.4058 27.8183L57.2613 28.6738C57.1131 28.9638 57.0744 29.2764 57.1453 29.6116C57.2227 29.9467 57.4289 30.2818 57.764 30.617C57.9961 30.849 58.2361 31.0214 58.4843 31.1342C58.7389 31.247 58.9773 31.2953 59.1997 31.2792C59.4252 31.2599 59.6186 31.1696 59.7797 31.0085C60.1342 30.654 60.1036 30.1336 59.6879 29.4472L59.0112 28.3355C58.6438 27.7296 58.4553 27.1995 58.4456 26.7452C58.4392 26.294 58.6245 25.8799 59.0015 25.5029ZM62.7621 35.5571C63.0457 35.8406 63.3567 36.0388 63.695 36.1516C64.0366 36.2612 64.3702 36.2821 64.6956 36.2145C65.0211 36.1468 65.3079 35.9889 65.556 35.7407L66.0346 35.2622L64.5409 33.9523C64.1188 33.5817 63.745 33.3754 63.4195 33.3335C63.1005 33.2917 62.8105 33.4012 62.5494 33.6622C62.3722 33.8395 62.2659 34.0361 62.2304 34.252C62.1982 34.4711 62.2272 34.6934 62.3174 34.919C62.4141 35.1446 62.5623 35.3573 62.7621 35.5571ZM61.8776 36.1323C61.5424 35.7971 61.304 35.433 61.1622 35.0399C61.0236 34.6499 60.993 34.2616 61.0703 33.8749C61.1541 33.4882 61.3539 33.137 61.6697 32.8212C62.137 32.3539 62.6655 32.1541 63.2552 32.2218C63.8513 32.2895 64.4701 32.6085 65.1113 33.1789L66.7065 34.5903L67.1802 34.1166C67.5024 33.7944 67.649 33.4479 67.62 33.0774C67.5943 32.71 67.3864 32.3314 66.9965 31.9414C66.6839 31.6288 66.3681 31.4258 66.0491 31.3324C65.73 31.2389 65.4384 31.2663 65.1742 31.4146L64.3331 30.5735C64.6457 30.3318 64.9985 30.1981 65.3917 30.1723C65.7848 30.1465 66.1844 30.2238 66.5905 30.4043C67.0029 30.5848 67.3945 30.8603 67.7651 31.2309C68.1904 31.6562 68.4804 32.0848 68.6351 32.5166C68.793 32.9517 68.8172 33.3754 68.7076 33.7879C68.6045 34.2004 68.3725 34.5871 68.0116 34.948L64.4443 38.5153L63.6515 37.7226L64.4201 36.954L64.3428 36.8767C63.8981 36.9862 63.463 36.9766 63.0377 36.8477C62.6123 36.7188 62.2256 36.4803 61.8776 36.1323ZM68.901 41.3479C69.2232 41.6701 69.5761 41.8683 69.9596 41.9424C70.3463 42.0198 70.741 41.9795 71.1438 41.8216C71.5499 41.6669 71.9414 41.4011 72.3184 41.024C72.6955 40.647 72.9613 40.2555 73.116 39.8494C73.2739 39.4466 73.3142 39.0519 73.2368 38.6652C73.1627 38.2817 72.9645 37.9288 72.6423 37.6066C72.32 37.2843 71.9688 37.0878 71.5885 37.0169C71.2115 36.9492 70.8232 36.9959 70.4236 37.157C70.0272 37.3214 69.6405 37.5921 69.2635 37.9691C68.8865 38.3461 68.6158 38.7328 68.4514 39.1292C68.2903 39.5288 68.2436 39.9171 68.3113 40.2941C68.3822 40.6744 68.5787 41.0256 68.901 41.3479ZM66.1264 44.1998C65.7075 43.7809 65.4014 43.3555 65.208 42.9237C65.0114 42.4951 64.9276 42.0794 64.9566 41.6766C64.9857 41.2802 65.1226 40.9177 65.3675 40.589L66.2473 41.4687C66.0797 41.7265 66.0459 42.0311 66.1457 42.3823C66.2424 42.7368 66.4777 43.1009 66.8515 43.4747C67.3187 43.942 67.7924 44.1966 68.2726 44.2385C68.7527 44.2868 69.1846 44.1192 69.568 43.7358L70.5928 42.711L70.5154 42.6337C70.0643 42.7561 69.618 42.7545 69.1765 42.6288C68.7382 42.4999 68.3403 42.2566 67.9826 41.8989C67.5314 41.4478 67.2511 40.9515 67.1415 40.4101C67.0352 39.8655 67.0883 39.3097 67.301 38.7425C67.5169 38.1721 67.8843 37.6275 68.4031 37.1087C68.793 36.7188 69.1974 36.4142 69.6164 36.1951C70.0417 35.976 70.4655 35.8455 70.8876 35.8036C71.3098 35.7617 71.7174 35.8116 72.1106 35.9534C72.5069 36.0984 72.8727 36.3385 73.2078 36.6737C73.4527 36.9186 73.6445 37.1876 73.7831 37.4809C73.9248 37.7709 74.0102 38.069 74.0392 38.3751C74.0747 38.6813 74.0489 38.9777 73.9619 39.2645L74.0392 39.3419L74.8658 38.5153L75.6585 39.308L70.3559 44.6107C69.966 45.0006 69.5342 45.2423 69.0605 45.3357C68.5836 45.4324 68.0937 45.3841 67.591 45.1907C67.0883 45.0038 66.6001 44.6735 66.1264 44.1998ZM72.0332 46.1043L77.244 40.8935L78.0754 41.7249L72.8646 46.9357L72.0332 46.1043ZM78.6651 40.3038C78.5588 40.1975 78.4863 40.0734 78.4476 39.9316C78.4122 39.793 78.4122 39.6545 78.4476 39.5159C78.4863 39.3741 78.5588 39.25 78.6651 39.1437C78.7715 39.0374 78.8939 38.9665 79.0325 38.931C79.1743 38.8923 79.3145 38.8907 79.453 38.9262C79.5948 38.9649 79.7189 39.0374 79.8252 39.1437C79.9316 39.25 80.0025 39.3725 80.0379 39.5111C80.0766 39.6529 80.0766 39.7946 80.0379 39.9364C80.0025 40.075 79.9316 40.1975 79.8252 40.3038C79.7189 40.4101 79.5948 40.4826 79.453 40.5213C79.3145 40.5568 79.1743 40.5552 79.0325 40.5165C78.8939 40.481 78.7715 40.4101 78.6651 40.3038ZM74.4501 48.5212L79.6609 43.3104L80.4536 44.1031L79.6319 44.9249L79.7092 45.0022C80.1249 44.8443 80.5422 44.8137 80.9612 44.9103C81.3801 45.007 81.7893 45.2552 82.1889 45.6547C82.7754 46.2412 83.0574 46.8583 83.0348 47.5061C83.0187 48.1538 82.7013 48.787 82.0826 49.4057L78.7086 52.7797L77.8772 51.9483L81.0482 48.7773C81.5186 48.3069 81.7652 47.8573 81.7877 47.4287C81.8135 47.0034 81.6185 46.5828 81.2028 46.1671C80.9257 45.89 80.6244 45.7079 80.2989 45.6209C79.9799 45.5339 79.6528 45.5452 79.3177 45.6547C78.9858 45.7611 78.6684 45.9657 78.3654 46.2686L75.2815 49.3526L74.4501 48.5212ZM83.1508 55.5977C83.4731 55.92 83.8259 56.1182 84.2094 56.1923C84.5961 56.2696 84.9909 56.2294 85.3937 56.0714C85.7997 55.9168 86.1913 55.6509 86.5683 55.2739C86.9453 54.8969 87.2112 54.5053 87.3659 54.0993C87.5238 53.6965 87.564 53.3017 87.4867 52.915C87.4126 52.5315 87.2144 52.1787 86.8922 51.8564C86.5699 51.5342 86.2186 51.3376 85.8384 51.2667C85.4614 51.199 85.0731 51.2458 84.6735 51.4069C84.2771 51.5712 83.8904 51.8419 83.5134 52.219C83.1363 52.596 82.8656 52.9827 82.7013 53.3791C82.5402 53.7786 82.4934 54.167 82.5611 54.544C82.632 54.9242 82.8286 55.2755 83.1508 55.5977ZM80.3763 58.4496C79.9573 58.0307 79.6512 57.6054 79.4579 57.1735C79.2613 56.745 79.1775 56.3292 79.2065 55.9264C79.2355 55.5301 79.3725 55.1675 79.6174 54.8388L80.4971 55.7186C80.3295 55.9764 80.2957 56.2809 80.3956 56.6322C80.4923 56.9866 80.7275 57.3508 81.1013 57.7246C81.5686 58.1918 82.0423 58.4464 82.5225 58.4883C83.0026 58.5367 83.4344 58.3691 83.8179 57.9856L84.8426 56.9609L84.7653 56.8835C84.3142 57.006 83.8678 57.0044 83.4264 56.8787C82.9881 56.7498 82.5901 56.5065 82.2324 56.1488C81.7813 55.6976 81.5009 55.2014 81.3914 54.66C81.285 54.1154 81.3382 53.5595 81.5509 52.9924C81.7668 52.422 82.1341 51.8774 82.653 51.3586C83.0429 50.9686 83.4473 50.6641 83.8662 50.445C84.2916 50.2258 84.7154 50.0953 85.1375 50.0534C85.5597 50.0116 85.9673 50.0615 86.3604 50.2033C86.7568 50.3483 87.1226 50.5884 87.4577 50.9235C87.7026 51.1684 87.8943 51.4375 88.0329 51.7308C88.1747 52.0208 88.2601 52.3189 88.2891 52.625C88.3245 52.9311 88.2988 53.2276 88.2118 53.5144L88.2891 53.5917L89.1157 52.7652L89.9084 53.5579L84.6058 58.8605C84.2159 59.2504 83.7841 59.4921 83.3104 59.5856C82.8334 59.6823 82.3436 59.6339 81.8409 59.4406C81.3382 59.2537 80.85 58.9234 80.3763 58.4496Z" fill="black"/>
<defs>
<linearGradient id="paint0_linear_103_166" x1="0" y1="0" x2="121.093" y2="76.0775" gradientUnits="userSpaceOnUse">
<stop offset="0.0501562" stop-color="#BFE4F8"/>
<stop offset="1" stop-color="#248AD3"/>
</linearGradient>
</defs>
</svg>
