<svg width="30" height="21" viewBox="0 0 30 21" fill="none" xmlns="http://www.w3.org/2000/svg">
<path d="M30 17.9941V19.1376C30 19.9784 29.2937 20.6847 28.4529 20.6847H20.1457H9.787H1.54709C0.706278 20.6847 0 19.9784 0 19.1376V17.9941H9.04709H20.852H30Z" fill="black"/>
<path d="M28.1499 2.75785V14.4283C28.1499 15.9417 26.9055 17.1861 25.392 17.1861H20.7508H9.14762H4.77543C3.26197 17.1861 2.01758 15.9417 2.01758 14.4283V2.75785C2.01758 1.24439 3.26197 0 4.77543 0H25.392C26.9055 0 28.1499 1.24439 28.1499 2.75785ZM25.762 14.2937V2.75785C25.762 2.42152 25.5265 2.1861 25.1902 2.1861H14.9324H4.80906C4.47274 2.1861 4.23731 2.45516 4.23731 2.75785V14.2937C4.23731 14.63 4.50637 14.8655 4.80906 14.8655H9.82027C10.4929 13.3184 11.5019 12.1749 12.5781 11.4686C12.9817 11.1659 13.3853 10.9978 13.7552 10.8296C14.1252 10.6951 14.5288 10.6278 14.8987 10.6278C15.336 10.6278 15.7732 10.7287 16.244 10.9305C16.6476 11.065 17.0512 11.3004 17.4212 11.6031C18.4638 12.343 19.4055 13.4529 20.0445 14.8991H25.1902C25.5265 14.8991 25.762 14.63 25.762 14.2937Z" fill="black"/>
<path d="M14.9327 3.19531C16.7488 3.19531 18.2623 4.67513 18.2623 6.52491C18.2623 8.37468 16.7488 9.85451 14.9327 9.85451C13.1165 9.85451 11.6367 8.37468 11.6367 6.52491C11.6367 4.70877 13.0829 3.22894 14.9327 3.19531Z" fill="black"/>
</svg>
