<svg width="86" height="87" viewBox="0 0 86 87" fill="none" xmlns="http://www.w3.org/2000/svg">
<rect width="132" height="26" transform="translate(18.3848 -25) rotate(45)" fill="url(#paint0_linear_102_3)"/>
<path d="M36.3145 14.7409L37.1942 15.6207C36.988 15.8978 36.8736 16.2055 36.851 16.5439C36.8317 16.879 36.901 17.2255 37.0589 17.5832C37.22 17.9376 37.4649 18.2792 37.7936 18.6079C38.1062 18.9205 38.4365 19.1477 38.7845 19.2895C39.1325 19.4313 39.4677 19.4828 39.7899 19.4441C40.1122 19.4055 40.3893 19.2701 40.6213 19.0381C40.9178 18.7416 41.0515 18.3823 41.0225 17.9602C40.9935 17.538 40.7986 17.0273 40.4377 16.4279L39.7754 15.3016C39.3017 14.5121 39.0713 13.8241 39.0842 13.2376C39.0971 12.6511 39.3517 12.1098 39.8479 11.6135C40.1444 11.317 40.4715 11.106 40.8292 10.9803C41.1933 10.8546 41.5704 10.8127 41.9603 10.8546C42.3567 10.8965 42.753 11.0222 43.1494 11.2316C43.549 11.4379 43.9325 11.7247 44.2998 12.092C44.6382 12.4304 44.9024 12.7913 45.0925 13.1748C45.2859 13.555 45.4035 13.9401 45.4454 14.3301C45.4905 14.7168 45.4583 15.0906 45.3487 15.4515C45.2424 15.8156 45.0587 16.1475 44.7977 16.4472L43.9228 15.5723C44.2193 15.1534 44.3272 14.7039 44.2466 14.2237C44.1725 13.7436 43.9179 13.286 43.4829 12.8509C43.1736 12.5416 42.8545 12.3192 42.5258 12.1839C42.2004 12.0518 41.8846 12.0099 41.5784 12.0582C41.2755 12.1033 41.0064 12.2435 40.7712 12.4787C40.4973 12.7526 40.378 13.0781 40.4135 13.4551C40.4522 13.8354 40.6503 14.3268 41.008 14.9294L41.5446 15.8527C41.9055 16.4521 42.1472 16.987 42.2696 17.4575C42.3985 17.928 42.4066 18.3549 42.2938 18.7384C42.1875 19.1219 41.9635 19.4844 41.6219 19.826C41.1966 20.2514 40.7196 20.5156 40.1911 20.6187C39.6659 20.7186 39.1213 20.6606 38.5573 20.4447C37.9966 20.2256 37.4504 19.8502 36.9187 19.3185C36.4257 18.8254 36.0712 18.3066 35.8553 17.762C35.6426 17.2206 35.5717 16.6889 35.6426 16.1669C35.7167 15.6481 35.9407 15.1727 36.3145 14.7409ZM47.6786 20.6139C47.4015 20.3368 47.0905 20.1547 46.7457 20.0677C46.4073 19.9807 46.0593 19.9871 45.7016 20.087C45.3471 20.1902 45.0039 20.3851 44.672 20.6719L47.5433 23.5432C47.8462 23.2274 48.0524 22.8954 48.162 22.5474C48.2748 22.2026 48.2909 21.8642 48.2103 21.5323C48.133 21.1972 47.9557 20.891 47.6786 20.6139ZM45.8321 25.206L46.6635 26.0374C46.2865 26.2533 45.8885 26.3677 45.4696 26.3806C45.0539 26.3967 44.6382 26.3129 44.2225 26.1292C43.8068 25.9455 43.4088 25.6636 43.0285 25.2833C42.5452 24.7999 42.2374 24.2731 42.1053 23.7027C41.9732 23.1323 42.0135 22.5506 42.2261 21.9577C42.442 21.3615 42.8239 20.7895 43.3717 20.2417C43.781 19.8325 44.2064 19.5167 44.6478 19.2943C45.0893 19.0719 45.5308 18.9463 45.9723 18.9173C46.417 18.885 46.8456 18.9495 47.2581 19.1106C47.677 19.2717 48.0653 19.5312 48.423 19.8889C48.8935 20.3593 49.1899 20.8685 49.3124 21.4163C49.4413 21.9641 49.3994 22.5248 49.1867 23.0985C48.9773 23.6753 48.6035 24.2328 48.0653 24.7709L47.7463 25.09L44.0001 21.3438L43.9615 21.3825C43.6328 21.7434 43.4056 22.1124 43.2799 22.4894C43.1542 22.8664 43.1317 23.2338 43.2122 23.5915C43.296 23.946 43.4861 24.2714 43.7826 24.5679C44.1177 24.903 44.4577 25.1238 44.8025 25.2301C45.1506 25.3333 45.4937 25.3252 45.8321 25.206ZM50.3517 24.8531C50.5676 24.6372 50.8157 24.4857 51.096 24.3987C51.3829 24.3117 51.6809 24.2876 51.9903 24.3262C52.3061 24.3649 52.6187 24.4648 52.928 24.6259C53.2406 24.7838 53.5355 25.0013 53.8126 25.2785C54.1768 25.6426 54.441 26.0229 54.6053 26.4192C54.7761 26.8156 54.8422 27.2039 54.8035 27.5842C54.7681 27.9676 54.6263 28.3189 54.3782 28.6379L53.5564 27.8162C53.7079 27.5552 53.7482 27.2635 53.6773 26.9413C53.6096 26.6158 53.4179 26.2952 53.1021 25.9794C52.8958 25.7731 52.6751 25.6201 52.4398 25.5202C52.211 25.4203 51.9887 25.3784 51.7728 25.3945C51.5601 25.4138 51.3764 25.5008 51.2217 25.6555C51.0413 25.836 50.9671 26.0583 50.9994 26.3226C51.0316 26.5868 51.1637 26.909 51.3957 27.2893L52.0048 28.2851C52.3754 28.8941 52.5671 29.4306 52.58 29.8947C52.5993 30.3587 52.4221 30.7777 52.0483 31.1515C51.8163 31.3835 51.5504 31.543 51.2507 31.63C50.9543 31.7202 50.6401 31.7412 50.3082 31.6928C49.9795 31.6413 49.6492 31.5269 49.3172 31.3496C48.9918 31.1724 48.6808 30.9356 48.3843 30.6391C47.9976 30.2524 47.714 29.8528 47.5336 29.4403C47.3531 29.0278 47.2806 28.6266 47.3161 28.2367C47.3547 27.8436 47.5014 27.4875 47.7559 27.1685L48.6115 28.024C48.4633 28.3141 48.4246 28.6266 48.4955 28.9618C48.5728 29.2969 48.7791 29.6321 49.1142 29.9672C49.3462 30.1992 49.5863 30.3716 49.8344 30.4844C50.089 30.5972 50.3275 30.6455 50.5498 30.6294C50.7754 30.6101 50.9688 30.5199 51.1299 30.3587C51.4844 30.0043 51.4537 29.4838 51.038 28.7974L50.3613 27.6857C49.994 27.0798 49.8054 26.5497 49.7958 26.0954C49.7893 25.6442 49.9746 25.2301 50.3517 24.8531ZM55.4367 29.9382C55.6527 29.7223 55.9008 29.5708 56.1811 29.4838C56.4679 29.3968 56.766 29.3726 57.0754 29.4113C57.3912 29.45 57.7038 29.5499 58.0131 29.711C58.3257 29.8689 58.6206 30.0864 58.8977 30.3636C59.2618 30.7277 59.5261 31.108 59.6904 31.5043C59.8612 31.9007 59.9273 32.289 59.8886 32.6693C59.8532 33.0527 59.7114 33.404 59.4632 33.723L58.6415 32.9013C58.793 32.6403 58.8333 32.3486 58.7624 32.0264C58.6947 31.7009 58.5029 31.3803 58.1871 31.0645C57.9809 30.8582 57.7602 30.7051 57.5249 30.6052C57.2961 30.5054 57.0738 30.4635 56.8579 30.4796C56.6452 30.4989 56.4615 30.5859 56.3068 30.7406C56.1264 30.9211 56.0522 31.1434 56.0845 31.4076C56.1167 31.6719 56.2488 31.9941 56.4808 32.3744L57.0899 33.3701C57.4605 33.9792 57.6522 34.5157 57.6651 34.9798C57.6844 35.4438 57.5072 35.8627 57.1334 36.2366C56.9014 36.4686 56.6355 36.6281 56.3358 36.7151C56.0394 36.8053 55.7252 36.8263 55.3932 36.7779C55.0645 36.7264 54.7342 36.612 54.4023 36.4347C54.0769 36.2575 53.7659 36.0206 53.4694 35.7242C53.0827 35.3375 52.7991 34.9379 52.6187 34.5254C52.4382 34.1129 52.3657 33.7117 52.4012 33.3218C52.4398 32.9287 52.5865 32.5726 52.841 32.2536L53.6966 33.1091C53.5484 33.3991 53.5097 33.7117 53.5806 34.0469C53.6579 34.382 53.8642 34.7171 54.1993 35.0523C54.4313 35.2843 54.6714 35.4567 54.9195 35.5695C55.1741 35.6823 55.4126 35.7306 55.6349 35.7145C55.8605 35.6952 56.0539 35.6049 56.215 35.4438C56.5695 35.0893 56.5388 34.5689 56.1231 33.8825L55.4464 32.7708C55.079 32.1649 54.8905 31.6348 54.8809 31.1805C54.8744 30.7293 55.0597 30.3152 55.4367 29.9382ZM56.9739 39.045L62.1846 33.8342L63.016 34.6656L57.8053 39.8764L56.9739 39.045ZM63.6058 33.2445C63.4994 33.1381 63.4269 33.0141 63.3882 32.8723C63.3528 32.7337 63.3528 32.5951 63.3882 32.4566C63.4269 32.3148 63.4994 32.1907 63.6058 32.0844C63.7121 31.978 63.8346 31.9071 63.9731 31.8717C64.1149 31.833 64.2551 31.8314 64.3937 31.8669C64.5355 31.9055 64.6595 31.978 64.7659 32.0844C64.8722 32.1907 64.9431 32.3132 64.9785 32.4517C65.0172 32.5935 65.0172 32.7353 64.9785 32.8771C64.9431 33.0157 64.8722 33.1381 64.7659 33.2445C64.6595 33.3508 64.5355 33.4233 64.3937 33.462C64.2551 33.4974 64.1149 33.4958 63.9731 33.4572C63.8346 33.4217 63.7121 33.3508 63.6058 33.2445ZM61.4402 43.695C60.9472 43.202 60.6282 42.667 60.4832 42.0902C60.3446 41.5134 60.3784 40.9253 60.5847 40.3259C60.7941 39.7297 61.1776 39.1529 61.7351 38.5954C62.2926 38.0379 62.8694 37.6544 63.4656 37.445C64.0682 37.2355 64.6563 37.2017 65.2299 37.3435C65.8067 37.4885 66.3417 37.8075 66.8347 38.3006C67.3277 38.7936 67.6452 39.3269 67.7869 39.9005C67.932 40.4774 67.8981 41.0655 67.6854 41.6648C67.4792 42.2642 67.0973 42.8427 66.5398 43.4002C65.9824 43.9576 65.4039 44.3395 64.8045 44.5457C64.2084 44.7552 63.6203 44.789 63.0402 44.6473C62.4666 44.5055 61.9333 44.1881 61.4402 43.695ZM62.1895 42.9458C62.6825 43.4388 63.2336 43.6483 63.8426 43.5742C64.4517 43.5 65.0639 43.1552 65.6794 42.5397C66.2982 41.921 66.643 41.3088 66.7139 40.7029C66.788 40.0939 66.5785 39.5428 66.0855 39.0498C65.5924 38.5567 65.0414 38.3473 64.4323 38.4214C63.8265 38.4923 63.2142 38.8371 62.5955 39.4558C61.98 40.0713 61.6352 40.6836 61.5611 41.2926C61.487 41.9017 61.6964 42.4527 62.1895 42.9458ZM65.2396 47.3106L70.4503 42.0999L71.2431 42.8926L70.4213 43.7143L70.4987 43.7917C70.9144 43.6338 71.3317 43.6032 71.7506 43.6998C72.1695 43.7965 72.5788 44.0446 72.9784 44.4442C73.5649 45.0307 73.8468 45.6478 73.8243 46.2956C73.8082 46.9433 73.4908 47.5765 72.872 48.1952L69.4981 51.5692L68.6667 50.7378L71.8376 47.5668C72.3081 47.0963 72.5546 46.6468 72.5772 46.2182C72.603 45.7929 72.408 45.3723 71.9923 44.9566C71.7152 44.6795 71.4139 44.4974 71.0884 44.4104C70.7694 44.3234 70.4423 44.3347 70.1071 44.4442C69.7752 44.5506 69.4578 44.7552 69.1549 45.0581L66.071 48.142L65.2396 47.3106Z" fill="black"/>
<defs>
<linearGradient id="paint0_linear_102_3" x1="-49.0624" y1="-6.09189" x2="107.066" y2="74.93" gradientUnits="userSpaceOnUse">
<stop offset="0.0501562" stop-color="#BFE4F8"/>
<stop offset="1" stop-color="#248AD3"/>
</linearGradient>
</defs>
</svg>
