<svg width="30" height="30" viewBox="0 0 30 30" fill="none" xmlns="http://www.w3.org/2000/svg">
<path fill-rule="evenodd" clip-rule="evenodd" d="M7.85714 0.892578C8.25163 0.892578 8.57143 1.21238 8.57143 1.60686V3.03544H21.4286V1.60686C21.4286 1.21238 21.7484 0.892578 22.1429 0.892578C22.5373 0.892578 22.8571 1.21238 22.8571 1.60686V3.03544H26.4286C28.401 3.03544 30 4.63442 30 6.60686V10.1783V25.5354C30 27.5079 28.401 29.1069 26.4286 29.1069H3.57143C1.59899 29.1069 0 27.5079 0 25.5354V10.1783V6.60686C0 4.63442 1.59899 3.03544 3.57143 3.03544H7.14286V1.60686C7.14286 1.21238 7.46266 0.892578 7.85714 0.892578ZM7.14286 4.46401H3.57143C2.38796 4.46401 1.42857 5.42339 1.42857 6.60686V9.46401H28.5714V6.60686C28.5714 5.42339 27.612 4.46401 26.4286 4.46401H22.8571V5.89258C22.8571 6.28706 22.5373 6.60686 22.1429 6.60686C21.7484 6.60686 21.4286 6.28706 21.4286 5.89258V4.46401H8.57143V5.89258C8.57143 6.28706 8.25163 6.60686 7.85714 6.60686C7.46266 6.60686 7.14286 6.28706 7.14286 5.89258V4.46401ZM28.5714 10.8926H1.42857V25.5354C1.42857 26.7189 2.38796 27.6783 3.57143 27.6783H26.4286C27.612 27.6783 28.5714 26.7189 28.5714 25.5354V10.8926ZM5.7143 15.5354C5.7143 15.141 6.0341 14.8211 6.42859 14.8211H6.43511H6.44163H6.44814H6.45464H6.46113H6.46761H6.47407H6.48053H6.48697H6.4934H6.49983H6.50624H6.51264H6.51903H6.52541H6.53179H6.53814H6.54449H6.55083H6.55716H6.56347H6.56977H6.57607H6.58236H6.58863H6.5949H6.60116H6.6074H6.61364H6.61986H6.62609H6.63229H6.63849H6.64467H6.65084H6.65701H6.66317H6.66931H6.67546H6.68159H6.6877H6.69381H6.69991H6.706H6.71209H6.71816H6.72423H6.73029H6.73633H6.74236H6.74839H6.7544H6.76041H6.76641H6.7724H6.77839H6.78436H6.79033H6.79629H6.80223H6.80817H6.8141H6.82003H6.82594H6.83184H6.83774H6.84363H6.84951H6.85539H6.86124H6.8671H6.87294H6.87879H6.88461H6.89044H6.89626H6.90207H6.90787H6.91366H6.91944H6.92521H6.93099H6.93674H6.9425H6.94824H6.95399H6.95971H6.96544H6.97116H6.97687H6.98257H6.98827H6.99396H6.99963H7.0053H7.01097H7.01663H7.02229H7.02793H7.03357H7.0392H7.04483H7.05044H7.05606H7.06166H7.06726H7.07284H7.07843H7.08401H7.08959H7.09514H7.1007H7.10626H7.1118H7.11734H7.12289H7.12841H7.13393H7.13944H7.14496H7.15046H7.15596H7.16146H7.16694H7.17241H7.17789H7.18336H7.18883H7.19429H7.19973H7.20519H7.21063H7.21606H7.22149H7.22691H7.23233H7.23774H7.24316H7.24856H7.25396H7.25936H7.26474H7.27013H7.27551H7.28089H7.28626H7.29161H7.29697H7.30233H7.30769H7.31303H7.31837H7.3237H7.32903H7.33436H7.33969H7.345H7.35031H7.35563H7.36093H7.36623H7.37153H7.37683H7.38211H7.3874H7.39269H7.39796H7.40323H7.4085H7.41377H7.41903H7.42429H7.42954H7.43479H7.44004H7.44529H7.45053H7.45576H7.46099H7.46623H7.47144H7.47667H7.48189H7.48711H7.49233H7.49753H7.50274H7.50794H7.51314H7.51834H7.52354H7.52873H7.53393H7.53911H7.5443H7.54947H7.55466H7.55983H7.56501H7.57019H7.57534H7.58051H7.58569H7.59084H7.596H7.60116H7.60631H7.61147H7.61661H7.62177H7.62691H7.63206H7.6372H7.64234H7.64749H7.65261H7.65776H7.66289H7.66803H7.67316H7.67829H7.68341H7.68854H7.69366H7.69879H7.70391H7.70903H7.71414H7.71927H7.72439H7.7295H7.73461H7.73973H7.74484H7.74996H7.75506H7.76017H7.76529H7.77039H7.7755H7.7806H7.78571H7.79081H7.79591H7.80103H7.80613H7.81123H7.81634H7.82144H7.82654H7.83164H7.83674H7.84184H7.84696H7.85206H7.85716H7.86226H7.86736H7.87246H7.87756H7.88266H7.88777H7.89287H7.89797H7.90307H7.90817H7.91329H7.91839H7.92349H7.9286H7.9337H7.93881H7.94391H7.94903H7.95413H7.95924H7.96436H7.96947H7.97459H7.9797H7.98481H7.98993H7.99504H8.00016H8.00529H8.0104H8.01553H8.02064H8.02577H8.0309H8.03603H8.04116H8.04629H8.05141H8.05656H8.06169H8.06683H8.07196H8.0771H8.08224H8.08739H8.09254H8.09769H8.10284H8.108H8.11314H8.1183H8.12347H8.12863H8.13379H8.13896H8.14413H8.1493H8.15447H8.15966H8.16483H8.17001H8.1752H8.18039H8.18557H8.19077H8.19596H8.20116H8.20636H8.21157H8.21677H8.22199H8.2272H8.23241H8.23763H8.24286H8.24809H8.25331H8.25854H8.26379H8.26903H8.27427H8.27951H8.28477H8.29001H8.29527H8.30054H8.3058H8.31107H8.31634H8.32163H8.32691H8.33219H8.33749H8.34277H8.34807H8.35337H8.35869H8.36399H8.3693H8.37463H8.37994H8.38527H8.3906H8.39594H8.40129H8.40663H8.41197H8.41733H8.42269H8.42806H8.43343H8.4388H8.44417H8.44956H8.45496H8.46034H8.46574H8.47114H8.47656H8.48197H8.48739H8.49282H8.49824H8.50369H8.50913H8.51457H8.52003H8.52549H8.53094H8.53641H8.54189H8.54737H8.55286H8.55834H8.56384H8.56936H8.57486H8.58037H8.5859H8.59143H8.59696H8.6025H8.60804H8.6136H8.61916H8.62473H8.6303H8.63587H8.64146H8.64706H8.65266H8.65826H8.66387H8.66949H8.67511H8.68074H8.68637H8.69203H8.69767H8.70333H8.709H8.71467H8.72036H8.72604H8.73174H8.73744H8.74314H8.74887H8.75459H8.76031H8.76606H8.7718H8.77756H8.78331H8.78909H8.79487H8.80064H8.80644H8.81224H8.81804H8.82386H8.82969H8.83552H8.84136H8.8472H8.85306H8.85893H8.8648H8.87069H8.87657H8.88246H8.88837H8.89429H8.9002H8.90613H8.91207H8.91803H8.92399H8.92994H8.93591H8.9419H8.94789H8.95389H8.9599H8.96591H8.97194H8.97799H8.98403H8.99009H8.99614H9.00221H9.0083H9.01439H9.02049H9.0266H9.03273H9.03886H9.04499H9.05114H9.0573H9.06346H9.06964H9.07583H9.08201H9.08823H9.09444H9.10067H9.1069H9.11314H9.1194H9.12567H9.13194H9.13823H9.14453H9.15084H9.15716H9.16349H9.16981H9.17617H9.18253H9.1889H9.19527H9.20167H9.20807H9.21447H9.2209H9.22733H9.23377H9.24023H9.2467H9.25317H9.25966H9.26616H9.27267H9.27919H9.28573C9.68021 14.8211 10 15.141 10 15.5354C10 15.9299 9.68021 16.2497 9.28573 16.2497H9.27919H9.27267H9.26616H9.25966H9.25317H9.2467H9.24023H9.23377H9.22733H9.2209H9.21447H9.20807H9.20167H9.19527H9.1889H9.18253H9.17617H9.16981H9.16349H9.15716H9.15084H9.14453H9.13823H9.13194H9.12567H9.1194H9.11314H9.1069H9.10067H9.09444H9.08823H9.08201H9.07583H9.06964H9.06346H9.0573H9.05114H9.04499H9.03886H9.03273H9.0266H9.02049H9.01439H9.0083H9.00221H8.99614H8.99009H8.98403H8.97799H8.97194H8.96591H8.9599H8.95389H8.94789H8.9419H8.93591H8.92994H8.92399H8.91803H8.91207H8.90613H8.9002H8.89429H8.88837H8.88246H8.87657H8.87069H8.8648H8.85893H8.85306H8.8472H8.84136H8.83552H8.82969H8.82386H8.81804H8.81224H8.80644H8.80064H8.79487H8.78909H8.78331H8.77756H8.7718H8.76606H8.76031H8.75459H8.74887H8.74314H8.73744H8.73174H8.72604H8.72036H8.71467H8.709H8.70333H8.69767H8.69203H8.68637H8.68074H8.67511H8.66949H8.66387H8.65826H8.65266H8.64706H8.64146H8.63587H8.6303H8.62473H8.61916H8.6136H8.60804H8.6025H8.59696H8.59143H8.5859H8.58037H8.57486H8.56936H8.56384H8.55834H8.55286H8.54737H8.54189H8.53641H8.53094H8.52549H8.52003H8.51457H8.50913H8.50369H8.49824H8.49282H8.48739H8.48197H8.47656H8.47114H8.46574H8.46034H8.45496H8.44956H8.44417H8.4388H8.43343H8.42806H8.42269H8.41733H8.41197H8.40663H8.40129H8.39594H8.3906H8.38527H8.37994H8.37463H8.3693H8.36399H8.35869H8.35337H8.34807H8.34277H8.33749H8.33219H8.32691H8.32163H8.31634H8.31107H8.3058H8.30054H8.29527H8.29001H8.28477H8.27951H8.27427H8.26903H8.26379H8.25854H8.25331H8.24809H8.24286H8.23763H8.23241H8.2272H8.22199H8.21677H8.21157H8.20636H8.20116H8.19596H8.19077H8.18557H8.18039H8.1752H8.17001H8.16483H8.15966H8.15447H8.1493H8.14413H8.13896H8.13379H8.12863H8.12347H8.1183H8.11314H8.108H8.10284H8.09769H8.09254H8.08739H8.08224H8.0771H8.07196H8.06683H8.06169H8.05656H8.05141H8.04629H8.04116H8.03603H8.0309H8.02577H8.02064H8.01553H8.0104H8.00529H8.00016H7.99504H7.98993H7.98481H7.9797H7.97459H7.96947H7.96436H7.95924H7.95413H7.94903H7.94391H7.93881H7.9337H7.9286H7.92349H7.91839H7.91329H7.90817H7.90307H7.89797H7.89287H7.88777H7.88266H7.87756H7.87246H7.86736H7.86226H7.85716H7.85206H7.84696H7.84184H7.83674H7.83164H7.82654H7.82144H7.81634H7.81123H7.80613H7.80103H7.79591H7.79081H7.78571H7.7806H7.7755H7.77039H7.76529H7.76017H7.75506H7.74996H7.74484H7.73973H7.73461H7.7295H7.72439H7.71927H7.71414H7.70903H7.70391H7.69879H7.69366H7.68854H7.68341H7.67829H7.67316H7.66803H7.66289H7.65776H7.65261H7.64749H7.64234H7.6372H7.63206H7.62691H7.62177H7.61661H7.61147H7.60631H7.60116H7.596H7.59084H7.58569H7.58051H7.57534H7.57019H7.56501H7.55983H7.55466H7.54947H7.5443H7.53911H7.53393H7.52873H7.52354H7.51834H7.51314H7.50794H7.50274H7.49753H7.49233H7.48711H7.48189H7.47667H7.47144H7.46623H7.46099H7.45576H7.45053H7.44529H7.44004H7.43479H7.42954H7.42429H7.41903H7.41377H7.4085H7.40323H7.39796H7.39269H7.3874H7.38211H7.37683H7.37153H7.36623H7.36093H7.35563H7.35031H7.345H7.33969H7.33436H7.32903H7.3237H7.31837H7.31303H7.30769H7.30233H7.29697H7.29161H7.28626H7.28089H7.27551H7.27013H7.26474H7.25936H7.25396H7.24856H7.24316H7.23774H7.23233H7.22691H7.22149H7.21606H7.21063H7.20519H7.19973H7.19429H7.18883H7.18336H7.17789H7.17241H7.16694H7.16146H7.15596H7.15046H7.14496H7.13944H7.13393H7.12841H7.12289H7.11734H7.1118H7.10626H7.1007H7.09514H7.08959H7.08401H7.07843H7.07284H7.06726H7.06166H7.05606H7.05044H7.04483H7.0392H7.03357H7.02793H7.02229H7.01663H7.01097H7.0053H6.99963H6.99396H6.98827H6.98257H6.97687H6.97116H6.96544H6.95971H6.95399H6.94824H6.9425H6.93674H6.93099H6.92521H6.91944H6.91366H6.90787H6.90207H6.89626H6.89044H6.88461H6.87879H6.87294H6.8671H6.86124H6.85539H6.84951H6.84363H6.83774H6.83184H6.82594H6.82003H6.8141H6.80817H6.80223H6.79629H6.79033H6.78436H6.77839H6.7724H6.76641H6.76041H6.7544H6.74839H6.74236H6.73633H6.73029H6.72423H6.71816H6.71209H6.706H6.69991H6.69381H6.6877H6.68159H6.67546H6.66931H6.66317H6.65701H6.65084H6.64467H6.63849H6.63229H6.62609H6.61986H6.61364H6.6074H6.60116H6.5949H6.58863H6.58236H6.57607H6.56977H6.56347H6.55716H6.55083H6.54449H6.53814H6.53179H6.52541H6.51903H6.51264H6.50624H6.49983H6.4934H6.48697H6.48053H6.47407H6.46761H6.46113H6.45464H6.44814H6.44163H6.43511H6.42859C6.0341 16.2497 5.7143 15.9299 5.7143 15.5354ZM12.8571 15.5354C12.8571 15.141 13.177 14.8211 13.5714 14.8211H13.578H13.5844H13.591H13.5976H13.604H13.6104H13.617H13.6234H13.6299H13.6363H13.6427H13.6491H13.6554H13.6619H13.6683H13.6746H13.681H13.6873H13.6937H13.7H13.7063H13.7126H13.719H13.7253H13.7314H13.7377H13.744H13.7503H13.7564H13.7627H13.769H13.7751H13.7813H13.7876H13.7937H13.7999H13.806H13.8121H13.8183H13.8244H13.8306H13.8367H13.8427H13.8489H13.855H13.861H13.8671H13.8731H13.8791H13.8853H13.8913H13.8973H13.9033H13.9093H13.9153H13.9213H13.9273H13.9331H13.9391H13.9451H13.951H13.957H13.9629H13.9689H13.9747H13.9806H13.9864H13.9924H13.9983H14.0041H14.01H14.0159H14.0217H14.0274H14.0333H14.0391H14.0449H14.0507H14.0566H14.0623H14.0681H14.0739H14.0796H14.0854H14.0911H14.0969H14.1026H14.1083H14.114H14.1197H14.1254H14.1311H14.1369H14.1424H14.1481H14.1539H14.1594H14.1651H14.1707H14.1764H14.182H14.1877H14.1933H14.1989H14.2046H14.2101H14.2157H14.2213H14.2269H14.2324H14.238H14.2436H14.2491H14.2547H14.2601H14.2657H14.2713H14.2769H14.2823H14.2879H14.2933H14.2989H14.3043H14.3099H14.3153H14.3207H14.3263H14.3317H14.3371H14.3426H14.348H14.3534H14.3589H14.3643H14.3697H14.3751H14.3806H14.386H14.3914H14.3969H14.4021H14.4076H14.413H14.4184H14.4237H14.4291H14.4344H14.4399H14.4451H14.4506H14.4559H14.4613H14.4666H14.4719H14.4773H14.4826H14.4879H14.4931H14.4984H14.5039H14.5091H14.5144H14.5197H14.525H14.5303H14.5356H14.5409H14.5461H14.5514H14.5566H14.5619H14.5671H14.5724H14.5777H14.5829H14.5881H14.5934H14.5986H14.6039H14.6091H14.6143H14.6196H14.6247H14.63H14.6351H14.6404H14.6456H14.6509H14.656H14.6611H14.6664H14.6716H14.6767H14.682H14.6871H14.6923H14.6976H14.7027H14.7079H14.713H14.7181H14.7234H14.7286H14.7337H14.7389H14.744H14.7491H14.7543H14.7594H14.7646H14.7697H14.7749H14.78H14.7851H14.7903H14.7954H14.8006H14.8057H14.8109H14.816H14.8211H14.8263H14.8314H14.8366H14.8416H14.8467H14.8519H14.857H14.8621H14.8673H14.8723H14.8774H14.8826H14.8877H14.8929H14.8979H14.903H14.9081H14.9133H14.9183H14.9234H14.9286H14.9337H14.9387H14.9439H14.949H14.9541H14.9591H14.9643H14.9694H14.9746H14.9796H14.9847H14.9899H14.9949H15H15.0051H15.0101H15.0153H15.0204H15.0256H15.0306H15.0357H15.0409H15.046H15.051H15.0561H15.0613H15.0663H15.0714H15.0766H15.0817H15.0867H15.0919H15.097H15.1021H15.1071H15.1123H15.1174H15.1226H15.1277H15.1327H15.1379H15.143H15.1481H15.1533H15.1584H15.1636H15.1686H15.1737H15.1789H15.184H15.1891H15.1943H15.1994H15.2046H15.2097H15.2149H15.22H15.2251H15.2303H15.2354H15.2406H15.2457H15.2509H15.256H15.2611H15.2663H15.2714H15.2767H15.2819H15.287H15.2921H15.2973H15.3026H15.3077H15.3129H15.318H15.3233H15.3284H15.3336H15.3389H15.344H15.3493H15.3544H15.3596H15.3649H15.37H15.3753H15.3804H15.3857H15.391H15.3961H15.4014H15.4066H15.4119H15.4171H15.4224H15.4276H15.4329H15.4381H15.4434H15.4487H15.454H15.4591H15.4644H15.4697H15.475H15.4803H15.4856H15.491H15.4963H15.5016H15.5069H15.5121H15.5174H15.5229H15.5281H15.5334H15.5389H15.5441H15.5494H15.5549H15.5601H15.5656H15.5709H15.5763H15.5817H15.587H15.5924H15.5979H15.6031H15.6086H15.614H15.6194H15.6249H15.6303H15.6357H15.6411H15.6466H15.652H15.6574H15.6629H15.6683H15.6739H15.6793H15.6847H15.6903H15.6957H15.7011H15.7067H15.7121H15.7177H15.7233H15.7287H15.7343H15.7399H15.7454H15.7509H15.7564H15.762H15.7676H15.7731H15.7787H15.7843H15.7899H15.7956H15.8011H15.8067H15.8123H15.818H15.8236H15.8293H15.8349H15.8406H15.8461H15.8519H15.8576H15.8631H15.8689H15.8746H15.8803H15.886H15.8917H15.8974H15.9031H15.9089H15.9147H15.9204H15.9261H15.932H15.9377H15.9436H15.9493H15.9551H15.9609H15.9667H15.9726H15.9784H15.9843H15.99H15.9959H16.0017H16.0077H16.0136H16.0194H16.0253H16.0313H16.0371H16.043H16.049H16.055H16.0609H16.0669H16.0729H16.0787H16.0847H16.0907H16.0967H16.1027H16.1087H16.1149H16.1209H16.1269H16.133H16.139H16.1451H16.1511H16.1573H16.1633H16.1694H16.1756H16.1817H16.1879H16.194H16.2001H16.2063H16.2124H16.2187H16.2249H16.2311H16.2373H16.2436H16.2497H16.256H16.2623H16.2686H16.2749H16.2811H16.2874H16.2937H16.3H16.3063H16.3127H16.319H16.3254H16.3317H16.3381H16.3446H16.3509H16.3573H16.3637H16.3701H16.3766H16.3831H16.3896H16.396H16.4026H16.409H16.4156H16.422H16.4286C16.823 14.8211 17.1429 15.141 17.1429 15.5354C17.1429 15.9299 16.823 16.2497 16.4286 16.2497H16.422H16.4156H16.409H16.4026H16.396H16.3896H16.3831H16.3766H16.3701H16.3637H16.3573H16.3509H16.3446H16.3381H16.3317H16.3254H16.319H16.3127H16.3063H16.3H16.2937H16.2874H16.2811H16.2749H16.2686H16.2623H16.256H16.2497H16.2436H16.2373H16.2311H16.2249H16.2187H16.2124H16.2063H16.2001H16.194H16.1879H16.1817H16.1756H16.1694H16.1633H16.1573H16.1511H16.1451H16.139H16.133H16.1269H16.1209H16.1149H16.1087H16.1027H16.0967H16.0907H16.0847H16.0787H16.0729H16.0669H16.0609H16.055H16.049H16.043H16.0371H16.0313H16.0253H16.0194H16.0136H16.0077H16.0017H15.9959H15.99H15.9843H15.9784H15.9726H15.9667H15.9609H15.9551H15.9493H15.9436H15.9377H15.932H15.9261H15.9204H15.9147H15.9089H15.9031H15.8974H15.8917H15.886H15.8803H15.8746H15.8689H15.8631H15.8576H15.8519H15.8461H15.8406H15.8349H15.8293H15.8236H15.818H15.8123H15.8067H15.8011H15.7956H15.7899H15.7843H15.7787H15.7731H15.7676H15.762H15.7564H15.7509H15.7454H15.7399H15.7343H15.7287H15.7233H15.7177H15.7121H15.7067H15.7011H15.6957H15.6903H15.6847H15.6793H15.6739H15.6683H15.6629H15.6574H15.652H15.6466H15.6411H15.6357H15.6303H15.6249H15.6194H15.614H15.6086H15.6031H15.5979H15.5924H15.587H15.5817H15.5763H15.5709H15.5656H15.5601H15.5549H15.5494H15.5441H15.5389H15.5334H15.5281H15.5229H15.5174H15.5121H15.5069H15.5016H15.4963H15.491H15.4856H15.4803H15.475H15.4697H15.4644H15.4591H15.454H15.4487H15.4434H15.4381H15.4329H15.4276H15.4224H15.4171H15.4119H15.4066H15.4014H15.3961H15.391H15.3857H15.3804H15.3753H15.37H15.3649H15.3596H15.3544H15.3493H15.344H15.3389H15.3336H15.3284H15.3233H15.318H15.3129H15.3077H15.3026H15.2973H15.2921H15.287H15.2819H15.2767H15.2714H15.2663H15.2611H15.256H15.2509H15.2457H15.2406H15.2354H15.2303H15.2251H15.22H15.2149H15.2097H15.2046H15.1994H15.1943H15.1891H15.184H15.1789H15.1737H15.1686H15.1636H15.1584H15.1533H15.1481H15.143H15.1379H15.1327H15.1277H15.1226H15.1174H15.1123H15.1071H15.1021H15.097H15.0919H15.0867H15.0817H15.0766H15.0714H15.0663H15.0613H15.0561H15.051H15.046H15.0409H15.0357H15.0306H15.0256H15.0204H15.0153H15.0101H15.0051H15H14.9949H14.9899H14.9847H14.9796H14.9746H14.9694H14.9643H14.9591H14.9541H14.949H14.9439H14.9387H14.9337H14.9286H14.9234H14.9183H14.9133H14.9081H14.903H14.8979H14.8929H14.8877H14.8826H14.8774H14.8723H14.8673H14.8621H14.857H14.8519H14.8467H14.8416H14.8366H14.8314H14.8263H14.8211H14.816H14.8109H14.8057H14.8006H14.7954H14.7903H14.7851H14.78H14.7749H14.7697H14.7646H14.7594H14.7543H14.7491H14.744H14.7389H14.7337H14.7286H14.7234H14.7181H14.713H14.7079H14.7027H14.6976H14.6923H14.6871H14.682H14.6767H14.6716H14.6664H14.6611H14.656H14.6509H14.6456H14.6404H14.6351H14.63H14.6247H14.6196H14.6143H14.6091H14.6039H14.5986H14.5934H14.5881H14.5829H14.5777H14.5724H14.5671H14.5619H14.5566H14.5514H14.5461H14.5409H14.5356H14.5303H14.525H14.5197H14.5144H14.5091H14.5039H14.4984H14.4931H14.4879H14.4826H14.4773H14.4719H14.4666H14.4613H14.4559H14.4506H14.4451H14.4399H14.4344H14.4291H14.4237H14.4184H14.413H14.4076H14.4021H14.3969H14.3914H14.386H14.3806H14.3751H14.3697H14.3643H14.3589H14.3534H14.348H14.3426H14.3371H14.3317H14.3263H14.3207H14.3153H14.3099H14.3043H14.2989H14.2933H14.2879H14.2823H14.2769H14.2713H14.2657H14.2601H14.2547H14.2491H14.2436H14.238H14.2324H14.2269H14.2213H14.2157H14.2101H14.2046H14.1989H14.1933H14.1877H14.182H14.1764H14.1707H14.1651H14.1594H14.1539H14.1481H14.1424H14.1369H14.1311H14.1254H14.1197H14.114H14.1083H14.1026H14.0969H14.0911H14.0854H14.0796H14.0739H14.0681H14.0623H14.0566H14.0507H14.0449H14.0391H14.0333H14.0274H14.0217H14.0159H14.01H14.0041H13.9983H13.9924H13.9864H13.9806H13.9747H13.9689H13.9629H13.957H13.951H13.9451H13.9391H13.9331H13.9273H13.9213H13.9153H13.9093H13.9033H13.8973H13.8913H13.8853H13.8791H13.8731H13.8671H13.861H13.855H13.8489H13.8427H13.8367H13.8306H13.8244H13.8183H13.8121H13.806H13.7999H13.7937H13.7876H13.7813H13.7751H13.769H13.7627H13.7564H13.7503H13.744H13.7377H13.7314H13.7253H13.719H13.7126H13.7063H13.7H13.6937H13.6873H13.681H13.6746H13.6683H13.6619H13.6554H13.6491H13.6427H13.6363H13.6299H13.6234H13.617H13.6104H13.604H13.5976H13.591H13.5844H13.578H13.5714C13.177 16.2497 12.8571 15.9299 12.8571 15.5354ZM20 15.5354C20 15.141 20.3199 14.8211 20.7143 14.8211H23.5714C23.9659 14.8211 24.2857 15.141 24.2857 15.5354C24.2857 15.9299 23.9659 16.2497 23.5714 16.2497H20.7143C20.3199 16.2497 20 15.9299 20 15.5354ZM5.7143 21.2497C5.7143 20.8553 6.0341 20.5354 6.42859 20.5354H9.28573C9.68021 20.5354 10 20.8553 10 21.2497C10 21.6441 9.68021 21.964 9.28573 21.964H6.42859C6.0341 21.964 5.7143 21.6441 5.7143 21.2497ZM12.8571 21.2497C12.8571 20.8553 13.177 20.5354 13.5714 20.5354H16.4286C16.823 20.5354 17.1429 20.8553 17.1429 21.2497C17.1429 21.6441 16.823 21.964 16.4286 21.964H13.5714C13.177 21.964 12.8571 21.6441 12.8571 21.2497Z" fill="black"/>
</svg>
