<svg width="30" height="26" viewBox="0 0 30 26" fill="none" xmlns="http://www.w3.org/2000/svg">
<path d="M30 4.13552C30 3.08585 29.583 2.07917 28.8408 1.33694C28.0986 0.594714 27.0919 0.177734 26.0422 0.177734H3.95778C2.90811 0.177734 1.90144 0.594714 1.15921 1.33694C0.41698 2.07917 0 3.08585 0 4.13552V16.1672C0 17.2169 0.41698 18.2235 1.15921 18.9658C1.90144 19.708 2.90811 20.125 3.95778 20.125H4.86807V25.0326C4.87135 25.1792 4.91335 25.3223 4.98981 25.4474C5.06627 25.5726 5.17447 25.6752 5.30343 25.745L5.65963 25.8242C5.84154 25.8145 6.01826 25.7601 6.17414 25.6659L13.0607 20.125H26.0422C27.0919 20.125 28.0986 19.708 28.8408 18.9658C29.583 18.2235 30 17.2169 30 16.1672V4.13552ZM28.4169 16.1672C28.4169 16.797 28.1667 17.401 27.7214 17.8463C27.276 18.2917 26.672 18.5419 26.0422 18.5419H12.7836C12.5946 18.5474 12.4131 18.6172 12.2691 18.7397L6.45119 23.3703V19.3334C6.45119 19.1235 6.36779 18.9221 6.21935 18.7737C6.0709 18.6252 5.86956 18.5419 5.65963 18.5419H3.95778C3.32798 18.5419 2.72397 18.2917 2.27864 17.8463C1.8333 17.401 1.58311 16.797 1.58311 16.1672V4.13552C1.58311 3.50572 1.8333 2.90171 2.27864 2.45637C2.72397 2.01104 3.32798 1.76085 3.95778 1.76085H26.0422C26.672 1.76085 27.276 2.01104 27.7214 2.45637C28.1667 2.90171 28.4169 3.50572 28.4169 4.13552V16.1672Z" fill="black"/>
<path d="M9.06304 7.77647H15.3955C15.6054 7.77647 15.8068 7.69308 15.9552 7.54463C16.1037 7.39619 16.1871 7.19485 16.1871 6.98492C16.1871 6.77498 16.1037 6.57365 15.9552 6.4252C15.8068 6.27676 15.6054 6.19336 15.3955 6.19336H9.06304C8.85311 6.19336 8.65177 6.27676 8.50333 6.4252C8.35488 6.57365 8.27148 6.77498 8.27148 6.98492C8.27148 7.19485 8.35488 7.39619 8.50333 7.54463C8.65177 7.69308 8.85311 7.77647 9.06304 7.77647Z" fill="black"/>
<path d="M20.9364 12.1309H9.06304C8.85311 12.1309 8.65177 12.2143 8.50333 12.3627C8.35488 12.5111 8.27148 12.7125 8.27148 12.9224C8.27148 13.1323 8.35488 13.3337 8.50333 13.4821C8.65177 13.6306 8.85311 13.714 9.06304 13.714H20.9364C21.1463 13.714 21.3477 13.6306 21.4961 13.4821C21.6446 13.3337 21.7279 13.1323 21.7279 12.9224C21.7279 12.7125 21.6446 12.5111 21.4961 12.3627C21.3477 12.2143 21.1463 12.1309 20.9364 12.1309Z" fill="black"/>
</svg>
