<svg width="30" height="30" viewBox="0 0 30 30" fill="none" xmlns="http://www.w3.org/2000/svg">

<path transform="translate(5,5)" fill-rule="evenodd" clip-rule="evenodd" d="M5.01219 14C6.00019 12.208 6.00019 10.285 6.00019 8C6.00019 5.794 7.79419 4 10.0002 4C12.2062 4 14.0002 5.794 14.0002 8C14.0002 10.285 14.0002 12.208 14.9892 14H5.01219ZM11.0002 17C11.0002 17.552 10.5522 18 10.0002 18C9.44919 18 9.00019 17.552 9.00019 17C9.00019 16.448 9.44919 16 10.0002 16C10.5522 16 11.0002 16.448 11.0002 17ZM17.7072 14.293C16.0002 12.586 16.0002 10.957 16.0002 8C16.0002 5.033 13.8332 2.568 11.0002 2.09V1C11.0002 0.447 10.5532 0 10.0002 0C9.44819 0 9.00019 0.447 9.00019 1V2.09C6.16719 2.568 4.00019 5.033 4.00019 8C4.00019 10.957 4.00019 12.586 2.29319 14.293C2.00719 14.579 1.92119 15.009 2.07619 15.383C2.23119 15.757 2.59619 16 3.00019 16H7.18419C7.07019 16.313 7.00019 16.647 7.00019 17C7.00019 18.654 8.34619 20 10.0002 20C11.6552 20 13.0002 18.654 13.0002 17C13.0002 16.647 12.9312 16.313 12.8172 16H17.0002C17.4052 16 17.7702 15.757 17.9242 15.383C18.0792 15.009 17.9932 14.579 17.7072 14.293Z" fill="#E9ECF2"/>
<mask id="mask0" mask-type="alpha" maskUnits="userSpaceOnUse" x="5" y="5" width="17" height="20">
<path fill-rule="evenodd" clip-rule="evenodd" d="M5.01219 14C6.00019 12.208 6.00019 10.285 6.00019 8C6.00019 5.794 7.79419 4 10.0002 4C12.2062 4 14.0002 5.794 14.0002 8C14.0002 10.285 14.0002 12.208 14.9892 14H5.01219ZM11.0002 17C11.0002 17.552 10.5522 18 10.0002 18C9.44919 18 9.00019 17.552 9.00019 17C9.00019 16.448 9.44919 16 10.0002 16C10.5522 16 11.0002 16.448 11.0002 17ZM17.7072 14.293C16.0002 12.586 16.0002 10.957 16.0002 8C16.0002 5.033 13.8332 2.568 11.0002 2.09V1C11.0002 0.447 10.5532 0 10.0002 0C9.44819 0 9.00019 0.447 9.00019 1V2.09C6.16719 2.568 4.00019 5.033 4.00019 8C4.00019 10.957 4.00019 12.586 2.29319 14.293C2.00719 14.579 1.92119 15.009 2.07619 15.383C2.23119 15.757 2.59619 16 3.00019 16H7.18419C7.07019 16.313 7.00019 16.647 7.00019 17C7.00019 18.654 8.34619 20 10.0002 20C11.6552 20 13.0002 18.654 13.0002 17C13.0002 16.647 12.9312 16.313 12.8172 16H17.0002C17.4052 16 17.7702 15.757 17.9242 15.383C18.0792 15.009 17.9932 14.579 17.7072 14.293Z" fill="white"/>

</mask>
<g mask="url(#mask0)">
</g>
<circle transform="translate(21,1)" cx="4" cy="4" r="4" fill="url(#paint0_linear)"/>
<defs>
<linearGradient id="paint0_linear" x1="0" y1="0" x2="8.78741" y2="0.944341" gradientUnits="userSpaceOnUse">
<stop offset="0.0501562" stop-color="#49E3D7"/>
<stop offset="1" stop-color="#42CEA9"/>
</linearGradient>
</defs>
</svg>