<svg width="16" height="20" viewBox="0 0 16 20" fill="none" xmlns="http://www.w3.org/2000/svg">
<path d="M8.16434 0C8.71658 0 9.16434 0.447716 9.16434 1V3L9.16385 3.0317L9.16287 3.05341L9.16092 3.0824C12.0003 3.55709 14.1643 6.02583 14.1643 9C14.1643 12.0933 14.7893 13.312 15.763 15.2103L15.7976 15.2781C15.9673 15.6088 15.7271 16 15.3553 16H0.973417C0.601591 16 0.361357 15.6088 0.531034 15.2781L0.565702 15.2103C1.53934 13.312 2.16434 12.0933 2.16434 9C2.16434 6.02583 4.3284 3.55709 7.16775 3.0824L7.16556 3.04284C7.16482 3.02863 7.16434 3.01435 7.16434 3V1C7.16434 0.447716 7.61209 0 8.16434 0Z" fill="#E9ECF2"/>
<path d="M10.1643 18C10.1643 19.1046 9.26883 20 8.16434 20C7.05984 20 6.16434 19.1046 6.16434 18H10.1643Z" fill="#E9ECF2"/>
</svg>
