<svg width="30" height="27" viewBox="0 0 30 27" fill="none" xmlns="http://www.w3.org/2000/svg">
<path d="M1.75781 0.583984C0.788437 0.583984 0 1.37401 0 2.34535V15.262C0 16.2333 0.788437 17.0234 1.75781 17.0234H3.86719V24.656C3.86719 25.6273 4.65562 26.4173 5.625 26.4173H28.2422C29.2116 26.4173 30 25.6273 30 24.656V11.7393C30 10.768 29.2116 9.97792 28.2422 9.97792H26.1328V2.34535C26.1328 1.37401 25.3444 0.583984 24.375 0.583984H1.75781ZM1.75781 1.75823H24.375C24.698 1.75823 24.9609 2.02173 24.9609 2.34535V4.10671H1.17188V2.34535C1.17188 2.02173 1.43484 1.75823 1.75781 1.75823ZM1.17188 7.62944H24.9609V9.97792H5.625C4.65562 9.97792 3.86719 10.768 3.86719 11.7393V15.8491H1.75781C1.43484 15.8491 1.17188 15.5856 1.17188 15.262V7.62944ZM5.625 11.1522H28.2422C28.5652 11.1522 28.8281 11.4157 28.8281 11.7393V24.656C28.8281 24.9796 28.5652 25.2431 28.2422 25.2431H5.625C5.30203 25.2431 5.03906 24.9796 5.03906 24.656V11.7393C5.03906 11.4157 5.30203 11.1522 5.625 11.1522ZM19.6875 13.5007C18.0722 13.5007 16.7578 14.8177 16.7578 16.4363C16.7578 18.0548 18.0722 19.3719 19.6875 19.3719C20.3264 19.3719 20.9423 19.1619 21.4448 18.7838C21.9483 19.1619 22.5642 19.3719 23.2031 19.3719C24.8184 19.3719 26.1328 18.0548 26.1328 16.4363C26.1328 14.8177 24.8184 13.5007 23.2031 13.5007C22.5642 13.5007 21.9483 13.7106 21.4448 14.0887C20.9419 13.7106 20.3264 13.5007 19.6875 13.5007ZM19.6875 14.6749C20.1914 14.6749 20.6719 14.8924 21.0052 15.2714C21.0052 15.2719 21.0056 15.2719 21.0056 15.2719C21.2892 15.5932 21.4453 16.0065 21.4453 16.4358C21.4453 16.8651 21.2892 17.2784 21.0052 17.6006C20.6719 17.9797 20.1914 18.1972 19.6875 18.1972C18.7181 18.1972 17.9297 17.4071 17.9297 16.4358C17.9297 15.4645 18.7181 14.6744 19.6875 14.6744V14.6749ZM23.2031 14.6749C24.1725 14.6749 24.9609 15.4649 24.9609 16.4363C24.9609 17.4076 24.1725 18.1976 23.2031 18.1976C22.852 18.1976 22.5127 18.0919 22.2262 17.8998C22.4803 17.4578 22.6172 16.9539 22.6172 16.4363C22.6172 15.9187 22.4803 15.4147 22.2262 14.9727C22.5131 14.7806 22.8525 14.6749 23.2031 14.6749Z" fill="black"/>
</svg>
