<svg width="30" height="27" viewBox="0 0 30 27" fill="none" xmlns="http://www.w3.org/2000/svg">
<path d="M29.481 22.0754L17.688 1.64969C17.1345 0.69115 16.103 0.0957031 14.9964 0.0957031C13.8894 0.0957031 12.8583 0.69115 12.3043 1.64969L0.415135 22.2427C-0.138378 23.2007 -0.138378 24.3916 0.415135 25.3506C0.968649 26.3097 1.9997 26.9046 3.10673 26.9046H26.8723C26.8777 26.9046 26.8851 26.9046 26.8901 26.9046C26.8945 26.9046 26.898 26.9046 26.9009 26.9046C28.6108 26.8997 30 25.5075 30 23.7962C30.0005 23.1805 29.8209 22.586 29.481 22.0754ZM26.8925 25.5228C26.8901 25.5228 26.8881 25.5228 26.8866 25.5228H3.10722C2.49204 25.5228 1.91929 25.1923 1.61195 24.6595C1.30411 24.1277 1.30411 23.4656 1.61195 22.9328L13.5016 2.33985C13.8095 1.80706 14.3822 1.47653 14.9974 1.47653C15.6121 1.47653 16.1848 1.80706 16.4927 2.33985L28.2975 22.7863C28.3059 22.8006 28.3153 22.8154 28.3242 22.8287C28.519 23.1139 28.6207 23.4493 28.6207 23.7962C28.6192 24.7493 27.8442 25.5228 26.8925 25.5228ZM14.9994 18.3108C15.4039 18.3108 15.9703 18.0336 16.0053 17.3054L16.3506 9.24841C16.3506 8.50201 15.7453 7.89719 14.9994 7.89719C14.2535 7.89719 13.6487 8.50201 13.6487 9.24841L13.994 17.3054C14.0339 18.0721 14.5465 18.3108 14.9994 18.3108ZM14.9994 19.4465C14.5435 19.4465 14.0981 19.633 13.7769 19.9536C13.4558 20.2753 13.2727 20.7178 13.2727 21.1731C13.2727 21.6295 13.4558 22.0744 13.7769 22.3956C14.0981 22.7168 14.5435 22.8998 14.9994 22.8998C15.4547 22.8998 15.9007 22.7168 16.2179 22.3956C16.543 22.0749 16.7255 21.6295 16.7255 21.1731C16.7255 20.7207 16.543 20.2758 16.2179 19.9536C15.9007 19.633 15.4552 19.4465 14.9994 19.4465Z" fill="black"/>
</svg>
