<svg width="20" height="20" viewBox="0 0 20 20" fill="none" xmlns="http://www.w3.org/2000/svg">
<circle cx="10" cy="10" r="9" fill="url(#paint0_linear)"/>
<path fill-rule="evenodd" clip-rule="evenodd" d="M10 0C4.486 0 0 4.486 0 10C0 15.514 4.486 20 10 20C15.514 20 20 15.514 20 10C20 4.486 15.514 0 10 0ZM10 18C5.589 18 2 14.411 2 10C2 5.589 5.589 2 10 2C14.411 2 18 5.589 18 10C18 14.411 14.411 18 10 18ZM11 13V10C11 9.447 10.552 9 10 9H9C8.448 9 8 9.447 8 10C8 10.553 8.448 11 9 11V14C9 14.553 9.448 15 10 15H11C11.552 15 12 14.553 12 14C12 13.447 11.552 13 11 13ZM10 7.0996C10.607 7.0996 11.1 6.6076 11.1 5.9996C11.1 5.3926 10.607 4.9006 10 4.9006C9.393 4.9006 8.9 5.3926 8.9 5.9996C8.9 6.6076 9.393 7.0996 10 7.0996Z" fill="#F4F6F8"/>
<defs>
<linearGradient id="paint0_linear" x1="1" y1="1" x2="20.7717" y2="3.12477" gradientUnits="userSpaceOnUse">
<stop offset="0.0501562" stop-color="#49E3D7"/>
<stop offset="1" stop-color="#42CEA9"/>
</linearGradient>
</defs>
</svg>
