<svg width="37" height="37" viewBox="0 0 37 37" fill="none" xmlns="http://www.w3.org/2000/svg">
<path fill-rule="evenodd" clip-rule="evenodd" d="M18.5 0C8.2991 0 0 8.2991 0 18.5C0 28.7009 8.2991 37 18.5 37C28.7009 37 37 28.7009 37 18.5C37 8.2991 28.7009 0 18.5 0ZM18.5 33.3C10.3397 33.3 3.7 26.6603 3.7 18.5C3.7 10.3397 10.3397 3.7 18.5 3.7C26.6603 3.7 33.3 10.3397 33.3 18.5C33.3 26.6603 26.6603 33.3 18.5 33.3ZM25.0028 16.9135L15.7527 11.3635C15.1811 11.0212 14.4689 11.0101 13.8879 11.3394C13.3089 11.6687 12.95 12.2829 12.95 12.9508V24.0508C12.95 24.7168 13.3089 25.331 13.8879 25.6603C14.171 25.8212 14.4855 25.9008 14.8 25.9008C15.1293 25.9008 15.4586 25.812 15.7527 25.6362L25.0028 20.0862C25.5577 19.7514 25.9 19.1501 25.9 18.5008C25.9 17.8514 25.5577 17.2483 25.0028 16.9135ZM16.65 20.7818V16.2178L20.4555 18.5007L16.65 20.7818Z" fill="#C1C8D7"/>
<mask id="mask0" mask-type="alpha" maskUnits="userSpaceOnUse" x="0" y="0" width="37" height="37">
<path fill-rule="evenodd" clip-rule="evenodd" d="M18.5 0C8.2991 0 0 8.2991 0 18.5C0 28.7009 8.2991 37 18.5 37C28.7009 37 37 28.7009 37 18.5C37 8.2991 28.7009 0 18.5 0ZM18.5 33.3C10.3397 33.3 3.7 26.6603 3.7 18.5C3.7 10.3397 10.3397 3.7 18.5 3.7C26.6603 3.7 33.3 10.3397 33.3 18.5C33.3 26.6603 26.6603 33.3 18.5 33.3ZM25.0028 16.9135L15.7527 11.3635C15.1811 11.0212 14.4689 11.0101 13.8879 11.3394C13.3089 11.6687 12.95 12.2829 12.95 12.9508V24.0508C12.95 24.7168 13.3089 25.331 13.8879 25.6603C14.171 25.8212 14.4855 25.9008 14.8 25.9008C15.1293 25.9008 15.4586 25.812 15.7527 25.6362L25.0028 20.0862C25.5577 19.7514 25.9 19.1501 25.9 18.5008C25.9 17.8514 25.5577 17.2483 25.0028 16.9135ZM16.65 20.7818V16.2178L20.4555 18.5007L16.65 20.7818Z" fill="white"/>
</mask>
<g mask="url(#mask0)">
</g>
</svg>
