<svg width="98" height="133" viewBox="0 0 98 133" fill="none" xmlns="http://www.w3.org/2000/svg">
<path d="M11 14C7.13401 14 4 10.866 4 7C4 3.13401 7.13401 6.78451e-07 11 4.37066e-07C14.866 1.95681e-07 18 3.13401 18 7C18 10.866 14.866 14 11 14Z" fill="#C1C8D7"/>
<path d="M6.32201 16C7.72526 16.7273 9.28442 17.1313 10.9215 17.1313C12.5587 17.1313 14.1178 16.7273 15.5211 16C18.4835 16.8081 20.8222 19.3939 21.212 22.7071L21.9916 29.1717C22.0695 29.9798 21.6018 30.7879 20.7443 30.9495C17.6259 31.596 14.3517 32 10.9995 32C7.56934 32 4.2951 31.596 1.25473 30.9495C0.475154 30.7879 -0.070552 29.9798 0.00740515 29.1717L0.786986 22.7071C1.02086 19.3939 3.3596 16.8081 6.32201 16Z" fill="#C1C8D7"/>
<path d="M32.5806 40.9791L31.6017 36.9128C31.4887 36.4986 30.9616 36.348 30.6604 36.6492L29.945 37.3646L25.9916 33.863C25.6904 33.5618 25.201 33.5995 24.9374 33.863C24.5985 34.1266 24.5609 34.6913 24.8621 34.9926L28.3637 38.9459L27.6483 39.6613C27.3471 39.9625 27.4977 40.4897 27.9119 40.6026L31.9782 41.5815C32.3171 41.7698 32.6936 41.3933 32.5806 40.9791Z" fill="#C1C8D7"/>
<path d="M32.8291 99.7696C30.9894 99.7696 29.498 98.2782 29.498 96.4385C29.498 94.5988 30.9894 93.1074 32.8291 93.1074C34.6688 93.1074 36.1602 94.5988 36.1602 96.4385C36.1602 98.2782 34.6688 99.7696 32.8291 99.7696Z" fill="#757E91"/>
<path d="M30.691 100.781C31.3428 101.107 32.0669 101.288 32.8273 101.288C33.5876 101.288 34.3118 101.107 34.9635 100.781C36.3394 101.143 37.4256 102.302 37.6067 103.786L37.9688 106.683C38.005 107.045 37.7877 107.407 37.3894 107.48C35.9411 107.769 34.4204 107.95 32.8635 107.95C31.2704 107.95 29.7496 107.769 28.3376 107.48C27.9755 107.407 27.722 107.045 27.7582 106.683L28.1203 103.786C28.2289 102.302 29.3152 101.143 30.691 100.781Z" fill="#757E91"/>
<path d="M66.5733 99.7344C68.413 99.7344 69.9044 98.2431 69.9044 96.4034C69.9044 94.5636 68.413 93.0723 66.5733 93.0723C64.7336 93.0723 63.2422 94.5636 63.2422 96.4034C63.2422 98.2431 64.7336 99.7344 66.5733 99.7344Z" fill="#949FB7"/>
<path d="M68.7074 100.746C68.0557 101.072 67.3315 101.253 66.5712 101.253C65.8108 101.253 65.0866 101.072 64.4349 100.746C63.059 101.108 61.9728 102.267 61.7918 103.751L61.4297 106.648C61.3935 107.01 61.6107 107.372 62.009 107.444C63.4573 107.734 64.978 107.915 66.5349 107.915C68.1281 107.915 69.6488 107.734 71.0609 107.444C71.423 107.372 71.6764 107.01 71.6402 106.648L71.2781 103.751C71.1695 102.267 70.0833 101.108 68.7074 100.746Z" fill="#949FB7"/>
<path d="M48.7803 107.815C50.62 107.815 52.1114 106.323 52.1114 104.483C52.1114 102.644 50.62 101.152 48.7803 101.152C46.9406 101.152 45.4492 102.644 45.4492 104.483C45.4492 106.323 46.9406 107.815 48.7803 107.815Z" fill="url(#paint0_linear)"/>
<path d="M50.9144 108.83C50.2627 109.156 49.5385 109.337 48.7782 109.337C48.0178 109.337 47.2937 109.156 46.6419 108.83C45.2661 109.192 44.1798 110.351 43.9988 111.835L43.6367 114.732C43.6005 115.094 43.8178 115.456 44.216 115.528C45.6643 115.818 47.1851 115.999 48.742 115.999C50.3351 115.999 51.8558 115.818 53.2679 115.528C53.63 115.456 53.8834 115.094 53.8472 114.732L53.4852 111.835C53.3765 110.351 52.2903 109.192 50.9144 108.83Z" fill="url(#paint1_linear)"/>
<path d="M49.2462 85.6347L51.1721 89.0492C51.36 89.4059 51.1252 89.8646 50.7494 89.8646L49.8569 89.8646L49.575 94.9098C49.575 95.3175 49.2462 95.6232 48.9174 95.6232C48.5416 95.6742 48.1658 95.3175 48.1658 94.9098L47.8839 89.8646L46.9914 89.8646C46.6156 89.8646 46.3807 89.4059 46.5686 89.0492L48.4946 85.6347C48.5885 85.278 49.0583 85.278 49.2462 85.6347Z" fill="url(#paint2_linear)"/>
<path d="M42.1726 87.9087L41.4903 87.2251L37.5536 90.6958C37.2387 90.9587 36.8188 90.9587 36.5039 90.6958C36.189 90.3803 36.1365 89.907 36.4514 89.5389L39.8631 85.5949L39.1808 84.9113C38.8659 84.5958 39.0233 84.0699 39.4432 83.9647L43.4323 83.0182C43.8523 82.913 44.2197 83.2811 44.1147 83.7018L43.1699 87.6984C43.0124 88.1191 42.4876 88.2242 42.1726 87.9087Z" fill="#757E91"/>
<path d="M60.0987 90.7129L56.1808 87.2581L55.5017 87.9386C55.1883 88.2527 54.6659 88.0956 54.5614 87.6769L53.6211 83.6986C53.5166 83.2798 53.8823 82.9134 54.3002 83.0181L58.2704 83.9603C58.6883 84.065 58.845 84.5884 58.5316 84.9025L57.8524 85.583L61.3002 89.509C61.5614 89.823 61.5614 90.2418 61.3002 90.5559C60.9345 90.9746 60.4121 90.9746 60.0987 90.7129Z" fill="#949FB7"/>
<path fill-rule="evenodd" clip-rule="evenodd" d="M42.6503 60.2931C42.0385 60.4286 41.4026 60.5 40.75 60.5C35.9175 60.5 32 56.5825 32 51.75C32 46.9175 35.9175 43 40.75 43C45.4765 43 49.3276 46.7475 49.4944 51.4333L57.1543 52.7099C58.0493 51.094 59.7719 50 61.75 50C64.6495 50 67 52.3505 67 55.25C67 58.1495 64.6495 60.5 61.75 60.5C61.1892 60.5 60.6489 60.4121 60.1422 60.2492L55.1264 66.8347C55.9895 67.9986 56.5 69.4397 56.5 71C56.5 74.866 53.366 78 49.5 78C45.634 78 42.5 74.866 42.5 71C42.5 68.8344 43.4834 66.8985 45.028 65.6145L42.6503 60.2931ZM45.8454 58.8642L48.1944 64.1215C48.6174 64.0417 49.0538 64 49.5 64C50.5368 64 51.5209 64.2254 52.4061 64.6299L57.3583 58.1278C56.9746 57.5434 56.7043 56.8778 56.579 56.1623L48.9212 54.886C48.3034 56.4949 47.2241 57.8749 45.8454 58.8642Z" fill="#212B36"/>
<path d="M38.2891 14H43.7617V12.7285H39.8008V10.3086H43.5449V9.10742H39.8008V6.81641H43.7617V5.54492H38.2891V14ZM44.998 14H46.5684L47.875 11.7734H47.9746L49.2871 14H50.9277L48.8359 10.7598L50.9043 7.5957H49.3047L48.0391 9.81641H47.9395L46.668 7.5957H44.9805L47.0723 10.8242L44.998 14ZM52.2109 16.127H53.6699V12.9805H53.7695C54.1035 13.6719 54.8359 14.1055 55.7148 14.1055C57.3379 14.1055 58.3457 12.8457 58.3457 10.8066V10.7949C58.3457 8.76758 57.3203 7.49023 55.7148 7.49023C54.8184 7.49023 54.1211 7.90039 53.7695 8.59766H53.6699V7.5957H52.2109V16.127ZM55.2578 12.875C54.2676 12.875 53.6523 12.084 53.6523 10.8008V10.7891C53.6523 9.50586 54.2676 8.7207 55.2578 8.7207C56.2539 8.7207 56.8574 9.50586 56.8574 10.7949V10.8066C56.8574 12.0898 56.2539 12.875 55.2578 12.875ZM62.5586 14.1289C64.2988 14.1289 65.1543 13.127 65.3594 12.3008L65.377 12.248H63.9883L63.9707 12.2891C63.8301 12.582 63.3789 12.9805 62.5879 12.9805C61.5977 12.9805 60.9766 12.3125 60.959 11.1641H65.4355V10.6836C65.4355 8.75 64.3105 7.47266 62.4883 7.47266C60.666 7.47266 59.5 8.79102 59.5 10.8066V10.8125C59.5 12.8516 60.6543 14.1289 62.5586 14.1289ZM62.5059 8.61523C63.3203 8.61523 63.9121 9.13672 64.0117 10.1855H60.9707C61.082 9.16602 61.6914 8.61523 62.5059 8.61523ZM66.8945 14H68.3535V10.2793C68.3535 9.36523 68.9922 8.78516 69.9648 8.78516C70.2168 8.78516 70.457 8.82031 70.6914 8.86719V7.56055C70.5508 7.51953 70.3223 7.49023 70.0996 7.49023C69.2559 7.49023 68.6699 7.89453 68.4531 8.58008H68.3535V7.5957H66.8945V14ZM74.6992 14.0293C74.9805 14.0293 75.25 14.0059 75.4609 13.9648V12.8398C75.2852 12.8574 75.1738 12.8633 74.9688 12.8633C74.3594 12.8633 74.1074 12.5938 74.1074 11.9551V8.72656H75.4609V7.5957H74.1074V6.02539H72.625V7.5957H71.6289V8.72656H72.625V12.3008C72.625 13.5371 73.2285 14.0293 74.6992 14.0293ZM79.7383 14H81.3906L83.3887 10.8887H83.4414L85.4395 14H87.1855L84.4023 9.78125V9.76367L87.2324 5.54492H85.5332L83.5762 8.72656H83.5117L81.5488 5.54492H79.7617L82.498 9.72266V9.74023L79.7383 14ZM30.3789 30.1094H31.2344C30.3848 29.0254 29.752 26.6934 29.752 24.6426C29.752 22.6094 30.3848 20.2598 31.2344 19.1758H30.3789C29.2305 20.6934 28.7148 22.4688 28.7148 24.6426C28.7148 26.8223 29.2363 28.5918 30.3789 30.1094ZM32.957 28H34.0117V24.1504H38.6523V28H39.707V19.5449H38.6523V23.2012H34.0117V19.5449H32.957V28ZM43.8496 28.1113C44.7754 28.1113 45.4141 27.7305 45.7246 27.0566H45.8184V28H46.8379V21.6836H45.8184V25.4219C45.8184 26.5293 45.2266 27.209 44.1133 27.209C43.1055 27.209 42.6953 26.6641 42.6953 25.5273V21.6836H41.6758V25.7734C41.6758 27.2676 42.4141 28.1113 43.8496 28.1113ZM51.8828 28.1113C53.4824 28.1113 54.5312 26.8164 54.5312 24.8477V24.8359C54.5312 22.8555 53.4883 21.5723 51.8828 21.5723C51.0156 21.5723 50.2598 22.0059 49.9141 22.6797H49.8203V19.1758H48.8008V28H49.8203V26.9922H49.9141C50.3008 27.6953 51.0039 28.1113 51.8828 28.1113ZM51.6484 27.209C50.5 27.209 49.7969 26.3066 49.7969 24.8477V24.8359C49.7969 23.377 50.5 22.4746 51.6484 22.4746C52.8027 22.4746 53.4883 23.3652 53.4883 24.8359V24.8477C53.4883 26.3184 52.8027 27.209 51.6484 27.209ZM62.084 28.1113C63.8828 28.1113 64.9961 26.8691 64.9961 24.8477V24.8359C64.9961 22.8086 63.8828 21.5723 62.084 21.5723C60.2852 21.5723 59.1719 22.8086 59.1719 24.8359V24.8477C59.1719 26.8691 60.2852 28.1113 62.084 28.1113ZM62.084 27.209C60.8887 27.209 60.2148 26.3359 60.2148 24.8477V24.8359C60.2148 23.3418 60.8887 22.4746 62.084 22.4746C63.2793 22.4746 63.9531 23.3418 63.9531 24.8359V24.8477C63.9531 26.3359 63.2793 27.209 62.084 27.209ZM67.5625 28H68.582L69.9883 23.1133H70.082L71.4941 28H72.5195L74.2891 21.6836H73.2754L72.0332 26.7344H71.9395L70.5273 21.6836H69.5605L68.1484 26.7344H68.0547L66.8125 21.6836H65.793L67.5625 28ZM75.6367 28H76.6562V24.2617C76.6562 23.1543 77.2949 22.4746 78.3027 22.4746C79.3105 22.4746 79.7793 23.0195 79.7793 24.1562V28H80.7988V23.9102C80.7988 22.4102 80.0078 21.5723 78.5898 21.5723C77.6582 21.5723 77.0664 21.9648 76.75 22.6328H76.6562V21.6836H75.6367V28ZM85.2227 28.1113C86.7109 28.1113 87.6133 27.2676 87.8301 26.4121L87.8418 26.3652H86.8223L86.7988 26.418C86.6289 26.7988 86.1016 27.2031 85.2461 27.2031C84.1211 27.2031 83.4004 26.4414 83.3711 25.1348H87.918V24.7363C87.918 22.8496 86.875 21.5723 85.1582 21.5723C83.4414 21.5723 82.3281 22.9082 82.3281 24.8594V24.8652C82.3281 26.8457 83.418 28.1113 85.2227 28.1113ZM85.1523 22.4805C86.084 22.4805 86.7754 23.0723 86.8809 24.3203H83.3887C83.5 23.1191 84.2148 22.4805 85.1523 22.4805ZM89.5 28H90.5195V24.0859C90.5195 23.1602 91.2109 22.5449 92.1836 22.5449C92.4062 22.5449 92.5996 22.5684 92.8105 22.6035V21.6133C92.7109 21.5957 92.4941 21.5723 92.3008 21.5723C91.4453 21.5723 90.8535 21.959 90.6133 22.6211H90.5195V21.6836H89.5V28ZM94.6211 30.1094C95.7637 28.5918 96.2852 26.8223 96.2852 24.6426C96.2852 22.4688 95.7695 20.6934 94.6211 19.1758H93.7656C94.6152 20.2598 95.248 22.6094 95.248 24.6426C95.248 26.6934 94.6152 29.0254 93.7656 30.1094H94.6211Z" fill="#202223"/>
<path d="M42.4219 130H43.4766V126.361L46.4766 121.545H45.2754L42.9961 125.301H42.9023L40.623 121.545H39.4219L42.4219 126.361V130ZM49.4297 130.111C51.2285 130.111 52.3418 128.869 52.3418 126.848V126.836C52.3418 124.809 51.2285 123.572 49.4297 123.572C47.6309 123.572 46.5176 124.809 46.5176 126.836V126.848C46.5176 128.869 47.6309 130.111 49.4297 130.111ZM49.4297 129.209C48.2344 129.209 47.5605 128.336 47.5605 126.848V126.836C47.5605 125.342 48.2344 124.475 49.4297 124.475C50.625 124.475 51.2988 125.342 51.2988 126.836V126.848C51.2988 128.336 50.625 129.209 49.4297 129.209ZM56.0391 130.111C56.9648 130.111 57.6035 129.73 57.9141 129.057H58.0078V130H59.0273V123.684H58.0078V127.422C58.0078 128.529 57.416 129.209 56.3027 129.209C55.2949 129.209 54.8848 128.664 54.8848 127.527V123.684H53.8652V127.773C53.8652 129.268 54.6035 130.111 56.0391 130.111Z" fill="#202223"/>
<defs>
<linearGradient id="paint0_linear" x1="45.4492" y1="101.152" x2="52.7671" y2="101.939" gradientUnits="userSpaceOnUse">
<stop offset="0.0501562" stop-color="#49E3D7"/>
<stop offset="1" stop-color="#42CEA9"/>
</linearGradient>
<linearGradient id="paint1_linear" x1="43.6328" y1="108.83" x2="54.7257" y2="110.529" gradientUnits="userSpaceOnUse">
<stop offset="0.0501562" stop-color="#49E3D7"/>
<stop offset="1" stop-color="#42CEA9"/>
</linearGradient>
<linearGradient id="paint2_linear" x1="51.2383" y1="85.3672" x2="45.9892" y2="85.6275" gradientUnits="userSpaceOnUse">
<stop offset="0.0501562" stop-color="#49E3D7"/>
<stop offset="1" stop-color="#42CEA9"/>
</linearGradient>
</defs>
</svg>
