<svg width="98" height="133" viewBox="0 0 98 133" fill="none" xmlns="http://www.w3.org/2000/svg">
<path d="M11 14C7.13401 14 4 10.866 4 7C4 3.13401 7.13401 6.78451e-07 11 4.37066e-07C14.866 1.95681e-07 18 3.13401 18 7C18 10.866 14.866 14 11 14Z" fill="url(#paint0_linear)"/>
<path d="M6.32201 16C7.72526 16.7273 9.28442 17.1313 10.9215 17.1313C12.5587 17.1313 14.1178 16.7273 15.5211 16C18.4835 16.8081 20.8222 19.3939 21.212 22.7071L21.9916 29.1717C22.0695 29.9798 21.6018 30.7879 20.7443 30.9495C17.6259 31.596 14.3517 32 10.9995 32C7.56934 32 4.2951 31.596 1.25473 30.9495C0.475154 30.7879 -0.070552 29.9798 0.00740515 29.1717L0.786986 22.7071C1.02086 19.3939 3.3596 16.8081 6.32201 16Z" fill="url(#paint1_linear)"/>
<path d="M32.5806 40.9791L31.6017 36.9128C31.4887 36.4986 30.9616 36.348 30.6604 36.6492L29.945 37.3646L25.9916 33.863C25.6904 33.5618 25.201 33.5995 24.9374 33.863C24.5985 34.1266 24.5609 34.6913 24.8621 34.9926L28.3637 38.9459L27.6483 39.6613C27.3471 39.9625 27.4977 40.4897 27.9119 40.6026L31.9782 41.5815C32.3171 41.7698 32.6936 41.3933 32.5806 40.9791Z" fill="url(#paint2_linear)"/>
<path d="M32.8291 99.7696C30.9894 99.7696 29.498 98.2782 29.498 96.4385C29.498 94.5988 30.9894 93.1074 32.8291 93.1074C34.6688 93.1074 36.1602 94.5988 36.1602 96.4385C36.1602 98.2782 34.6688 99.7696 32.8291 99.7696Z" fill="#757E91"/>
<path d="M30.691 100.781C31.3428 101.107 32.0669 101.288 32.8273 101.288C33.5876 101.288 34.3118 101.107 34.9635 100.781C36.3394 101.143 37.4256 102.302 37.6067 103.786L37.9688 106.683C38.005 107.045 37.7877 107.407 37.3894 107.48C35.9411 107.769 34.4204 107.95 32.8635 107.95C31.2704 107.95 29.7496 107.769 28.3376 107.48C27.9755 107.407 27.722 107.045 27.7582 106.683L28.1203 103.786C28.2289 102.302 29.3152 101.143 30.691 100.781Z" fill="#757E91"/>
<path d="M66.5733 99.7344C68.413 99.7344 69.9044 98.2431 69.9044 96.4034C69.9044 94.5636 68.413 93.0723 66.5733 93.0723C64.7336 93.0723 63.2422 94.5636 63.2422 96.4034C63.2422 98.2431 64.7336 99.7344 66.5733 99.7344Z" fill="#C1C8D7"/>
<path d="M68.7074 100.746C68.0557 101.072 67.3315 101.253 66.5712 101.253C65.8108 101.253 65.0866 101.072 64.4349 100.746C63.059 101.108 61.9728 102.267 61.7918 103.751L61.4297 106.648C61.3935 107.01 61.6107 107.372 62.009 107.444C63.4573 107.734 64.978 107.915 66.5349 107.915C68.1281 107.915 69.6488 107.734 71.0609 107.444C71.423 107.372 71.6764 107.01 71.6402 106.648L71.2781 103.751C71.1695 102.267 70.0833 101.108 68.7074 100.746Z" fill="#C1C8D7"/>
<path d="M48.7803 107.815C50.62 107.815 52.1114 106.323 52.1114 104.483C52.1114 102.644 50.62 101.152 48.7803 101.152C46.9406 101.152 45.4492 102.644 45.4492 104.483C45.4492 106.323 46.9406 107.815 48.7803 107.815Z" fill="#949FB7"/>
<path d="M50.9144 108.83C50.2627 109.156 49.5385 109.337 48.7782 109.337C48.0178 109.337 47.2937 109.156 46.6419 108.83C45.2661 109.192 44.1798 110.351 43.9988 111.835L43.6367 114.732C43.6005 115.094 43.8178 115.456 44.216 115.528C45.6643 115.818 47.1851 115.999 48.742 115.999C50.3351 115.999 51.8558 115.818 53.2679 115.528C53.63 115.456 53.8834 115.094 53.8472 114.732L53.4852 111.835C53.3765 110.351 52.2903 109.192 50.9144 108.83Z" fill="#949FB7"/>
<path d="M49.2462 85.6347L51.1721 89.0492C51.36 89.4059 51.1252 89.8646 50.7494 89.8646L49.8569 89.8646L49.575 94.9098C49.575 95.3175 49.2462 95.6232 48.9174 95.6232C48.5416 95.6742 48.1658 95.3175 48.1658 94.9098L47.8839 89.8646L46.9914 89.8646C46.6156 89.8646 46.3807 89.4059 46.5686 89.0492L48.4946 85.6347C48.5885 85.278 49.0583 85.278 49.2462 85.6347Z" fill="#949FB7"/>
<path d="M42.1726 87.9087L41.4903 87.2251L37.5536 90.6958C37.2387 90.9587 36.8188 90.9587 36.5039 90.6958C36.189 90.3803 36.1365 89.907 36.4514 89.5389L39.8631 85.5949L39.1808 84.9113C38.8659 84.5958 39.0233 84.0699 39.4432 83.9647L43.4323 83.0182C43.8523 82.913 44.2197 83.2811 44.1147 83.7018L43.1699 87.6984C43.0124 88.1191 42.4876 88.2242 42.1726 87.9087Z" fill="#757E91"/>
<path d="M60.0987 90.7129L56.1808 87.2581L55.5017 87.9386C55.1883 88.2527 54.6659 88.0956 54.5614 87.6769L53.6211 83.6986C53.5166 83.2798 53.8823 82.9134 54.3002 83.0181L58.2704 83.9603C58.6883 84.065 58.845 84.5884 58.5316 84.9025L57.8524 85.583L61.3002 89.509C61.5614 89.823 61.5614 90.2418 61.3002 90.5559C60.9345 90.9746 60.4121 90.9746 60.0987 90.7129Z" fill="#C1C8D7"/>
<path fill-rule="evenodd" clip-rule="evenodd" d="M42.6503 60.2931C42.0385 60.4286 41.4026 60.5 40.75 60.5C35.9175 60.5 32 56.5825 32 51.75C32 46.9175 35.9175 43 40.75 43C45.4765 43 49.3276 46.7475 49.4944 51.4333L57.1543 52.7099C58.0493 51.094 59.7719 50 61.75 50C64.6495 50 67 52.3505 67 55.25C67 58.1495 64.6495 60.5 61.75 60.5C61.1892 60.5 60.6489 60.4121 60.1422 60.2492L55.1264 66.8347C55.9895 67.9986 56.5 69.4397 56.5 71C56.5 74.866 53.366 78 49.5 78C45.634 78 42.5 74.866 42.5 71C42.5 68.8344 43.4834 66.8985 45.028 65.6145L42.6503 60.2931ZM45.8454 58.8642L48.1944 64.1215C48.6174 64.0417 49.0538 64 49.5 64C50.5368 64 51.5209 64.2254 52.4061 64.6299L57.3583 58.1278C56.9746 57.5434 56.7043 56.8778 56.579 56.1623L48.9212 54.886C48.3034 56.4949 47.2241 57.8749 45.8454 58.8642Z" fill="#212B36"/>
<path d="M53.2773 14H54.7832V10.666L57.748 5.54492H56.0957L54.0801 9.17188H53.9805L51.9648 5.54492H50.3125L53.2773 10.666V14ZM60.7363 14.1289C62.6523 14.1289 63.8184 12.875 63.8184 10.8008V10.7891C63.8184 8.72656 62.6465 7.47266 60.7363 7.47266C58.832 7.47266 57.6543 8.73242 57.6543 10.7891V10.8008C57.6543 12.875 58.8145 14.1289 60.7363 14.1289ZM60.7363 12.9453C59.7227 12.9453 59.1426 12.1543 59.1426 10.8066V10.7949C59.1426 9.44727 59.7227 8.65039 60.7363 8.65039C61.7441 8.65039 62.3242 9.44727 62.3242 10.7949V10.8066C62.3242 12.1543 61.75 12.9453 60.7363 12.9453ZM67.4043 14.1289C68.3301 14.1289 68.9805 13.7129 69.2793 13.0273H69.3789V14H70.8379V7.5957H69.3789V11.3281C69.3789 12.2891 68.875 12.8984 67.9316 12.8984C67.0527 12.8984 66.6836 12.3945 66.6836 11.4043V7.5957H65.2246V11.7383C65.2246 13.2617 65.9629 14.1289 67.4043 14.1289ZM30.3789 30.1094H31.2344C30.3848 29.0254 29.752 26.6934 29.752 24.6426C29.752 22.6094 30.3848 20.2598 31.2344 19.1758H30.3789C29.2305 20.6934 28.7148 22.4688 28.7148 24.6426C28.7148 26.8223 29.2363 28.5918 30.3789 30.1094ZM32.957 28H34.0117V24.1504H38.6523V28H39.707V19.5449H38.6523V23.2012H34.0117V19.5449H32.957V28ZM43.8496 28.1113C44.7754 28.1113 45.4141 27.7305 45.7246 27.0566H45.8184V28H46.8379V21.6836H45.8184V25.4219C45.8184 26.5293 45.2266 27.209 44.1133 27.209C43.1055 27.209 42.6953 26.6641 42.6953 25.5273V21.6836H41.6758V25.7734C41.6758 27.2676 42.4141 28.1113 43.8496 28.1113ZM51.8828 28.1113C53.4824 28.1113 54.5312 26.8164 54.5312 24.8477V24.8359C54.5312 22.8555 53.4883 21.5723 51.8828 21.5723C51.0156 21.5723 50.2598 22.0059 49.9141 22.6797H49.8203V19.1758H48.8008V28H49.8203V26.9922H49.9141C50.3008 27.6953 51.0039 28.1113 51.8828 28.1113ZM51.6484 27.209C50.5 27.209 49.7969 26.3066 49.7969 24.8477V24.8359C49.7969 23.377 50.5 22.4746 51.6484 22.4746C52.8027 22.4746 53.4883 23.3652 53.4883 24.8359V24.8477C53.4883 26.3184 52.8027 27.209 51.6484 27.209ZM62.084 28.1113C63.8828 28.1113 64.9961 26.8691 64.9961 24.8477V24.8359C64.9961 22.8086 63.8828 21.5723 62.084 21.5723C60.2852 21.5723 59.1719 22.8086 59.1719 24.8359V24.8477C59.1719 26.8691 60.2852 28.1113 62.084 28.1113ZM62.084 27.209C60.8887 27.209 60.2148 26.3359 60.2148 24.8477V24.8359C60.2148 23.3418 60.8887 22.4746 62.084 22.4746C63.2793 22.4746 63.9531 23.3418 63.9531 24.8359V24.8477C63.9531 26.3359 63.2793 27.209 62.084 27.209ZM67.5625 28H68.582L69.9883 23.1133H70.082L71.4941 28H72.5195L74.2891 21.6836H73.2754L72.0332 26.7344H71.9395L70.5273 21.6836H69.5605L68.1484 26.7344H68.0547L66.8125 21.6836H65.793L67.5625 28ZM75.6367 28H76.6562V24.2617C76.6562 23.1543 77.2949 22.4746 78.3027 22.4746C79.3105 22.4746 79.7793 23.0195 79.7793 24.1562V28H80.7988V23.9102C80.7988 22.4102 80.0078 21.5723 78.5898 21.5723C77.6582 21.5723 77.0664 21.9648 76.75 22.6328H76.6562V21.6836H75.6367V28ZM85.2227 28.1113C86.7109 28.1113 87.6133 27.2676 87.8301 26.4121L87.8418 26.3652H86.8223L86.7988 26.418C86.6289 26.7988 86.1016 27.2031 85.2461 27.2031C84.1211 27.2031 83.4004 26.4414 83.3711 25.1348H87.918V24.7363C87.918 22.8496 86.875 21.5723 85.1582 21.5723C83.4414 21.5723 82.3281 22.9082 82.3281 24.8594V24.8652C82.3281 26.8457 83.418 28.1113 85.2227 28.1113ZM85.1523 22.4805C86.084 22.4805 86.7754 23.0723 86.8809 24.3203H83.3887C83.5 23.1191 84.2148 22.4805 85.1523 22.4805ZM89.5 28H90.5195V24.0859C90.5195 23.1602 91.2109 22.5449 92.1836 22.5449C92.4062 22.5449 92.5996 22.5684 92.8105 22.6035V21.6133C92.7109 21.5957 92.4941 21.5723 92.3008 21.5723C91.4453 21.5723 90.8535 21.959 90.6133 22.6211H90.5195V21.6836H89.5V28ZM94.6211 30.1094C95.7637 28.5918 96.2852 26.8223 96.2852 24.6426C96.2852 22.4688 95.7695 20.6934 94.6211 19.1758H93.7656C94.6152 20.2598 95.248 22.6094 95.248 24.6426C95.248 26.6934 94.6152 29.0254 93.7656 30.1094H94.6211Z" fill="#202223"/>
<path d="M15.1172 130.199C17.5312 130.199 18.9961 128.471 18.9961 125.775V125.764C18.9961 123.057 17.5195 121.346 15.1172 121.346C12.7266 121.346 11.2383 123.051 11.2383 125.764V125.775C11.2383 128.477 12.6914 130.199 15.1172 130.199ZM15.1172 129.227C13.3594 129.227 12.3164 127.867 12.3164 125.775V125.764C12.3164 123.654 13.3945 122.318 15.1172 122.318C16.8457 122.318 17.918 123.654 17.918 125.764V125.775C17.918 127.867 16.8516 129.227 15.1172 129.227ZM22.9395 130.047C23.1387 130.047 23.332 130.023 23.5312 129.988V129.121C23.3438 129.139 23.2441 129.145 23.0625 129.145C22.4062 129.145 22.1484 128.846 22.1484 128.102V124.527H23.5312V123.684H22.1484V122.049H21.0938V123.684H20.0977V124.527H21.0938V128.359C21.0938 129.566 21.6387 130.047 22.9395 130.047ZM25.1133 130H26.1328V126.262C26.1328 125.154 26.7715 124.475 27.7793 124.475C28.7871 124.475 29.2559 125.02 29.2559 126.156V130H30.2754V125.91C30.2754 124.41 29.4844 123.572 28.0664 123.572C27.1348 123.572 26.543 123.965 26.2266 124.633H26.1328V121.176H25.1133V130ZM34.6992 130.111C36.1875 130.111 37.0898 129.268 37.3066 128.412L37.3184 128.365H36.2988L36.2754 128.418C36.1055 128.799 35.5781 129.203 34.7227 129.203C33.5977 129.203 32.877 128.441 32.8477 127.135H37.3945V126.736C37.3945 124.85 36.3516 123.572 34.6348 123.572C32.918 123.572 31.8047 124.908 31.8047 126.859V126.865C31.8047 128.846 32.8945 130.111 34.6992 130.111ZM34.6289 124.48C35.5605 124.48 36.252 125.072 36.3574 126.32H32.8652C32.9766 125.119 33.6914 124.48 34.6289 124.48ZM38.9766 130H39.9961V126.086C39.9961 125.16 40.6875 124.545 41.6602 124.545C41.8828 124.545 42.0762 124.568 42.2871 124.604V123.613C42.1875 123.596 41.9707 123.572 41.7773 123.572C40.9219 123.572 40.3301 123.959 40.0898 124.621H39.9961V123.684H38.9766V130ZM49.5 130.111C50.9883 130.111 51.8906 129.268 52.1074 128.412L52.1191 128.365H51.0996L51.0762 128.418C50.9062 128.799 50.3789 129.203 49.5234 129.203C48.3984 129.203 47.6777 128.441 47.6484 127.135H52.1953V126.736C52.1953 124.85 51.1523 123.572 49.4355 123.572C47.7188 123.572 46.6055 124.908 46.6055 126.859V126.865C46.6055 128.846 47.6953 130.111 49.5 130.111ZM49.4297 124.48C50.3613 124.48 51.0527 125.072 51.1582 126.32H47.666C47.7773 125.119 48.4922 124.48 49.4297 124.48ZM53.0391 130H54.1816L55.6816 127.615H55.7754L57.2695 130H58.4648L56.291 126.801L58.4355 123.684H57.293L55.8105 126.033H55.7168L54.2168 123.684H53.0156L55.2012 126.842L53.0391 130ZM59.8359 132.109H60.8555V129.004H60.9492C61.2949 129.678 62.0508 130.111 62.918 130.111C64.5234 130.111 65.5664 128.828 65.5664 126.848V126.836C65.5664 124.867 64.5176 123.572 62.918 123.572C62.0391 123.572 61.3359 123.988 60.9492 124.691H60.8555V123.684H59.8359V132.109ZM62.6836 129.209C61.5352 129.209 60.832 128.307 60.832 126.848V126.836C60.832 125.377 61.5352 124.475 62.6836 124.475C63.8379 124.475 64.5234 125.365 64.5234 126.836V126.848C64.5234 128.318 63.8379 129.209 62.6836 129.209ZM69.7383 130.111C71.2266 130.111 72.1289 129.268 72.3457 128.412L72.3574 128.365H71.3379L71.3145 128.418C71.1445 128.799 70.6172 129.203 69.7617 129.203C68.6367 129.203 67.916 128.441 67.8867 127.135H72.4336V126.736C72.4336 124.85 71.3906 123.572 69.6738 123.572C67.957 123.572 66.8438 124.908 66.8438 126.859V126.865C66.8438 128.846 67.9336 130.111 69.7383 130.111ZM69.668 124.48C70.5996 124.48 71.291 125.072 71.3965 126.32H67.9043C68.0156 125.119 68.7305 124.48 69.668 124.48ZM74.0156 130H75.0352V126.086C75.0352 125.16 75.7266 124.545 76.6992 124.545C76.9219 124.545 77.1152 124.568 77.3262 124.604V123.613C77.2266 123.596 77.0098 123.572 76.8164 123.572C75.9609 123.572 75.3691 123.959 75.1289 124.621H75.0352V123.684H74.0156V130ZM81.1816 130.047C81.3809 130.047 81.5742 130.023 81.7734 129.988V129.121C81.5859 129.139 81.4863 129.145 81.3047 129.145C80.6484 129.145 80.3906 128.846 80.3906 128.102V124.527H81.7734V123.684H80.3906V122.049H79.3359V123.684H78.3398V124.527H79.3359V128.359C79.3359 129.566 79.8809 130.047 81.1816 130.047ZM85.3477 130.111C86.7832 130.111 87.8789 129.332 87.8789 128.207V128.195C87.8789 127.293 87.3047 126.777 86.1152 126.49L85.1426 126.256C84.3984 126.074 84.082 125.805 84.082 125.377V125.365C84.082 124.809 84.6328 124.422 85.3828 124.422C86.1445 124.422 86.6367 124.768 86.7715 125.266H87.7734C87.6328 124.234 86.7129 123.572 85.3887 123.572C84.0469 123.572 83.0391 124.363 83.0391 125.412V125.418C83.0391 126.326 83.5723 126.842 84.7559 127.123L85.7344 127.357C86.5137 127.545 86.8359 127.844 86.8359 128.271V128.283C86.8359 128.857 86.2324 129.262 85.3828 129.262C84.5742 129.262 84.0703 128.916 83.9004 128.389H82.8574C82.9746 129.432 83.9414 130.111 85.3477 130.111Z" fill="#202223"/>
<defs>
<linearGradient id="paint0_linear" x1="18" y1="0" x2="2.62204" y2="1.6526" gradientUnits="userSpaceOnUse">
<stop offset="0.0501562" stop-color="#49E3D7"/>
<stop offset="1" stop-color="#42CEA9"/>
</linearGradient>
<linearGradient id="paint1_linear" x1="22" y1="16" x2="-1.92212" y2="19.5348" gradientUnits="userSpaceOnUse">
<stop offset="0.0501562" stop-color="#49E3D7"/>
<stop offset="1" stop-color="#42CEA9"/>
</linearGradient>
<linearGradient id="paint2_linear" x1="34.375" y1="39.5801" x2="29.9433" y2="43.5592" gradientUnits="userSpaceOnUse">
<stop offset="0.0501562" stop-color="#49E3D7"/>
<stop offset="1" stop-color="#42CEA9"/>
</linearGradient>
</defs>
</svg>
