<svg width="103" height="27" viewBox="0 0 103 27" fill="none" xmlns="http://www.w3.org/2000/svg">
<path fill-rule="evenodd" clip-rule="evenodd" d="M10.9653 17.4789C10.1283 17.5139 9.47621 17.2053 9.00874 16.5536C8.54128 15.9017 8.21851 15.0264 8.04044 13.9283C7.8621 12.8301 7.79098 11.6333 7.82654 10.3384C7.14107 10.3559 6.49992 10.3448 5.90335 10.3053C5.30677 10.2661 4.83931 10.229 4.50095 10.1938C4.34942 10.1763 4.23836 10.1677 4.16697 10.1677C4.14044 10.4126 4.11363 10.6621 4.0871 10.9158C3.95334 12.1323 3.84858 13.307 3.77309 14.4401C3.69732 15.5735 3.70853 16.5864 3.80646 17.4789C2.91611 17.5053 2.2394 17.1596 1.77631 16.4421C1.31322 15.7246 1.01042 14.7729 0.868187 13.5869C0.725678 12.4014 0.690119 11.1304 0.761237 9.77386C0.485244 9.6951 0.231407 9.59455 0 9.47197C0.204875 9.30584 0.476217 9.1483 0.814849 8.99938C0.983891 6.93426 1.23308 5.13152 1.56268 3.59142C1.89201 2.05132 2.13245 1.25049 2.28398 1.1892C3.01404 1.29431 3.54141 1.66852 3.86663 2.31155C4.19159 2.95484 4.38087 3.7839 4.43421 4.79898C4.48755 5.81407 4.46102 6.92539 4.35407 8.13295C5.59152 7.95795 6.79834 7.83993 7.97343 7.77864C8.16928 5.77482 8.42311 4.05515 8.73494 2.62016C9.04649 1.1849 9.27352 0.427889 9.41603 0.349123C10.0837 0.323047 10.5668 0.644562 10.8652 1.31394C11.1633 1.98331 11.3327 2.8871 11.3726 4.0245C11.4128 5.16217 11.3882 6.42672 11.2993 7.81789C11.4328 7.84423 11.5083 7.87945 11.5263 7.923C11.6598 8.53565 11.5529 9.01255 11.2057 9.35369C11.1789 9.68649 11.1568 10.0145 11.139 10.3384C11.0321 11.6771 10.9519 12.9635 10.8986 14.1974C10.8452 15.4313 10.8674 16.5251 10.9653 17.4789Z" fill="white"/>
<path fill-rule="evenodd" clip-rule="evenodd" d="M17.4029 10.6406C18.0172 10.1331 18.3088 9.75917 18.2776 9.5183C18.2465 9.2777 18.026 9.18147 17.6165 9.22958C17.207 9.2777 16.7483 9.49223 16.2409 9.87288C15.7333 10.2535 15.3104 10.8157 14.972 11.5595C15.3995 11.5944 15.8446 11.5049 16.3077 11.2904C16.7705 11.0761 17.1356 10.8595 17.4029 10.6406ZM15.2792 16.2981C14.6826 16.0268 14.193 15.6308 13.8101 15.1101C13.4271 14.5894 13.1333 14.0055 12.9287 13.3577C12.5723 12.1326 12.5814 11.0541 12.9553 10.1221C13.3292 9.19007 13.9058 8.43548 14.6848 7.85777C15.4641 7.28033 16.283 6.90425 17.1425 6.72897C18.0016 6.55397 18.7364 6.61311 19.3461 6.90613C19.956 7.19942 20.2744 7.75723 20.3012 8.57983C20.2922 9.51615 20.0873 10.26 19.6869 10.8114C19.2861 11.3627 18.8031 11.7719 18.2377 12.0385C17.672 12.3055 17.1244 12.4829 16.5949 12.5703C16.065 12.6576 15.6621 12.706 15.3861 12.7146C15.2259 12.7235 15.1457 12.7364 15.1457 12.7539C15.3147 13.419 15.6487 13.8391 16.1474 14.0141C16.646 14.1891 17.1893 14.2045 17.7768 14.0601C18.3646 13.9157 18.8854 13.7036 19.3395 13.4235C20.0427 12.977 20.7019 12.4805 21.3163 11.9337C21.9306 11.3866 22.4246 10.9294 22.7988 10.5619L22.879 10.4831C23.1727 10.2207 23.3798 10.1944 23.4999 10.4044C23.62 10.6143 23.5111 11.0737 23.1727 11.7826C22.8522 12.4477 22.4649 13.1149 22.0108 13.7843C21.5567 14.4539 21.0157 15.0424 20.3879 15.5499C19.7602 16.0575 19.0257 16.3943 18.1841 16.5604C17.3427 16.7268 16.3744 16.6392 15.2792 16.2981Z" fill="white"/>
<path fill-rule="evenodd" clip-rule="evenodd" d="M28.3551 17.2029C27.999 17.5443 27.6338 18.15 27.2599 19.021C26.886 19.8914 26.6122 20.7775 26.4385 21.6789C26.2648 22.5802 26.2982 23.2542 26.5386 23.7004C26.6989 23.6128 26.8882 23.2716 27.1064 22.6765C27.3244 22.0813 27.5359 21.3923 27.7408 20.6092C27.9454 19.8258 28.1081 19.1105 28.2282 18.4629C28.3485 17.8153 28.3907 17.3954 28.3551 17.2029ZM24.4685 25.84C23.9521 25.2448 23.6714 24.558 23.6271 23.7792C23.5825 23.0001 23.6917 22.1929 23.9543 21.3573C24.2169 20.5216 24.5599 19.7275 24.9827 18.975C25.4056 18.2223 25.8307 17.579 26.2582 17.0454C25.2965 17.1505 24.4863 16.9752 23.8273 16.5204C23.1684 16.0655 22.6632 15.4397 22.3114 14.6434C21.9597 13.8472 21.766 12.9939 21.7305 12.0837C21.6949 11.1737 21.815 10.3162 22.0912 9.51103C22.2335 9.12607 22.4452 8.79354 22.7256 8.51342C23.0059 8.23331 23.3 8.06502 23.6072 8.00803C23.9143 7.95104 24.1747 8.06502 24.3884 8.34917C24.602 8.63385 24.7089 9.15215 24.7089 9.90486C24.7089 10.0274 24.7043 10.1718 24.6955 10.3379C24.6778 10.8366 24.6778 11.4143 24.6955 12.0705C24.7133 12.727 24.7935 13.3133 24.936 13.8294C25.0785 14.3458 25.3277 14.6477 25.6838 14.7351C26.4407 14.6563 27.0151 14.348 27.4068 13.8098C27.7985 13.2716 28.0791 12.6283 28.2482 11.8802C28.4175 11.132 28.5422 10.3992 28.6223 9.68147C28.6935 9.03413 28.7824 8.50025 28.8893 8.08007C29.014 7.68651 29.232 7.48086 29.5439 7.46339C29.8554 7.44592 30.1448 7.58355 30.4121 7.87684C30.679 8.16986 30.8215 8.58789 30.8393 9.13037C30.8303 9.43657 30.8215 9.74733 30.8125 10.0624C30.7947 10.7449 30.7947 11.3729 30.8125 11.9458C30.8303 12.5192 30.9061 12.9152 31.0395 13.1337C31.1643 13.2738 31.4025 13.2499 31.7543 13.0617C32.1058 12.8735 32.5043 12.6044 32.9496 12.2544C33.3946 11.9044 33.8131 11.5632 34.2051 11.2304C34.3832 11.0818 34.5435 10.9506 34.686 10.8366C35.2645 10.3729 35.5517 10.2941 35.5474 10.6003C35.5427 10.9068 35.3225 11.4143 34.8862 12.1232C34.4499 12.8318 33.8845 13.5649 33.19 14.3217C32.4955 15.0787 31.7565 15.6717 30.9728 16.1002C30.9463 17.4129 30.8103 18.7997 30.5655 20.2613C30.3207 21.7227 29.8776 23.0133 29.2367 24.1335C28.8803 24.7198 28.4331 25.2494 27.8942 25.7217C27.3556 26.1943 26.7859 26.4744 26.1846 26.5618C25.5837 26.6494 25.0115 26.4088 24.4685 25.84Z" fill="white"/>
<path fill-rule="evenodd" clip-rule="evenodd" d="M45.2769 1.93779C44.6445 2.55932 44.0192 2.95073 43.4004 3.11256C42.7814 3.27466 42.1961 3.36418 41.6441 3.38165C41.0563 3.38165 40.5442 3.47359 40.1082 3.6572C39.6717 3.84108 39.3467 4.2919 39.1331 5.00939C39.0261 5.33306 38.9329 5.775 38.8527 6.33497C38.7726 6.8952 38.7146 7.47693 38.679 8.08098C39.8544 7.94953 40.9094 7.86001 41.8443 7.81189C42.7793 7.76377 43.2869 7.80087 43.3671 7.92345C43.4915 8.66729 43.3022 9.21193 42.7992 9.55764C42.2962 9.90335 41.655 10.1176 40.876 10.2007C40.097 10.284 39.3557 10.3036 38.6522 10.2598C38.6522 10.8813 38.661 11.4631 38.679 12.0056C38.6878 12.2244 38.719 12.5744 38.7726 13.0556C38.8259 13.5371 38.897 14.0403 38.9862 14.5653C39.7163 14.9941 40.4064 15.2543 41.0563 15.3462C41.7062 15.4382 42.2896 15.4382 42.8061 15.3462C43.3222 15.2543 43.7363 15.1605 44.0482 15.064C44.4043 14.9417 44.5911 14.9196 44.6092 14.9984C44.7159 15.6022 44.54 16.1011 44.0815 16.4947C43.6228 16.8885 43.0107 17.1729 42.245 17.3479C41.4792 17.5229 40.6802 17.5885 39.8475 17.545C39.0149 17.5012 38.2783 17.3501 37.6371 17.092C36.9963 16.8339 36.5731 16.4643 36.3685 15.9828C36.1636 15.3965 36.0077 14.5763 35.901 13.5217C35.7941 12.4671 35.7408 11.3187 35.7408 10.0759C35.3488 10.0413 34.9615 9.97754 34.5788 9.88561C34.1959 9.79394 33.8575 9.65603 33.5637 9.47215C34.0178 9.06112 34.7522 8.72401 35.7673 8.46164C35.8387 6.31749 36.0433 4.63303 36.3816 3.408C36.6221 2.6905 37.1007 2.16092 37.8174 1.81978C38.5343 1.47837 39.3623 1.27702 40.3019 1.21573C41.2412 1.15471 42.1559 1.19611 43.0465 1.34047C43.9368 1.48482 44.6803 1.68402 45.2769 1.93779Z" fill="white"/>
<path fill-rule="evenodd" clip-rule="evenodd" d="M50.4591 13.9876C50.7351 14.6263 51.1268 14.9261 51.6345 14.8868C52.1419 14.8473 52.6985 14.6024 53.3039 14.1516C53.9095 13.701 54.5014 13.1717 55.0804 12.5634C55.659 11.9553 56.1666 11.3975 56.6029 10.8899C56.79 10.6797 56.9547 10.4961 57.0972 10.3386C57.2662 10.1724 57.4019 10.1789 57.5045 10.3582C57.6068 10.5378 57.6467 10.8265 57.6246 11.2246C57.6024 11.6227 57.4933 12.0668 57.2974 12.5569C56.95 13.3795 56.4426 14.1648 55.7749 14.9129C55.107 15.6613 54.3523 16.2562 53.5109 16.6982C52.6695 17.1401 51.8148 17.3173 50.9466 17.2299C50.0784 17.1423 49.2704 16.674 48.5225 15.8253C48.1664 16.114 47.7657 16.3831 47.3204 16.6326C46.8751 16.882 46.4391 17.0087 46.0115 17.0132C45.5843 17.0175 45.2281 16.7966 44.9431 16.3503C45.6021 15.7379 46.2298 15.1078 46.8264 14.4602C47.04 14.2414 47.2315 14.04 47.4005 13.8564C47.2848 13.5852 47.1469 13.2919 46.9867 12.9768C46.764 12.5394 46.5479 12.0604 46.3389 11.5397C46.1294 11.019 45.976 10.4655 45.878 9.87915C45.7979 9.2052 45.878 8.7525 46.1185 8.52051C46.3589 8.28878 46.6527 8.17722 47.0001 8.18582C47.5252 8.18582 47.926 8.31701 48.202 8.57965C48.478 8.84202 48.676 9.17913 48.7963 9.59043C48.9164 10.0017 49.0122 10.4259 49.0835 10.8636C49.1369 11.1786 49.1993 11.4762 49.2704 11.7561C50.0272 10.7149 50.8287 9.39338 51.6744 7.79199C52.3689 7.80086 52.8966 7.87076 53.2571 8.00194C53.6179 8.1334 53.7535 8.44174 53.6646 8.92751C53.5755 9.41301 53.2016 10.1942 52.5426 11.2706C52.0352 12.0668 51.3407 12.9725 50.4591 13.9876Z" fill="white"/>
<path fill-rule="evenodd" clip-rule="evenodd" d="M59.3141 13.9091C59.5633 14.4779 59.8795 14.7449 60.2624 14.7099C60.6451 14.675 61.0215 14.443 61.391 14.0142C61.7603 13.5854 62.0475 13.069 62.2524 12.4652C62.4395 11.8964 62.5016 11.3649 62.4395 10.8703C62.3771 10.3759 62.2056 9.9974 61.9252 9.73503C61.6449 9.47239 61.2685 9.40249 60.7966 9.52481C60.2001 9.7525 59.786 10.1114 59.5545 10.6012C59.3229 11.0915 59.205 11.6316 59.2006 12.2225C59.1959 12.8131 59.234 13.3755 59.3141 13.9091ZM55.8682 24.108C56.0821 24.0118 56.2467 23.6465 56.3624 23.012C56.4781 22.3776 56.5673 21.658 56.6297 20.8528C56.6918 20.0477 56.732 19.3345 56.7498 18.7132C56.7766 18.3108 56.7943 18.0175 56.8031 17.8339C56.5003 18.2275 56.229 18.8401 55.9885 19.6716C55.7481 20.5028 55.6012 21.3429 55.5476 22.1918C55.4942 23.0405 55.6012 23.6793 55.8682 24.108ZM64.8835 12.4128C64.6876 13.3402 64.334 14.176 63.8216 14.9199C63.3096 15.6637 62.6821 16.2258 61.9386 16.6065C61.1949 16.9871 60.3913 17.0901 59.5277 16.9151C59.5455 17.8514 59.5411 18.792 59.5143 19.7372C59.4878 20.6821 59.4077 21.5725 59.2742 22.4082C59.1404 23.244 58.9134 23.9594 58.5928 24.5545C58.2722 25.1406 57.8559 25.6702 57.3441 26.1428C56.8321 26.6154 56.2776 26.8952 55.6813 26.9828C55.0848 27.0702 54.4972 26.8296 53.9182 26.2608C53.3128 25.5782 53.0213 24.736 53.0434 23.7341C53.0658 22.7319 53.2838 21.6951 53.698 20.6232C54.1118 19.5512 54.6061 18.571 55.1805 17.6828C55.7547 16.7946 56.2823 16.1274 56.7632 15.6812C56.8252 15.0599 56.8187 14.397 56.7432 13.6924C56.6674 12.9881 56.4694 12.3469 56.1488 11.7695C55.8014 11.1746 55.6813 10.6953 55.788 10.3321C55.895 9.96917 56.1174 9.70438 56.456 9.53798C56.7142 9.38932 56.9834 9.32373 57.264 9.3412C57.5444 9.35867 57.7916 9.5775 58.0053 9.9974C58.4147 8.95624 58.9355 8.22773 59.5679 7.81185C60.2001 7.39625 60.8568 7.23657 61.5379 7.33281C62.219 7.42932 62.8446 7.71561 63.4143 8.19251C63.9841 8.66967 64.4141 9.27561 64.7032 10.0106C64.9926 10.7455 65.0525 11.5464 64.8835 12.4128Z" fill="white"/>
<path fill-rule="evenodd" clip-rule="evenodd" d="M70.787 10.6406C71.4014 10.1331 71.6908 9.75917 71.6552 9.5183C71.6194 9.2777 71.3967 9.18147 70.9872 9.22959C70.5775 9.2777 70.1193 9.49223 69.6116 9.87288C69.1042 10.2535 68.6811 10.8157 68.3427 11.5595C68.7703 11.5944 69.2153 11.5049 69.6784 11.2904C70.1415 11.0761 70.5107 10.8595 70.787 10.6406ZM68.6502 16.2981C68.0533 16.0268 67.5637 15.6308 67.1808 15.1101C66.7978 14.5894 66.5084 14.0055 66.3129 13.3577C65.9477 12.1326 65.9521 11.0541 66.326 10.1221C66.7002 9.19007 67.2787 8.43548 68.0624 7.85777C68.8458 7.28033 69.6672 6.90425 70.5266 6.72897C71.3858 6.55397 72.118 6.61311 72.7236 6.90613C73.3289 7.19942 73.6495 7.75293 73.6853 8.56666C73.6673 9.51185 73.4602 10.26 73.0642 10.8114C72.6681 11.3627 72.1848 11.7719 71.615 12.0385C71.0449 12.3055 70.4973 12.4829 69.9722 12.5703C69.447 12.6576 69.0463 12.706 68.7703 12.7146C68.601 12.7235 68.5164 12.7364 68.5164 12.7539C68.6945 13.419 69.0148 13.8588 69.4782 14.0733C69.941 14.2875 70.4842 14.3029 71.1076 14.119C71.7307 13.9354 72.5455 13.4542 73.5516 12.6751C74.5935 11.7651 75.2945 11.0213 75.6553 10.4439C76.0158 9.86616 76.2631 9.41131 76.3966 9.07851C76.5569 8.67607 76.8619 8.45725 77.3115 8.4223C77.761 8.38736 78.1196 8.6543 78.3865 9.22313C78.4401 9.39814 78.4976 9.50755 78.5602 9.5511C79.0854 8.34354 79.7755 7.55158 80.6303 7.17522C81.4851 6.79914 82.5357 6.91285 83.7825 7.51663C84.3878 7.84917 84.7863 8.31719 84.9778 8.92124C85.1693 9.52502 85.2002 10.096 85.0713 10.6342C84.9422 11.1724 84.6859 11.5114 84.3033 11.6514C83.9203 11.7915 83.4485 11.5552 82.8875 10.9425C82.7362 10.7415 82.5981 10.492 82.4736 10.1944C82.3842 9.97557 82.2909 9.78525 82.193 9.62341C82.0951 9.46158 81.9794 9.36319 81.8459 9.32798C81.3024 9.25808 80.8664 9.44626 80.537 9.89251C80.2071 10.3388 79.9446 10.9361 79.749 11.6842C79.5529 12.4324 79.3792 13.2133 79.2279 14.0273C79.0586 15.0424 78.854 15.922 78.6136 16.6656C78.0435 16.622 77.5919 16.4096 77.2579 16.029C76.9242 15.6483 76.7393 15.1824 76.7038 14.6311C76.677 14.1848 76.6635 13.7429 76.6635 13.3052C76.6635 12.8504 76.6504 12.3864 76.6236 11.9138C75.5194 13.559 74.5221 14.7099 73.6317 15.3661C72.7414 16.0225 71.8554 16.4271 70.9741 16.5803C70.0925 16.7333 69.3179 16.6392 68.6502 16.2981Z" fill="white"/>
<path fill-rule="evenodd" clip-rule="evenodd" d="M89.9526 2.81049C89.7746 2.86748 89.5563 3.39465 89.2984 4.39199C89.5831 4.37478 89.8591 4.36161 90.1263 4.35274C90.1887 3.26776 90.1307 2.7535 89.9526 2.81049ZM89.178 8.70421C89.4452 8.14855 89.681 7.33697 89.8859 6.2692C89.5388 6.26059 89.2048 6.25172 88.8842 6.24285C88.6616 6.96061 88.4991 7.66924 88.3968 8.36926C88.2945 9.06954 88.2743 9.58569 88.3366 9.91823C88.6304 9.66445 88.911 9.25987 89.178 8.70421ZM87.1345 2.90216C87.4285 2.22418 87.7868 1.60508 88.2097 1.04485C88.6326 0.484887 89.0979 0.145898 89.6055 0.0276153C90.1129 -0.0903989 90.6471 0.169824 91.2082 0.808552C91.4754 1.14136 91.6357 1.61153 91.689 2.21961C91.7424 2.82797 91.7158 3.51723 91.6089 4.28715C92.6773 4.2522 93.5567 4.24575 94.2465 4.26752C94.9367 4.2893 95.304 4.33527 95.3486 4.40516C95.4999 4.86028 95.3907 5.21916 95.0214 5.48154C94.6519 5.74418 94.124 5.93451 93.4385 6.05252C92.7531 6.1708 92.0137 6.23855 91.2216 6.25602C90.901 7.60364 90.5249 8.77196 90.093 9.76069C89.6611 10.7497 89.0979 11.5677 88.4034 12.2153C88.6348 13.2742 89.0087 13.9611 89.5254 14.2761C90.0415 14.5912 90.6318 14.6504 91.2949 14.4533C91.9582 14.2565 92.6327 13.913 93.3184 13.4229C94.0039 12.9328 94.8609 11.8457 95.44 11.3032C96.0185 10.7605 96.4816 10.3056 96.829 9.93785C97.1228 9.64913 97.303 9.64268 97.3698 9.91823C97.4365 10.194 97.3005 10.7212 96.9625 11.5C96.6241 12.2175 95.9449 13.5237 95.3751 14.2761C94.8051 15.0289 94.1552 15.6961 93.4254 16.2778C92.6951 16.8598 91.9248 17.258 91.1146 17.4725C90.3041 17.6867 89.4986 17.6147 88.6971 17.2558C87.8779 16.8531 87.2526 16.2079 86.8207 15.3197C86.3888 14.4315 86.1063 13.4296 85.9725 12.3137C85.839 11.1981 85.801 10.0932 85.859 8.99938C85.917 7.90553 86.0261 6.94314 86.1864 6.11166C85.4919 6.10306 84.7594 6.06354 83.9891 5.99365C83.2191 5.92349 82.5446 5.7923 81.9658 5.59982C82.3665 5.381 82.9697 5.19282 83.7755 5.03529C84.5816 4.87776 85.4919 4.74227 86.507 4.62829C86.6314 4.15596 86.8407 3.58041 87.1345 2.90216Z" fill="white"/>
<path d="M101.273 17.5121C102.227 17.5121 103 16.7523 103 15.8151C103 14.8779 102.227 14.1182 101.273 14.1182C100.32 14.1182 99.5466 14.8779 99.5466 15.8151C99.5466 16.7523 100.32 17.5121 101.273 17.5121Z" fill="url(#paint0_linear)"/>
<defs>
<linearGradient id="paint0_linear" x1="103" y1="15.8151" x2="99.5466" y2="15.8151" gradientUnits="userSpaceOnUse">
<stop stop-color="#41CEA5"/>
<stop offset="1" stop-color="#4BE5DC"/>
</linearGradient>
</defs>
</svg>
