<?xml version="1.0" encoding="UTF-8" standalone="no"?>
<!-- Generator: Adobe Illustrator 19.0.0, SVG Export Plug-In . SVG Version: 6.00 Build 0)  -->

<svg
   version="1.1"
   id="layer"
   x="0px"
   y="0px"
   viewBox="-153 -46 621 120"
   xml:space="preserve"
   sodipodi:docname="livePerson2.svg"
   width="207"
   height="40"
   inkscape:version="1.1 (c68e22c387, 2021-05-23)"
   xmlns:inkscape="http://www.inkscape.org/namespaces/inkscape"
   xmlns:sodipodi="http://sodipodi.sourceforge.net/DTD/sodipodi-0.dtd"
   xmlns="http://www.w3.org/2000/svg"
   xmlns:svg="http://www.w3.org/2000/svg"><defs
   id="defs2458" /><sodipodi:namedview
   id="namedview2456"
   pagecolor="#ffffff"
   bordercolor="#666666"
   borderopacity="1.0"
   inkscape:pageshadow="2"
   inkscape:pageopacity="0.0"
   inkscape:pagecheckerboard="0"
   showgrid="false"
   scale-x="0.9"
   inkscape:zoom="1.291411"
   inkscape:cx="44.137767"
   inkscape:cy="326.38717"
   inkscape:window-width="1920"
   inkscape:window-height="1027"
   inkscape:window-x="2552"
   inkscape:window-y="-8"
   inkscape:window-maximized="1"
   inkscape:current-layer="layer" />
<style
   type="text/css"
   id="style2451">
	.st0{fill:#FE5E00;}
</style>
<path
   class="st0"
   d="m -124.76128,-6.6035629 -7.5,-6.6000001 7.8,-7.7 6.7,7.4 c 1.4,-1 2.8,-2 4.3,-2.8 l -4.4,-8.9 10.2,-4.2 3.3,9.3 c 1.7,-0.4 3.3,-0.8 4.999997,-1 l -0.6,-9.9 h 11.1 l -0.6,9.9 c 1.7,0.2 3.4,0.5 5,1 l 3.3,-9.3 10.2,4.2 -4.2,8.9 c 1.5,0.8 2.9,1.8 4.3,2.8 l 6.7,-7.4 7.8,7.7 -7.5,6.6000001 c 1,1.3 2,2.7 2.9,4.2 l 9,-4.3 4.2,10.1 -9.5,3.3 c 0.4,1.6 0.8,3.3 1,4.8999999 l 10,-0.5 v 10.9 l -10,-0.5 c -0.2,1.7 -0.6,3.3 -1,4.9 l 9.5,3.3 -4.2,10.1 -9,-4.3 c -0.9,1.5 -1.8,2.9 -2.9,4.2 l 7.5,6.6 -7.8,7.7 -6.7,-7.4 c -1.4,1 -2.8,2 -4.3,2.8 l 4.4,8.9 -10.2,4.2 -3.3,-9.3 c -1.7,0.4 -3.3,0.8 -5,1 l 0.6,9.9 h -11.1 l 0.6,-9.9 c -1.699997,-0.2 -3.399997,-0.5 -4.999997,-1 l -3.3,9.3 -10.2,-4.2 4.4,-8.9 c -1.5,-0.8 -2.9,-1.8 -4.3,-2.8 l -6.7,7.4 -7.8,-7.7 7.5,-6.6 c -1,-1.3 -2,-2.7 -2.9,-4.2 l -9,4.3 -4.2,-10.1 9.5,-3.3 c -0.4,-1.6 -0.8,-3.3 -1,-4.9 l -10,0.5 v -10.9 l 10,0.5 c 0.2,-1.6999999 0.5,-3.2999999 1,-4.8999999 l -9.5,-3.3 4.2,-10.1 9.1,4.3 c 0.6,-1.5 1.6,-2.9 2.6,-4.2 z m 7.2,23.0999999 c -0.1,4.6 1.2,9.2 3.8,13.1 2.5,3.9 6.1,6.9 10.4,8.8 4.299997,1.8 8.999997,2.3 13.499997,1.5 4.6,-0.9 8.7,-3.1 12.1,-6.3 3.3,-3.3 5.6,-7.4 6.5,-12 0.9,-4.5 0.5,-9.3 -1.3,-13.4999999 -1.8,-4.3 -4.7,-8.00000005 -8.6,-10.5 -3.8,-2.6 -8.4,-4 -13,-4 -3,0 -6.099997,0.6 -8.899997,1.7 -2.8,1.1 -5.4,2.8 -7.6,4.99999995 -2.2,2.10000005 -3.9,4.70000005 -5.1,7.50000005 -1.2,2.5999999 -1.8,5.5999999 -1.8,8.6999999 z m 532.8,-24.5999999 37.1,36.6999999 V -6.2035629 h 5.3 V 40.696437 l -37.1,-36.5999999 V 38.696437 h -5.3 z m -64.7,24.2999999 c 0,10.1 8.7,18.6 19.5,18.6 10.8,0 19.5,-8.5 19.5,-18.6 0,-10.0999999 -8.6,-18.5999999 -19.5,-18.5999999 -10.9,0 -19.5,8.4 -19.5,18.5999999 z m 44.2,0.1 c 0,12.9 -11.2,23.2 -24.8,23.2 -13.6,0 -24.8,-10.2 -24.8,-23.2 0,-12.8999999 11.2,-23.2999999 24.8,-23.2999999 13.6,0 24.8,10.4 24.8,23.2999999 z m -71.6,-13.7999999 c -1.9,-3.10000005 -4.2,-4.9 -8.2,-4.9 -4.2,0 -7.9,2.89999995 -7.9,7 0,3.9 4.2,5.6999999 7.4,6.9999999 l 3.2,1.3 c 6.2,2.6 11.4,5.5 11.4,12.6 0,7.9 -6.7,13.9 -14.9,13.9 -7.6,0 -13.3,-4.6 -14.8,-11.6 l 5.2,-1.4 c 0.3,2.3 1.4,4.5 3.2,6 1.8,1.5 4,2.4 6.4,2.4 5.1,0 9.8,-3.7 9.8,-8.7 0,-5.1 -4.4,-7 -8.8,-8.9 l -2.9,-1.2 c -5.5,-2.4 -10.3,-5.1 -10.3,-11.4999999 0,-7 6.2,-11.4 13.3,-11.4 2.5,-0.1 4.9,0.6 7.1,1.8 2.2,1.2 4,3 5.2,5.19999995 z m -61.5,12.0999999 h 1.6 c 6,0 12,-1.1 12,-7.9999999 0,-7.40000005 -5.7,-8.1 -12.1,-8.1 h -1.6 z m 0,24.1 h -5.3 V -6.2035629 h 6.9 c 9,0 17.4,2.3 17.4,12.4 0,6.8999999 -4.6,11.7999999 -12,12.3999999 l 15.1,20.1 h -6.5 l -14.3,-19.7 h -1.3 z m -50.4,-44.8999999 h 24.5 v 4.6 h -19.3 V 11.796437 h 18.8 v 4.6 h -18.8 v 17.6 h 19.3 v 4.6 h -24.6 V -6.2035629 Z m -38.3,20.5999999 h 3.6 c 5.9,0 10.8,-1.7 10.8,-8.0999999 0,-7.3 -6.2,-7.9 -12.4,-7.9 h -1.9 z m 0,24.3 h -5.3 V -6.2035629 h 7.8 c 4.1,0 8.4,0.1 11.8,2.4 1.7,1.1 3,2.7 4,4.39999995 0.9,1.80000005 1.4,3.80000005 1.4,5.80000005 0,1.8 -0.4,3.6999999 -1.2,5.2999999 -0.8,1.7 -1.9,3.1 -3.4,4.3 -3.2,2.5 -7.3,3 -11.3,3 h -3.8 z m -43.5,-37.2999999 v 9.8999999 h 14.2 v 7.6 h -14.2 v 12.2 h 14.7 v 7.6 h -23.6 V -6.2035629 h 23.6 v 7.6 z m -45.900003,19.0999999 10.9,-26.6999999 h 9.600003 l -20.300003,47.3999999 -20.1,-47.3999999 h 9.6 z m -36.4,18.2 h -8.9 V -6.2035629 h 8.9 z m -38.4999997,-7.6 H 21.238717 v 7.6 H -0.26128266 V -6.2035629 H 8.6387173 Z"
   id="path2453"
   style="fill:#000000" />
</svg>
