<svg width="322" height="322" viewBox="0 0 322 322" fill="none" xmlns="http://www.w3.org/2000/svg">
<path d="M161.433 266.867C219.662 266.867 266.866 219.663 266.866 161.434C266.866 103.203 219.662 56 161.433 56C103.202 56 55.999 103.203 55.999 161.434C55.999 219.663 103.202 266.867 161.433 266.867Z" fill="#F0F1F2"/>
<path d="M168.079 93H154.815L154.098 108.26H168.797L168.079 93Z" fill="url(#paint0_linear)"/>
<path d="M172.435 111.619V119.25C172.435 124.173 176.197 126.88 179.864 126.88C183.545 126.88 187.294 124.183 187.294 119.25V111.619H172.435Z" fill="url(#paint1_linear)"/>
<path d="M176.623 161.188C177.129 160.685 177.885 160.556 178.529 160.855C182.527 162.737 187.328 161.904 190.466 158.768C192.863 156.371 193.939 153.069 193.495 149.853L189.438 153.91C186.03 157.318 180.003 155.829 178.741 150.996C178.163 148.78 178.787 146.486 180.407 144.861L184.469 140.802C181.238 140.353 177.931 141.427 175.528 143.831C172.396 146.964 171.558 151.762 173.441 155.771C173.743 156.411 173.61 157.171 173.111 157.671L163.815 166.988L167.329 170.501L176.623 161.188Z" fill="#E9ECF2"/>
<path d="M161.446 126.88C165.145 126.88 168.876 124.16 168.876 119.25V111.619H154.017V119.25C154.017 124.162 157.765 126.88 161.446 126.88Z" fill="url(#paint2_linear)"/>
<path d="M155.553 175.252L146.258 184.549C145.757 185.052 144.994 185.183 144.353 184.88C140.355 182.99 135.549 183.832 132.389 186.971C130.003 189.36 128.933 192.661 129.386 195.88L133.421 191.829C134.978 190.272 137.373 189.642 139.519 190.147C141.822 190.768 143.574 192.526 144.145 194.746C144.698 196.965 144.051 199.305 142.461 200.865L138.412 204.913C141.638 205.372 144.939 204.299 147.332 201.905C150.479 198.759 151.317 193.964 149.42 189.972C149.116 189.33 149.248 188.566 149.751 188.064L159.059 178.754C158.835 178.53 155.329 175.029 155.553 175.252Z" fill="#E9ECF2"/>
<path d="M187.039 108.26L184.872 93H171.624L172.356 108.26H187.039Z" fill="url(#paint3_linear)"/>
<path d="M223.682 108.26L218.982 94.1488C218.753 93.4627 218.111 93 217.388 93H205.288L208.92 108.26H223.682Z" fill="url(#paint4_linear)"/>
<path d="M209.273 119.25C209.273 124.162 213.022 126.88 216.703 126.88C220.909 126.88 224.332 123.457 224.332 119.25V111.619H209.273V119.25Z" fill="url(#paint5_linear)"/>
<path d="M190.855 111.619V119.25C190.855 124.16 194.605 126.88 198.283 126.88C201.964 126.88 205.713 124.183 205.713 119.25V111.619H190.855Z" fill="url(#paint6_linear)"/>
<path d="M205.27 108.26L201.654 93H188.449L190.633 108.26H205.27Z" fill="url(#paint7_linear)"/>
<path d="M134.445 93H121.24L117.624 108.26H132.261L134.445 93Z" fill="url(#paint8_linear)"/>
<path d="M106.189 126.88C109.87 126.88 113.619 124.183 113.619 119.25V111.619H98.5605V119.25C98.5605 123.457 101.983 126.88 106.189 126.88Z" fill="url(#paint9_linear)"/>
<path d="M117.604 93H105.504C104.781 93 104.139 93.4627 103.91 94.1488L99.21 108.26H113.972L117.604 93Z" fill="url(#paint10_linear)"/>
<path d="M143.028 126.88C146.733 126.88 150.456 124.161 150.456 119.25V111.619H135.599V119.25C135.599 124.162 139.347 126.88 143.028 126.88Z" fill="url(#paint11_linear)"/>
<path d="M226.193 221.379H96.6797C95.7521 221.379 95 222.131 95 223.058V226.819C95 227.747 95.7521 228.499 96.6797 228.499H226.193C227.121 228.499 227.873 227.747 227.873 226.819V223.058C227.873 222.131 227.121 221.379 226.193 221.379Z" fill="black"/>
<path d="M147.331 143.83C144.94 141.426 141.649 140.348 138.412 140.801L142.471 144.859C144.07 146.458 144.697 148.744 144.148 150.973C142.891 155.787 136.925 157.332 133.436 153.923L129.387 149.858C128.941 153.068 130.011 156.37 132.397 158.771C135.533 161.892 140.349 162.734 144.356 160.853C144.586 160.746 144.829 160.695 145.069 160.695C145.507 160.695 145.935 160.865 146.259 161.188C177.954 192.887 137.131 152.05 173.111 188.064C173.61 188.565 173.743 189.325 173.441 189.964C171.558 193.973 172.396 198.772 175.528 201.904C177.934 204.292 181.241 205.37 184.469 204.911L180.41 200.852C176.969 197.475 178.444 191.478 183.308 190.159C185.703 189.591 187.923 190.273 189.451 191.84L193.495 195.883C193.948 192.66 192.872 189.357 190.471 186.971C187.319 183.819 182.522 182.982 178.535 184.877C177.89 185.179 177.129 185.05 176.626 184.548C158.729 166.653 162.634 170.556 149.75 157.672C149.247 157.17 149.116 156.405 149.42 155.764C151.316 151.773 150.476 146.978 147.331 143.83Z" fill="#E9ECF2"/>
<path d="M151.266 93H138.019L135.852 108.26H150.533L151.266 93Z" fill="url(#paint12_linear)"/>
<path d="M143.028 130.24C139.166 130.24 135.779 128.228 133.818 125.208C131.857 128.228 128.47 130.24 124.608 130.24C120.747 130.24 117.36 128.228 115.4 125.208C113.439 128.228 110.052 130.24 106.19 130.24C105.458 130.24 104.745 130.161 104.053 130.024V218.012H218.82V130.026C218.134 130.16 217.428 130.24 216.703 130.24C212.841 130.24 209.454 128.228 207.493 125.208C205.532 128.228 202.145 130.24 198.283 130.24C194.422 130.24 191.035 128.228 189.075 125.208C187.114 128.228 183.727 130.24 179.865 130.24C176.003 130.24 172.616 128.227 170.655 125.206C168.695 128.227 165.308 130.24 161.446 130.24C157.584 130.24 154.197 128.228 152.236 125.208C150.276 128.228 146.888 130.24 143.028 130.24ZM152.923 156.095L161.439 164.611L169.939 156.093C168.082 151.052 169.307 145.302 173.152 141.456C177.172 137.438 183.132 136.241 188.335 138.406C188.854 138.621 189.23 139.08 189.337 139.63C189.447 140.181 189.274 140.748 188.878 141.144L182.784 147.235C182.014 148.007 181.717 149.097 181.99 150.147C182.565 152.35 185.393 153.207 187.062 151.533L193.154 145.443C193.55 145.046 194.125 144.881 194.667 144.982C195.218 145.092 195.678 145.468 195.892 145.985C198.053 151.181 196.854 157.13 192.841 161.143C188.994 164.992 183.237 166.21 178.207 164.359L169.705 172.878L178.202 181.375C183.231 179.507 188.981 180.732 192.841 184.592C196.861 188.587 198.06 194.538 195.892 199.75C195.678 200.268 195.218 200.644 194.667 200.753C194.127 200.858 193.55 200.691 193.154 200.293L187.062 194.201C186.332 193.456 185.155 193.175 184.132 193.416C181.892 194.026 181.134 196.858 182.773 198.466L188.878 204.57C189.274 204.966 189.447 205.534 189.337 206.083C189.23 206.633 188.854 207.093 188.335 207.308C186.612 208.025 184.805 208.373 183.014 208.373C179.401 208.374 175.847 206.957 173.156 204.284C169.307 200.435 168.082 194.684 169.939 189.642L161.433 181.13L152.923 189.64C154.791 194.668 153.568 200.419 149.706 204.28C147.028 206.957 143.481 208.375 139.87 208.375C138.079 208.375 136.272 208.027 134.546 207.308C134.028 207.093 133.652 206.633 133.545 206.083C133.435 205.534 133.608 204.966 134.004 204.57L140.095 198.477C140.852 197.736 141.149 196.626 140.887 195.571C140.62 194.531 139.778 193.696 138.693 193.403C138.501 193.358 138.232 193.328 137.969 193.328C137.132 193.328 136.362 193.638 135.797 194.2L129.73 200.291C129.336 200.687 128.766 200.866 128.217 200.753C127.665 200.645 127.206 200.269 126.99 199.751C124.822 194.549 126.012 188.599 130.017 184.592C133.895 180.738 139.658 179.517 144.677 181.376L153.181 172.872L144.673 164.358C139.64 166.201 133.877 164.982 130.021 161.147C126.016 157.119 124.831 151.17 126.99 145.984C127.206 145.467 127.665 145.091 128.217 144.982C128.761 144.871 129.334 145.048 129.73 145.445L135.8 151.536C137.491 153.188 140.316 152.355 140.891 150.147C141.152 149.092 140.854 147.995 140.095 147.235L134.004 141.144C133.608 140.748 133.435 140.179 133.545 139.63C133.652 139.08 134.028 138.621 134.546 138.406C139.754 136.238 145.707 137.435 149.71 141.459C153.568 145.318 154.791 151.068 152.923 156.095Z" fill="black"/>
<path d="M117.18 111.619V119.25C117.18 124.16 120.929 126.88 124.607 126.88C128.288 126.88 132.037 124.183 132.037 119.25V111.619H117.18Z" fill="url(#paint13_linear)"/>
<defs>
<linearGradient id="paint0_linear" x1="154.098" y1="93" x2="170.257" y2="94.6727" gradientUnits="userSpaceOnUse">
<stop offset="0.0501562" stop-color="#49E3D7"/>
<stop offset="1" stop-color="#42CEA9"/>
</linearGradient>
<linearGradient id="paint1_linear" x1="172.435" y1="111.619" x2="188.766" y2="113.328" gradientUnits="userSpaceOnUse">
<stop offset="0.0501562" stop-color="#49E3D7"/>
<stop offset="1" stop-color="#42CEA9"/>
</linearGradient>
<linearGradient id="paint2_linear" x1="154.017" y1="111.619" x2="170.349" y2="113.328" gradientUnits="userSpaceOnUse">
<stop offset="0.0501562" stop-color="#49E3D7"/>
<stop offset="1" stop-color="#42CEA9"/>
</linearGradient>
<linearGradient id="paint3_linear" x1="171.624" y1="93" x2="188.553" y2="94.8377" gradientUnits="userSpaceOnUse">
<stop offset="0.0501562" stop-color="#49E3D7"/>
<stop offset="1" stop-color="#42CEA9"/>
</linearGradient>
<linearGradient id="paint4_linear" x1="205.288" y1="93" x2="225.388" y2="95.6037" gradientUnits="userSpaceOnUse">
<stop offset="0.0501562" stop-color="#49E3D7"/>
<stop offset="1" stop-color="#42CEA9"/>
</linearGradient>
<linearGradient id="paint5_linear" x1="209.273" y1="111.619" x2="225.819" y2="113.374" gradientUnits="userSpaceOnUse">
<stop offset="0.0501562" stop-color="#49E3D7"/>
<stop offset="1" stop-color="#42CEA9"/>
</linearGradient>
<linearGradient id="paint6_linear" x1="190.855" y1="111.619" x2="207.185" y2="113.328" gradientUnits="userSpaceOnUse">
<stop offset="0.0501562" stop-color="#49E3D7"/>
<stop offset="1" stop-color="#42CEA9"/>
</linearGradient>
<linearGradient id="paint7_linear" x1="188.449" y1="93" x2="206.88" y2="95.1833" gradientUnits="userSpaceOnUse">
<stop offset="0.0501562" stop-color="#49E3D7"/>
<stop offset="1" stop-color="#42CEA9"/>
</linearGradient>
<linearGradient id="paint8_linear" x1="117.624" y1="93" x2="136.055" y2="95.1833" gradientUnits="userSpaceOnUse">
<stop offset="0.0501562" stop-color="#49E3D7"/>
<stop offset="1" stop-color="#42CEA9"/>
</linearGradient>
<linearGradient id="paint9_linear" x1="98.5605" y1="111.619" x2="115.106" y2="113.374" gradientUnits="userSpaceOnUse">
<stop offset="0.0501562" stop-color="#49E3D7"/>
<stop offset="1" stop-color="#42CEA9"/>
</linearGradient>
<linearGradient id="paint10_linear" x1="99.21" y1="93" x2="119.31" y2="95.6037" gradientUnits="userSpaceOnUse">
<stop offset="0.0501562" stop-color="#49E3D7"/>
<stop offset="1" stop-color="#42CEA9"/>
</linearGradient>
<linearGradient id="paint11_linear" x1="135.599" y1="111.619" x2="151.928" y2="113.328" gradientUnits="userSpaceOnUse">
<stop offset="0.0501562" stop-color="#49E3D7"/>
<stop offset="1" stop-color="#42CEA9"/>
</linearGradient>
<linearGradient id="paint12_linear" x1="135.852" y1="93" x2="152.779" y2="94.8376" gradientUnits="userSpaceOnUse">
<stop offset="0.0501562" stop-color="#49E3D7"/>
<stop offset="1" stop-color="#42CEA9"/>
</linearGradient>
<linearGradient id="paint13_linear" x1="117.18" y1="111.619" x2="133.509" y2="113.328" gradientUnits="userSpaceOnUse">
<stop offset="0.0501562" stop-color="#49E3D7"/>
<stop offset="1" stop-color="#42CEA9"/>
</linearGradient>
</defs>
</svg>
